G04*
G04 #@! TF.GenerationSoftware,Altium Limited,Altium Designer,23.9.2 (47)*
G04*
G04 Layer_Physical_Order=2*
G04 Layer_Color=16711680*
%FSLAX44Y44*%
%MOMM*%
G71*
G04*
G04 #@! TF.SameCoordinates,EEA8B457-634A-40EF-9803-A2E49DE358F5*
G04*
G04*
G04 #@! TF.FilePolarity,Positive*
G04*
G01*
G75*
%ADD18C,1.2500*%
%ADD19R,1.2500X1.2500*%
%ADD29C,0.3810*%
%ADD30C,0.3000*%
%ADD31C,4.5000*%
%ADD32R,1.2300X1.2300*%
%ADD33C,1.2300*%
%ADD34R,1.3700X1.3700*%
%ADD35C,1.3700*%
%ADD36C,1.4000*%
%ADD37R,1.4000X1.4000*%
%ADD38C,1.7500*%
%ADD39R,1.3700X1.3700*%
%ADD40R,1.9800X1.9800*%
%ADD41C,1.9800*%
%ADD42C,1.1500*%
%ADD43R,1.8600X1.8600*%
%ADD44C,1.8600*%
G36*
X706120Y45121D02*
X705840Y44885D01*
X704153Y45122D01*
X702426Y47707D01*
X699217Y50916D01*
X695443Y53438D01*
X691251Y55175D01*
X687070Y56006D01*
Y33020D01*
X681990D01*
Y56006D01*
X677810Y55175D01*
X673616Y53438D01*
X669843Y50916D01*
X666634Y47707D01*
X664112Y43934D01*
X662375Y39741D01*
X661837Y37034D01*
X630174D01*
X628638Y36729D01*
X627372Y35883D01*
X626816Y35989D01*
X626102Y36284D01*
Y50792D01*
X608338D01*
Y33028D01*
X622846D01*
X623332Y31855D01*
X619875Y28398D01*
X611009D01*
X600687Y38720D01*
X600861Y39370D01*
X594360D01*
Y32869D01*
X595010Y33043D01*
X606508Y21546D01*
X607810Y20675D01*
X609346Y20370D01*
X621538D01*
X623074Y20675D01*
X624376Y21546D01*
X631837Y29006D01*
X661837D01*
X662375Y26300D01*
X664112Y22106D01*
X666634Y18333D01*
X669843Y15124D01*
X671651Y13915D01*
X671283Y12700D01*
X15240D01*
Y411527D01*
X16413Y412013D01*
X17063Y411364D01*
X20837Y408842D01*
X25029Y407105D01*
X29210Y406274D01*
Y429260D01*
X34290D01*
Y406274D01*
X38470Y407105D01*
X42663Y408842D01*
X46437Y411364D01*
X49646Y414573D01*
X52168Y418346D01*
X53905Y422539D01*
X54443Y425246D01*
X463411D01*
X545721Y342936D01*
X480103Y277318D01*
X326790D01*
X318411Y285697D01*
Y287020D01*
X311411D01*
Y280020D01*
X312734D01*
X322289Y270466D01*
X323591Y269595D01*
X325127Y269290D01*
X481765D01*
X483302Y269595D01*
X484604Y270466D01*
X546228Y332090D01*
X547401Y331604D01*
Y136906D01*
X547420Y136812D01*
Y80638D01*
X547725Y79102D01*
X548596Y77800D01*
X581945Y44450D01*
X591820D01*
X600861D01*
X600570Y45534D01*
X599334Y47676D01*
X597586Y49424D01*
X595834Y50435D01*
Y96501D01*
X595529Y98037D01*
X594658Y99340D01*
X555448Y138550D01*
Y294078D01*
X569703D01*
Y298246D01*
X632518D01*
X659719Y271045D01*
Y260158D01*
X676283D01*
Y276722D01*
X665396D01*
X637020Y305098D01*
X635717Y305969D01*
X634181Y306274D01*
X569703D01*
Y310442D01*
X555448D01*
Y320553D01*
X556718Y320985D01*
X558363Y320036D01*
X560444Y319478D01*
X562598D01*
X564679Y320036D01*
X566545Y321113D01*
X568069Y322636D01*
X569146Y324502D01*
X569703Y326583D01*
Y328737D01*
X569146Y330818D01*
X568069Y332684D01*
X566545Y334207D01*
X564679Y335284D01*
X562598Y335842D01*
X560444D01*
X558363Y335284D01*
X556718Y334335D01*
X555448Y334767D01*
Y341310D01*
X558903Y344765D01*
X558981Y344744D01*
Y350520D01*
X553205D01*
X553226Y350442D01*
X551398Y348613D01*
X467912Y432098D01*
X466610Y432969D01*
X465074Y433274D01*
X54443D01*
X53905Y435980D01*
X52168Y440173D01*
X50125Y443230D01*
X50804Y444500D01*
X706120D01*
Y45121D01*
D02*
G37*
%LPC*%
G36*
X674351Y420521D02*
Y414020D01*
X680852D01*
X680561Y415104D01*
X679325Y417246D01*
X677577Y418994D01*
X675436Y420230D01*
X674351Y420521D01*
D02*
G37*
G36*
X669271D02*
X668187Y420230D01*
X666046Y418994D01*
X664297Y417246D01*
X663061Y415104D01*
X662771Y414020D01*
X669271D01*
Y420521D01*
D02*
G37*
G36*
X317481Y414171D02*
Y407670D01*
X323982D01*
X323691Y408754D01*
X322455Y410896D01*
X320707Y412644D01*
X318566Y413880D01*
X317481Y414171D01*
D02*
G37*
G36*
X312401D02*
X311317Y413880D01*
X309176Y412644D01*
X307427Y410896D01*
X306191Y408754D01*
X305901Y407670D01*
X312401D01*
Y414171D01*
D02*
G37*
G36*
X655293Y420362D02*
X637529D01*
Y402598D01*
X655293D01*
Y420362D01*
D02*
G37*
G36*
X680852Y408940D02*
X674351D01*
Y402439D01*
X675436Y402730D01*
X677577Y403966D01*
X679325Y405714D01*
X680561Y407856D01*
X680852Y408940D01*
D02*
G37*
G36*
X669271D02*
X662771D01*
X662945Y408290D01*
X611729Y357074D01*
X569238D01*
X568475Y358396D01*
X566857Y360014D01*
X564876Y361158D01*
X564061Y361376D01*
Y353060D01*
Y344744D01*
X564876Y344962D01*
X566857Y346106D01*
X568475Y347724D01*
X569238Y349046D01*
X613391D01*
X614927Y349351D01*
X616230Y350222D01*
X668622Y402613D01*
X669271Y402439D01*
Y408940D01*
D02*
G37*
G36*
X349223Y414012D02*
X331459D01*
Y396248D01*
X349223D01*
Y414012D01*
D02*
G37*
G36*
X290711D02*
X288372D01*
X286113Y413407D01*
X284088Y412237D01*
X282434Y410584D01*
X281264Y408558D01*
X280659Y406299D01*
Y403961D01*
X281213Y401894D01*
X272302Y392983D01*
X192513D01*
X191135Y392709D01*
X189967Y391928D01*
X176498Y378460D01*
X175805Y378860D01*
X172923Y379632D01*
X169939D01*
X167057Y378860D01*
X164473Y377368D01*
X162363Y375258D01*
X160872Y372674D01*
X160664Y371901D01*
X100311D01*
X98933Y371627D01*
X97765Y370846D01*
X92239Y365321D01*
X90070Y365902D01*
X87692D01*
X85395Y365286D01*
X83335Y364097D01*
X81654Y362416D01*
X80465Y360356D01*
X79849Y358059D01*
Y355681D01*
X80465Y353384D01*
X81654Y351324D01*
X83335Y349643D01*
X85395Y348453D01*
X87692Y347838D01*
X90070D01*
X92367Y348453D01*
X94427Y349643D01*
X96109Y351324D01*
X97298Y353384D01*
X97913Y355681D01*
Y358059D01*
X97332Y360228D01*
X101803Y364699D01*
X160664D01*
X160872Y363926D01*
X162363Y361342D01*
X164473Y359232D01*
X167057Y357740D01*
X169939Y356968D01*
X172923D01*
X175805Y357740D01*
X178389Y359232D01*
X180499Y361342D01*
X181991Y363926D01*
X182763Y366808D01*
Y369792D01*
X181991Y372674D01*
X181591Y373367D01*
X194005Y385781D01*
X273793D01*
X275171Y386055D01*
X276340Y386836D01*
X286306Y396802D01*
X288372Y396248D01*
X290711D01*
X292969Y396853D01*
X294995Y398023D01*
X296649Y399676D01*
X297818Y401702D01*
X298423Y403961D01*
Y406299D01*
X297818Y408558D01*
X296649Y410584D01*
X294995Y412237D01*
X292969Y413407D01*
X290711Y414012D01*
D02*
G37*
G36*
X323982Y402590D02*
X317481D01*
Y396089D01*
X318566Y396380D01*
X320707Y397616D01*
X322455Y399364D01*
X323691Y401506D01*
X323982Y402590D01*
D02*
G37*
G36*
X312401D02*
X305901D01*
X306191Y401506D01*
X306203Y401485D01*
X276619Y371901D01*
X234071D01*
Y380140D01*
X224771D01*
Y368300D01*
Y356460D01*
X234071D01*
Y364699D01*
X278111D01*
X279489Y364973D01*
X280658Y365754D01*
X311296Y396392D01*
X311317Y396380D01*
X312401Y396089D01*
Y402590D01*
D02*
G37*
G36*
X219691Y380140D02*
X210391D01*
Y370840D01*
X219691D01*
Y380140D01*
D02*
G37*
G36*
X562598Y386642D02*
X560444D01*
X558363Y386084D01*
X556497Y385007D01*
X554974Y383484D01*
X553897Y381618D01*
X553339Y379537D01*
Y377383D01*
X553897Y375302D01*
X554974Y373436D01*
X556497Y371913D01*
X558363Y370836D01*
X560444Y370278D01*
X562598D01*
X564679Y370836D01*
X566545Y371913D01*
X568069Y373436D01*
X569146Y375302D01*
X569703Y377383D01*
Y379537D01*
X569146Y381618D01*
X568069Y383484D01*
X566545Y385007D01*
X564679Y386084D01*
X562598Y386642D01*
D02*
G37*
G36*
X485998D02*
X483844D01*
X481763Y386084D01*
X479897Y385007D01*
X478374Y383484D01*
X477297Y381618D01*
X476739Y379537D01*
Y377383D01*
X477297Y375302D01*
X478374Y373436D01*
X479897Y371913D01*
X481763Y370836D01*
X483844Y370278D01*
X485998D01*
X488079Y370836D01*
X489945Y371913D01*
X491468Y373436D01*
X492546Y375302D01*
X493103Y377383D01*
Y379537D01*
X492546Y381618D01*
X491468Y383484D01*
X489945Y385007D01*
X488079Y386084D01*
X485998Y386642D01*
D02*
G37*
G36*
X63421Y366410D02*
X56421D01*
Y359410D01*
X63421D01*
Y366410D01*
D02*
G37*
G36*
X51341D02*
X44341D01*
Y359410D01*
X51341D01*
Y366410D01*
D02*
G37*
G36*
X558981Y361376D02*
X558167Y361158D01*
X556186Y360014D01*
X554568Y358396D01*
X553424Y356414D01*
X553205Y355600D01*
X558981D01*
Y361376D01*
D02*
G37*
G36*
X63421Y354330D02*
X56421D01*
Y347330D01*
X63421D01*
Y354330D01*
D02*
G37*
G36*
X51341D02*
X44341D01*
Y347330D01*
X51341D01*
Y354330D01*
D02*
G37*
G36*
X485998Y361242D02*
X483844D01*
X481763Y360684D01*
X479897Y359607D01*
X478374Y358084D01*
X477297Y356218D01*
X476739Y354137D01*
Y351983D01*
X477297Y349902D01*
X478374Y348036D01*
X479897Y346513D01*
X481763Y345436D01*
X483844Y344878D01*
X485998D01*
X488079Y345436D01*
X489945Y346513D01*
X491468Y348036D01*
X492546Y349902D01*
X493103Y351983D01*
Y354137D01*
X492546Y356218D01*
X491468Y358084D01*
X489945Y359607D01*
X488079Y360684D01*
X485998Y361242D01*
D02*
G37*
G36*
Y335842D02*
X483844D01*
X481763Y335284D01*
X479897Y334207D01*
X478374Y332684D01*
X477297Y330818D01*
X476739Y328737D01*
Y326583D01*
X477297Y324502D01*
X478374Y322636D01*
X479897Y321113D01*
X481763Y320036D01*
X483844Y319478D01*
X485998D01*
X488079Y320036D01*
X489945Y321113D01*
X491468Y322636D01*
X492546Y324502D01*
X493103Y326583D01*
Y328737D01*
X492546Y330818D01*
X491468Y332684D01*
X489945Y334207D01*
X488079Y335284D01*
X485998Y335842D01*
D02*
G37*
G36*
Y310442D02*
X483844D01*
X481763Y309884D01*
X479897Y308807D01*
X478374Y307284D01*
X477297Y305418D01*
X476739Y303337D01*
Y301183D01*
X477297Y299102D01*
X478374Y297236D01*
X479897Y295713D01*
X481763Y294636D01*
X483844Y294078D01*
X485998D01*
X488079Y294636D01*
X489945Y295713D01*
X491468Y297236D01*
X492546Y299102D01*
X493103Y301183D01*
Y303337D01*
X492546Y305418D01*
X491468Y307284D01*
X489945Y308807D01*
X488079Y309884D01*
X485998Y310442D01*
D02*
G37*
G36*
X318411Y299100D02*
X311411D01*
Y292100D01*
X318411D01*
Y299100D01*
D02*
G37*
G36*
X306331D02*
X299331D01*
Y292100D01*
X306331D01*
Y299100D01*
D02*
G37*
G36*
X198323Y379632D02*
X195339D01*
X192457Y378860D01*
X189873Y377368D01*
X187763Y375258D01*
X186271Y372674D01*
X185499Y369792D01*
Y366808D01*
X186271Y363926D01*
X187763Y361342D01*
X189873Y359232D01*
X192457Y357740D01*
X195339Y356968D01*
X198323D01*
X201205Y357740D01*
X201898Y358140D01*
X227559Y332480D01*
X228727Y331699D01*
X230105Y331425D01*
X296914D01*
X335420Y292918D01*
X334839Y290749D01*
Y288371D01*
X335455Y286074D01*
X336644Y284014D01*
X338326Y282333D01*
X340385Y281143D01*
X342682Y280528D01*
X345060D01*
X347357Y281143D01*
X349417Y282333D01*
X351099Y284014D01*
X352288Y286074D01*
X352903Y288371D01*
Y290749D01*
X352288Y293046D01*
X351099Y295106D01*
X349417Y296787D01*
X347357Y297976D01*
X345060Y298592D01*
X342682D01*
X340513Y298011D01*
X300952Y337572D01*
X299783Y338353D01*
X298405Y338627D01*
X231597D01*
X214937Y355287D01*
X215423Y356460D01*
X219691D01*
Y365760D01*
X210391D01*
Y361492D01*
X209218Y361006D01*
X206991Y363233D01*
X207391Y363926D01*
X208163Y366808D01*
Y369792D01*
X207391Y372674D01*
X205899Y375258D01*
X203789Y377368D01*
X201205Y378860D01*
X198323Y379632D01*
D02*
G37*
G36*
X306331Y287020D02*
X299331D01*
Y280020D01*
X306331D01*
Y287020D01*
D02*
G37*
G36*
X48519Y273356D02*
X47376Y273050D01*
X45201Y271794D01*
X43425Y270018D01*
X42169Y267842D01*
X41863Y266700D01*
X48519D01*
Y273356D01*
D02*
G37*
G36*
X610672Y276722D02*
X608491D01*
X606385Y276157D01*
X604496Y275067D01*
X602954Y273525D01*
X601864Y271637D01*
X601299Y269530D01*
Y267350D01*
X601864Y265243D01*
X602954Y263355D01*
X604496Y261813D01*
X606385Y260722D01*
X608491Y260158D01*
X610672D01*
X612778Y260722D01*
X614666Y261813D01*
X616208Y263355D01*
X617299Y265243D01*
X617863Y267350D01*
Y269530D01*
X617299Y271637D01*
X616208Y273525D01*
X614666Y275067D01*
X612778Y276157D01*
X610672Y276722D01*
D02*
G37*
G36*
X60255Y261620D02*
X53599D01*
Y254964D01*
X54741Y255270D01*
X56916Y256526D01*
X58692Y258302D01*
X59948Y260478D01*
X60255Y261620D01*
D02*
G37*
G36*
X48519D02*
X41863D01*
X42169Y260478D01*
X43425Y258302D01*
X45201Y256526D01*
X47376Y255270D01*
X48519Y254964D01*
Y261620D01*
D02*
G37*
G36*
X166925Y282747D02*
X66045D01*
X64666Y282473D01*
X63498Y281692D01*
X54814Y273008D01*
X54741Y273050D01*
X53599Y273356D01*
Y266700D01*
X60255D01*
X59948Y267842D01*
X59906Y267915D01*
X67536Y275545D01*
X165434D01*
X185860Y255118D01*
X185239Y254042D01*
X184550Y251472D01*
X183236D01*
X182600Y253846D01*
X181029Y256567D01*
X178807Y258788D01*
X176087Y260359D01*
X173052Y261172D01*
X169910D01*
X166875Y260359D01*
X164155Y258788D01*
X161933Y256567D01*
X160362Y253846D01*
X160093Y252841D01*
X102470D01*
X95091Y260221D01*
Y273192D01*
X77027D01*
Y255128D01*
X89998D01*
X98432Y246694D01*
X99601Y245913D01*
X100979Y245639D01*
X160093D01*
X160362Y244634D01*
X161933Y241914D01*
X164155Y239692D01*
X166875Y238121D01*
X169910Y237308D01*
X173052D01*
X176087Y238121D01*
X178807Y239692D01*
X181029Y241914D01*
X182600Y244634D01*
X183236Y247008D01*
X184550D01*
X185239Y244438D01*
X186877Y241602D01*
X189193Y239286D01*
X192029Y237648D01*
X194291Y237042D01*
Y249240D01*
Y261438D01*
X192029Y260832D01*
X190953Y260211D01*
X169472Y281692D01*
X168303Y282473D01*
X166925Y282747D01*
D02*
G37*
G36*
X39751Y181892D02*
Y176530D01*
X45113D01*
X44936Y177190D01*
X43845Y179080D01*
X42301Y180624D01*
X40411Y181715D01*
X39751Y181892D01*
D02*
G37*
G36*
X34671D02*
X34011Y181715D01*
X32121Y180624D01*
X30577Y179080D01*
X29486Y177190D01*
X29309Y176530D01*
X34671D01*
Y181892D01*
D02*
G37*
G36*
X345141Y180646D02*
Y173990D01*
X351797D01*
X351491Y175132D01*
X350235Y177308D01*
X348459Y179084D01*
X346284Y180340D01*
X345141Y180646D01*
D02*
G37*
G36*
X340061D02*
X338919Y180340D01*
X336744Y179084D01*
X334967Y177308D01*
X333711Y175132D01*
X333405Y173990D01*
X340061D01*
Y180646D01*
D02*
G37*
G36*
X669091Y176722D02*
X666911D01*
X664805Y176158D01*
X662916Y175067D01*
X661374Y173525D01*
X660755Y172454D01*
X617863D01*
Y176722D01*
X601299D01*
Y160158D01*
X617863D01*
Y164426D01*
X660755D01*
X661374Y163355D01*
X662916Y161813D01*
X664805Y160723D01*
X666911Y160158D01*
X669091D01*
X671198Y160723D01*
X673086Y161813D01*
X674629Y163355D01*
X675719Y165243D01*
X676283Y167350D01*
Y169530D01*
X675719Y171637D01*
X674629Y173525D01*
X673086Y175067D01*
X671198Y176158D01*
X669091Y176722D01*
D02*
G37*
G36*
X88236Y181772D02*
X86187D01*
X84208Y181242D01*
X82433Y180217D01*
X80984Y178768D01*
X79960Y176994D01*
X79429Y175014D01*
Y172966D01*
X79960Y170986D01*
X80984Y169212D01*
X82433Y167763D01*
X84208Y166738D01*
X86187Y166208D01*
X88236D01*
X90215Y166738D01*
X91990Y167763D01*
X93439Y169212D01*
X94463Y170986D01*
X94993Y172966D01*
Y175014D01*
X94463Y176994D01*
X93439Y178768D01*
X91990Y180217D01*
X90215Y181242D01*
X88236Y181772D01*
D02*
G37*
G36*
X45113Y171450D02*
X39751D01*
Y166088D01*
X40411Y166265D01*
X42301Y167356D01*
X43845Y168900D01*
X44936Y170790D01*
X45113Y171450D01*
D02*
G37*
G36*
X34671D02*
X29309D01*
X29486Y170790D01*
X30577Y168900D01*
X32121Y167356D01*
X34011Y166265D01*
X34671Y166088D01*
Y171450D01*
D02*
G37*
G36*
X194441Y184772D02*
X191602D01*
X188860Y184037D01*
X186401Y182618D01*
X184394Y180610D01*
X182974Y178152D01*
X182239Y175410D01*
Y172570D01*
X182974Y169828D01*
X184394Y167370D01*
X186401Y165362D01*
X188860Y163943D01*
X191602Y163208D01*
X194441D01*
X197183Y163943D01*
X199641Y165362D01*
X201649Y167370D01*
X203068Y169828D01*
X203803Y172570D01*
Y175410D01*
X203068Y178152D01*
X201649Y180610D01*
X199641Y182618D01*
X197183Y184037D01*
X194441Y184772D01*
D02*
G37*
G36*
X199371Y261438D02*
Y249240D01*
Y237042D01*
X201633Y237648D01*
X204470Y239286D01*
X206786Y241602D01*
X208423Y244438D01*
X208979Y246513D01*
X210249Y246346D01*
Y237308D01*
X229021D01*
X297425Y168904D01*
X298569Y168139D01*
Y162418D01*
X316633D01*
Y180482D01*
X298569D01*
Y179604D01*
X297396Y179118D01*
X234113Y242401D01*
Y261172D01*
X210249D01*
Y252134D01*
X208979Y251967D01*
X208423Y254042D01*
X206786Y256878D01*
X204470Y259195D01*
X201633Y260832D01*
X199371Y261438D01*
D02*
G37*
G36*
X351797Y168910D02*
X345141D01*
Y162254D01*
X346284Y162560D01*
X348459Y163816D01*
X350235Y165592D01*
X351491Y167768D01*
X351797Y168910D01*
D02*
G37*
G36*
X340061D02*
X333405D01*
X333711Y167768D01*
X334967Y165592D01*
X336744Y163816D01*
X338919Y162560D01*
X340061Y162254D01*
Y168910D01*
D02*
G37*
G36*
X232541Y146672D02*
X229702D01*
X226959Y145937D01*
X224501Y144518D01*
X222493Y142510D01*
X221074Y140052D01*
X220339Y137310D01*
Y134511D01*
X220136Y134321D01*
X219247Y133807D01*
X214618Y138436D01*
X213449Y139217D01*
X212071Y139491D01*
X165119D01*
X164968Y140052D01*
X163549Y142510D01*
X161542Y144518D01*
X159083Y145937D01*
X156341Y146672D01*
X153502D01*
X150759Y145937D01*
X148301Y144518D01*
X146293Y142510D01*
X144874Y140052D01*
X144139Y137310D01*
Y134471D01*
X144874Y131728D01*
X146293Y129270D01*
X148301Y127262D01*
X150759Y125843D01*
X153502Y125108D01*
X156341D01*
X159083Y125843D01*
X161542Y127262D01*
X163549Y129270D01*
X164968Y131728D01*
X165119Y132289D01*
X210579D01*
X287563Y55306D01*
X287009Y53239D01*
Y50901D01*
X287614Y48642D01*
X288784Y46616D01*
X290438Y44963D01*
X292463Y43793D01*
X294722Y43188D01*
X297061D01*
X299319Y43793D01*
X301345Y44963D01*
X302999Y46616D01*
X304168Y48642D01*
X304773Y50901D01*
Y53239D01*
X304168Y55498D01*
X302999Y57524D01*
X301345Y59177D01*
X299319Y60347D01*
X297061Y60952D01*
X294722D01*
X292656Y60398D01*
X229038Y124016D01*
X229552Y124905D01*
X229742Y125108D01*
X232541D01*
X235283Y125843D01*
X237742Y127262D01*
X239749Y129270D01*
X241168Y131728D01*
X241319Y132289D01*
X261380D01*
X337809Y55859D01*
Y43188D01*
X355573D01*
Y60952D01*
X342902D01*
X265418Y138436D01*
X264249Y139217D01*
X262871Y139491D01*
X241319D01*
X241168Y140052D01*
X239749Y142510D01*
X237742Y144518D01*
X235283Y145937D01*
X232541Y146672D01*
D02*
G37*
G36*
X39751Y103152D02*
Y97790D01*
X45113D01*
X44936Y98450D01*
X43845Y100340D01*
X42301Y101884D01*
X40411Y102975D01*
X39751Y103152D01*
D02*
G37*
G36*
X34671D02*
X34011Y102975D01*
X32121Y101884D01*
X30577Y100340D01*
X29486Y98450D01*
X29309Y97790D01*
X34671D01*
Y103152D01*
D02*
G37*
G36*
X88236Y103032D02*
X86187D01*
X84208Y102502D01*
X82433Y101477D01*
X80984Y100028D01*
X79960Y98254D01*
X79429Y96274D01*
Y94226D01*
X79960Y92246D01*
X80984Y90472D01*
X82433Y89023D01*
X84208Y87998D01*
X86187Y87468D01*
X88236D01*
X90215Y87998D01*
X91990Y89023D01*
X93439Y90472D01*
X94463Y92246D01*
X94993Y94226D01*
Y96274D01*
X94463Y98254D01*
X93439Y100028D01*
X91990Y101477D01*
X90215Y102502D01*
X88236Y103032D01*
D02*
G37*
G36*
X45113Y92710D02*
X39751D01*
Y87348D01*
X40411Y87525D01*
X42301Y88616D01*
X43845Y90160D01*
X44936Y92050D01*
X45113Y92710D01*
D02*
G37*
G36*
X34671D02*
X29309D01*
X29486Y92050D01*
X30577Y90160D01*
X32121Y88616D01*
X34011Y87525D01*
X34671Y87348D01*
Y92710D01*
D02*
G37*
G36*
X194441Y108572D02*
X191602D01*
X188860Y107837D01*
X186401Y106418D01*
X184394Y104410D01*
X182974Y101952D01*
X182239Y99209D01*
Y96370D01*
X182974Y93628D01*
X184394Y91170D01*
X186401Y89162D01*
X188860Y87743D01*
X191602Y87008D01*
X194441D01*
X197183Y87743D01*
X199641Y89162D01*
X201649Y91170D01*
X203068Y93628D01*
X203803Y96370D01*
Y99209D01*
X203068Y101952D01*
X201649Y104410D01*
X199641Y106418D01*
X197183Y107837D01*
X194441Y108572D01*
D02*
G37*
G36*
X323831Y61111D02*
Y54610D01*
X330332D01*
X330041Y55694D01*
X328805Y57836D01*
X327057Y59584D01*
X324916Y60820D01*
X323831Y61111D01*
D02*
G37*
G36*
X318751D02*
X317667Y60820D01*
X315526Y59584D01*
X313777Y57836D01*
X312541Y55694D01*
X312251Y54610D01*
X318751D01*
Y61111D01*
D02*
G37*
G36*
X330332Y49530D02*
X323831D01*
Y43029D01*
X324916Y43320D01*
X327057Y44556D01*
X328805Y46304D01*
X330041Y48446D01*
X330332Y49530D01*
D02*
G37*
G36*
X318751D02*
X312251D01*
X312541Y48446D01*
X313777Y46304D01*
X315526Y44556D01*
X317667Y43320D01*
X318751Y43029D01*
Y49530D01*
D02*
G37*
G36*
X589280Y39370D02*
X582779D01*
X583070Y38286D01*
X584306Y36144D01*
X586054Y34396D01*
X588196Y33160D01*
X589280Y32869D01*
Y39370D01*
D02*
G37*
%LPD*%
D18*
X609581Y268440D02*
D03*
X668001Y168440D02*
D03*
D19*
X609581D02*
D03*
X668001Y268440D02*
D03*
D29*
X465074Y429260D02*
X551434Y342900D01*
X551415Y136906D02*
Y342954D01*
X481765Y273304D02*
X551415Y342954D01*
Y136906D02*
X591820Y96501D01*
X551434Y80638D02*
Y342900D01*
Y80638D02*
X591820Y40252D01*
X31750Y429260D02*
X465074D01*
X630174Y33020D02*
X684530D01*
X621538Y24384D02*
X630174Y33020D01*
X609346Y24384D02*
X621538D01*
X591820Y41910D02*
X609346Y24384D01*
X591820Y41910D02*
Y96501D01*
Y40252D02*
Y41910D01*
X551415Y342954D02*
X561521Y353060D01*
X308871Y289560D02*
X325127Y273304D01*
X481765D01*
X561521Y353060D02*
X613391D01*
X671811Y411480D01*
X609581Y168440D02*
X668001D01*
X634181Y302260D02*
X668001Y268440D01*
X561521Y302260D02*
X634181D01*
D30*
X273793Y389382D02*
X289541Y405130D01*
X192513Y389382D02*
X273793D01*
X171431Y368300D02*
X192513Y389382D01*
X100311Y368300D02*
X171431D01*
X88881Y356870D02*
X100311Y368300D01*
X86059Y264160D02*
X100979Y249240D01*
X171481D01*
X231121Y135890D02*
X262871D01*
X346691Y52070D01*
X154921Y135890D02*
X212071D01*
X295891Y52070D01*
X51059Y264160D02*
X66045Y279146D01*
X166925D01*
X196831Y249240D01*
X222231Y368300D02*
X278111D01*
X314941Y405130D01*
X222181Y249240D02*
X299972Y171450D01*
X307601D01*
X196831Y368300D02*
X230105Y335026D01*
X298405D01*
X343871Y289560D01*
D31*
X684530Y33020D02*
D03*
X31750Y429260D02*
D03*
D32*
X561521Y302260D02*
D03*
D33*
Y327660D02*
D03*
Y353060D02*
D03*
Y378460D02*
D03*
X484921D02*
D03*
Y353060D02*
D03*
Y327660D02*
D03*
Y302260D02*
D03*
D34*
X646411Y411480D02*
D03*
X617220Y41910D02*
D03*
D35*
X671811Y411480D02*
D03*
X591820Y41910D02*
D03*
X295891Y52070D02*
D03*
X321291D02*
D03*
X289541Y405130D02*
D03*
X314941D02*
D03*
D36*
X342601Y171450D02*
D03*
X88881Y356870D02*
D03*
X343871Y289560D02*
D03*
X51059Y264160D02*
D03*
D37*
X307601Y171450D02*
D03*
X53881Y356870D02*
D03*
X308871Y289560D02*
D03*
X86059Y264160D02*
D03*
D38*
X193021Y173990D02*
D03*
Y97790D02*
D03*
X154921Y135890D02*
D03*
X231121D02*
D03*
D39*
X346691Y52070D02*
D03*
X340341Y405130D02*
D03*
D40*
X222181Y249240D02*
D03*
D41*
X196831D02*
D03*
X171481D02*
D03*
D42*
X37211Y95250D02*
D03*
X87211D02*
D03*
Y173990D02*
D03*
X37211D02*
D03*
D43*
X222231Y368300D02*
D03*
D44*
X196831D02*
D03*
X171431D02*
D03*
M02*
