G04*
G04 #@! TF.GenerationSoftware,Altium Limited,Altium Designer,23.9.2 (47)*
G04*
G04 Layer_Color=32768*
%FSLAX44Y44*%
%MOMM*%
G71*
G04*
G04 #@! TF.SameCoordinates,EEA8B457-634A-40EF-9803-A2E49DE358F5*
G04*
G04*
G04 #@! TF.FilePolarity,Positive*
G04*
G01*
G75*
%ADD45C,0.1000*%
%ADD46C,0.0500*%
D45*
X320102Y171450D02*
X330101D01*
X325101Y166450D02*
Y176450D01*
X66381Y356870D02*
X76381D01*
X71381Y351870D02*
Y361870D01*
X321371Y289560D02*
X331371D01*
X326371Y284560D02*
Y294560D01*
X68559Y259160D02*
Y269160D01*
X63559Y264160D02*
X73559D01*
D46*
X366101Y171450D02*
G03*
X366101Y171450I-41000J0D01*
G01*
X112381Y356870D02*
G03*
X112381Y356870I-41000J0D01*
G01*
X367371Y289560D02*
G03*
X367371Y289560I-41000J0D01*
G01*
X109559Y264160D02*
G03*
X109559Y264160I-41000J0D01*
G01*
X476271Y289910D02*
X570171D01*
X476271Y390810D02*
X570171D01*
X476271Y289910D02*
Y390810D01*
X570171Y289910D02*
Y390810D01*
X631211Y396280D02*
Y426680D01*
X687011D01*
Y396280D02*
Y426680D01*
X631211Y396280D02*
X687011D01*
X632420Y26710D02*
Y57110D01*
X576620Y26710D02*
X632420D01*
X576620D02*
Y57110D01*
X632420D01*
X361891Y36870D02*
Y67270D01*
X280691D02*
X361891D01*
X280691Y36870D02*
Y67270D01*
Y36870D02*
X361891D01*
X355541Y389930D02*
Y420330D01*
X274341D02*
X355541D01*
X274341Y389930D02*
Y420330D01*
Y389930D02*
X355541D01*
X250131Y219590D02*
Y268090D01*
X143531D02*
X250131D01*
X143531Y219590D02*
Y268090D01*
Y219590D02*
X250131D01*
X28961Y115250D02*
X95461D01*
X28961Y75250D02*
Y115250D01*
X95461Y75250D02*
Y115250D01*
X28961Y75250D02*
X95461D01*
X28961Y153990D02*
X95461D01*
Y193990D01*
X28961Y153990D02*
Y193990D01*
X95461D01*
X252031Y337200D02*
Y389200D01*
X141631D02*
X252031D01*
X141631Y337200D02*
Y389200D01*
Y337200D02*
X252031D01*
M02*
