G04*
G04 #@! TF.GenerationSoftware,Altium Limited,Altium Designer,23.9.2 (47)*
G04*
G04 Layer_Physical_Order=1*
G04 Layer_Color=255*
%FSLAX44Y44*%
%MOMM*%
G71*
G04*
G04 #@! TF.SameCoordinates,EEA8B457-634A-40EF-9803-A2E49DE358F5*
G04*
G04*
G04 #@! TF.FilePolarity,Positive*
G04*
G01*
G75*
%ADD12C,0.2540*%
%ADD18C,1.2500*%
%ADD19R,1.2500X1.2500*%
%ADD29C,0.3810*%
%ADD30C,0.3000*%
%ADD31C,4.5000*%
%ADD32R,1.2300X1.2300*%
%ADD33C,1.2300*%
%ADD34R,1.3700X1.3700*%
%ADD35C,1.3700*%
%ADD36C,1.4000*%
%ADD37R,1.4000X1.4000*%
%ADD38C,1.7500*%
%ADD39R,1.3700X1.3700*%
%ADD40R,1.9800X1.9800*%
%ADD41C,1.9800*%
%ADD42C,1.1500*%
%ADD43R,1.8600X1.8600*%
%ADD44C,1.8600*%
G36*
X706120Y45121D02*
X705840Y44885D01*
X704153Y45122D01*
X702426Y47707D01*
X699217Y50916D01*
X695443Y53438D01*
X691251Y55175D01*
X687070Y56006D01*
Y33020D01*
X684530D01*
Y30480D01*
X661544D01*
X662375Y26300D01*
X664112Y22106D01*
X666634Y18333D01*
X669843Y15124D01*
X671651Y13915D01*
X671283Y12700D01*
X16510D01*
Y28459D01*
X17683Y28945D01*
X20257Y26372D01*
X21559Y25501D01*
X23095Y25196D01*
X474018D01*
X475555Y25501D01*
X476857Y26372D01*
X479088Y28603D01*
X479959Y29906D01*
X480264Y31442D01*
Y38877D01*
X481330Y39370D01*
X481534Y39370D01*
X568965D01*
Y64525D01*
X481534D01*
X481330Y64525D01*
X480264Y65018D01*
Y223127D01*
X524808Y267672D01*
X525679Y268974D01*
X525984Y270510D01*
Y337246D01*
X559318Y370580D01*
X560444Y370278D01*
X562598D01*
X564679Y370836D01*
X566545Y371913D01*
X568069Y373436D01*
X569146Y375302D01*
X569703Y377383D01*
Y379537D01*
X569146Y381618D01*
X568069Y383484D01*
X566545Y385007D01*
X564679Y386084D01*
X562598Y386642D01*
X560444D01*
X558363Y386084D01*
X556497Y385007D01*
X554974Y383484D01*
X553897Y381618D01*
X553339Y379537D01*
Y377383D01*
X553641Y376257D01*
X519132Y341747D01*
X518261Y340445D01*
X517956Y338909D01*
Y272173D01*
X473412Y227628D01*
X472541Y226326D01*
X472236Y224790D01*
Y33224D01*
X206716D01*
Y61904D01*
X24111D01*
Y35530D01*
X22938Y35044D01*
X18727Y39255D01*
Y58535D01*
X24758Y64566D01*
X261093D01*
X262629Y64871D01*
X263932Y65742D01*
X292380Y94190D01*
X293250Y95492D01*
X293555Y97028D01*
Y397192D01*
X294995Y398023D01*
X296649Y399676D01*
X297818Y401702D01*
X298423Y403961D01*
Y406299D01*
X297818Y408558D01*
X296649Y410584D01*
X296368Y410864D01*
X296854Y412038D01*
X306954D01*
X307066Y411767D01*
X307354Y410768D01*
X306191Y408754D01*
X305901Y407670D01*
X314941D01*
X323982D01*
X323691Y408754D01*
X322529Y410768D01*
X322816Y411767D01*
X322928Y412038D01*
X327757D01*
X331459Y408335D01*
Y396248D01*
X349223D01*
Y400734D01*
X411257D01*
Y304492D01*
X411257Y304491D01*
X411257Y304491D01*
X411409Y303727D01*
X411563Y302955D01*
X411563Y302955D01*
X411563Y302955D01*
X412000Y302301D01*
X412433Y301653D01*
X412433Y301653D01*
X412433Y301653D01*
X414665Y299421D01*
X415313Y298988D01*
X415967Y298551D01*
X415967Y298551D01*
X415968Y298551D01*
X416740Y298398D01*
X417503Y298246D01*
X477791D01*
X478374Y297236D01*
X479897Y295713D01*
X481763Y294636D01*
X483844Y294078D01*
X485998D01*
X488079Y294636D01*
X489945Y295713D01*
X491468Y297236D01*
X492546Y299102D01*
X493103Y301183D01*
Y303337D01*
X492546Y305418D01*
X491468Y307284D01*
X489945Y308807D01*
X488079Y309884D01*
X485998Y310442D01*
X483844D01*
X481763Y309884D01*
X479897Y308807D01*
X478374Y307284D01*
X477791Y306274D01*
X419285D01*
Y402516D01*
X418980Y404053D01*
X418110Y405355D01*
X415878Y407586D01*
X414576Y408457D01*
X413040Y408762D01*
X349223D01*
Y414012D01*
X337136D01*
X332258Y418890D01*
X330955Y419761D01*
X329419Y420066D01*
X185147D01*
X183611Y419761D01*
X182309Y418890D01*
X83220Y319802D01*
X82350Y318500D01*
X82045Y316964D01*
Y273192D01*
X77496D01*
Y340392D01*
X85523Y348419D01*
X87692Y347838D01*
X90070D01*
X92367Y348453D01*
X94427Y349643D01*
X96109Y351324D01*
X97298Y353384D01*
X97913Y355681D01*
Y358059D01*
X97298Y360356D01*
X96109Y362416D01*
X94427Y364097D01*
X92367Y365286D01*
X90070Y365902D01*
X87692D01*
X85395Y365286D01*
X83335Y364097D01*
X81654Y362416D01*
X80465Y360356D01*
X79849Y358059D01*
Y355681D01*
X80430Y353512D01*
X71349Y344430D01*
X70568Y343262D01*
X70294Y341884D01*
Y187306D01*
X70568Y185928D01*
X71349Y184760D01*
X79781Y176327D01*
X79429Y175014D01*
Y172966D01*
X79960Y170986D01*
X80984Y169212D01*
X82433Y167763D01*
X84208Y166738D01*
X86187Y166208D01*
X88236D01*
X90215Y166738D01*
X91990Y167763D01*
X93439Y169212D01*
X94463Y170986D01*
X94993Y172966D01*
Y175014D01*
X94463Y176994D01*
X93439Y178768D01*
X91990Y180217D01*
X90215Y181242D01*
X88236Y181772D01*
X86187D01*
X84874Y181420D01*
X77496Y188798D01*
Y255128D01*
X89414D01*
X103917Y240625D01*
Y117633D01*
X89088Y102804D01*
X88236Y103032D01*
X86187D01*
X84208Y102502D01*
X82433Y101477D01*
X80984Y100028D01*
X79960Y98254D01*
X79429Y96274D01*
Y94226D01*
X79960Y92246D01*
X80984Y90472D01*
X82433Y89023D01*
X84208Y87998D01*
X86187Y87468D01*
X88236D01*
X90215Y87998D01*
X91990Y89023D01*
X93439Y90472D01*
X94463Y92246D01*
X94993Y94226D01*
Y96274D01*
X94765Y97127D01*
X110770Y113131D01*
X111640Y114434D01*
X111945Y115970D01*
Y242288D01*
X111640Y243824D01*
X110770Y245126D01*
X95091Y260805D01*
Y273192D01*
X90073D01*
Y315301D01*
X153098Y378326D01*
X154368Y377800D01*
Y288102D01*
X154642Y286724D01*
X155423Y285556D01*
X185860Y255118D01*
X185239Y254042D01*
X184550Y251472D01*
X183236D01*
X182600Y253846D01*
X181029Y256567D01*
X178807Y258788D01*
X176087Y260359D01*
X173052Y261172D01*
X169910D01*
X166875Y260359D01*
X164155Y258788D01*
X161933Y256567D01*
X160362Y253846D01*
X159549Y250811D01*
Y247669D01*
X160362Y244634D01*
X161933Y241914D01*
X164155Y239692D01*
X166875Y238121D01*
X169910Y237308D01*
X173052D01*
X176087Y238121D01*
X178807Y239692D01*
X181029Y241914D01*
X182600Y244634D01*
X183236Y247008D01*
X184550D01*
X185239Y244438D01*
X186877Y241602D01*
X189193Y239286D01*
X192029Y237648D01*
X194291Y237042D01*
Y249240D01*
Y261438D01*
X192029Y260832D01*
X190953Y260211D01*
X161570Y289594D01*
Y360339D01*
X162840Y360865D01*
X164473Y359232D01*
X167057Y357740D01*
X169939Y356968D01*
X172923D01*
X175805Y357740D01*
X178389Y359232D01*
X180499Y361342D01*
X181991Y363926D01*
X182763Y366808D01*
Y369792D01*
X181991Y372674D01*
X180499Y375258D01*
X178866Y376891D01*
X179392Y378161D01*
X188870D01*
X189396Y376891D01*
X187763Y375258D01*
X186271Y372674D01*
X185499Y369792D01*
Y366808D01*
X186271Y363926D01*
X187763Y361342D01*
X189873Y359232D01*
X192457Y357740D01*
X195339Y356968D01*
X198323D01*
X201205Y357740D01*
X201898Y358140D01*
X232600Y327438D01*
Y261172D01*
X210249D01*
Y252134D01*
X208979Y251967D01*
X208423Y254042D01*
X206786Y256878D01*
X204470Y259195D01*
X201633Y260832D01*
X199371Y261438D01*
Y249240D01*
Y237042D01*
X201633Y237648D01*
X204470Y239286D01*
X206786Y241602D01*
X208423Y244438D01*
X208979Y246513D01*
X210249Y246346D01*
Y242401D01*
X177521Y209672D01*
X176740Y208504D01*
X176466Y207126D01*
Y110744D01*
X176740Y109366D01*
X177521Y108198D01*
X183264Y102454D01*
X182974Y101952D01*
X182239Y99209D01*
Y96370D01*
X182974Y93628D01*
X184394Y91170D01*
X186401Y89162D01*
X188860Y87743D01*
X191602Y87008D01*
X194441D01*
X197183Y87743D01*
X199641Y89162D01*
X201649Y91170D01*
X203068Y93628D01*
X203803Y96370D01*
Y99209D01*
X203068Y101952D01*
X201649Y104410D01*
X199641Y106418D01*
X197183Y107837D01*
X194441Y108572D01*
X191602D01*
X188860Y107837D01*
X188357Y107547D01*
X183668Y112236D01*
Y166299D01*
X184938Y166825D01*
X186401Y165362D01*
X188860Y163943D01*
X191602Y163208D01*
X194441D01*
X197183Y163943D01*
X199641Y165362D01*
X201649Y167370D01*
X203068Y169828D01*
X203803Y172570D01*
Y175410D01*
X203068Y178152D01*
X202778Y178654D01*
X238748Y214624D01*
X239528Y215792D01*
X239802Y217170D01*
Y328930D01*
X239528Y330308D01*
X238748Y331476D01*
X214937Y355287D01*
X215423Y356460D01*
X219691D01*
Y368300D01*
Y380140D01*
X215484D01*
X211316Y384308D01*
X210147Y385089D01*
X208769Y385363D01*
X161931D01*
X161405Y386633D01*
X186810Y412038D01*
X282229D01*
X282715Y410864D01*
X282434Y410584D01*
X281264Y408558D01*
X280659Y406299D01*
Y403961D01*
X281264Y401702D01*
X282434Y399676D01*
X284088Y398023D01*
X285527Y397192D01*
Y98691D01*
X259431Y72594D01*
X23095D01*
X21559Y72289D01*
X20257Y71418D01*
X17683Y68845D01*
X16510Y69331D01*
Y410206D01*
X17780Y410885D01*
X20837Y408842D01*
X25029Y407105D01*
X29210Y406274D01*
Y429260D01*
X31750D01*
Y431800D01*
X54736D01*
X53905Y435980D01*
X52168Y440173D01*
X50125Y443230D01*
X50804Y444500D01*
X706120D01*
Y45121D01*
D02*
G37*
%LPC*%
G36*
X674351Y420521D02*
Y414020D01*
X680852D01*
X680561Y415104D01*
X679325Y417246D01*
X677577Y418994D01*
X675436Y420230D01*
X674351Y420521D01*
D02*
G37*
G36*
X669271D02*
X668187Y420230D01*
X666046Y418994D01*
X664297Y417246D01*
X663061Y415104D01*
X662771Y414020D01*
X669271D01*
Y420521D01*
D02*
G37*
G36*
X54736Y426720D02*
X34290D01*
Y406274D01*
X38470Y407105D01*
X42663Y408842D01*
X46437Y411364D01*
X49646Y414573D01*
X52168Y418346D01*
X53905Y422539D01*
X54736Y426720D01*
D02*
G37*
G36*
X680852Y408940D02*
X674351D01*
Y402439D01*
X675436Y402730D01*
X677577Y403966D01*
X679325Y405714D01*
X680561Y407856D01*
X680852Y408940D01*
D02*
G37*
G36*
X669271D02*
X662771D01*
X663061Y407856D01*
X664297Y405714D01*
X666046Y403966D01*
X668187Y402730D01*
X669271Y402439D01*
Y408940D01*
D02*
G37*
G36*
X234071Y380140D02*
X224771D01*
Y370840D01*
X234071D01*
Y380140D01*
D02*
G37*
G36*
X485998Y386642D02*
X483844D01*
X481763Y386084D01*
X479897Y385007D01*
X478374Y383484D01*
X477297Y381618D01*
X476739Y379537D01*
Y377383D01*
X477297Y375302D01*
X478374Y373436D01*
X479897Y371913D01*
X481763Y370836D01*
X483844Y370278D01*
X485998D01*
X488079Y370836D01*
X489945Y371913D01*
X491468Y373436D01*
X492546Y375302D01*
X493103Y377383D01*
Y379537D01*
X492546Y381618D01*
X491468Y383484D01*
X489945Y385007D01*
X488079Y386084D01*
X485998Y386642D01*
D02*
G37*
G36*
X63421Y366410D02*
X56421D01*
Y359410D01*
X63421D01*
Y366410D01*
D02*
G37*
G36*
X51341D02*
X44341D01*
Y359410D01*
X51341D01*
Y366410D01*
D02*
G37*
G36*
X234071Y365760D02*
X224771D01*
Y356460D01*
X234071D01*
Y365760D01*
D02*
G37*
G36*
X564061Y361376D02*
Y355600D01*
X569837D01*
X569619Y356414D01*
X568475Y358396D01*
X566857Y360014D01*
X564876Y361158D01*
X564061Y361376D01*
D02*
G37*
G36*
X558981D02*
X558167Y361158D01*
X556186Y360014D01*
X554568Y358396D01*
X553424Y356414D01*
X553205Y355600D01*
X558981D01*
Y361376D01*
D02*
G37*
G36*
X485998Y361242D02*
X483844D01*
X481763Y360684D01*
X479897Y359607D01*
X478374Y358084D01*
X477297Y356218D01*
X476739Y354137D01*
Y351983D01*
X477297Y349902D01*
X478374Y348036D01*
X479897Y346513D01*
X481763Y345436D01*
X483844Y344878D01*
X485998D01*
X488079Y345436D01*
X489945Y346513D01*
X491468Y348036D01*
X492546Y349902D01*
X493103Y351983D01*
Y354137D01*
X492546Y356218D01*
X491468Y358084D01*
X489945Y359607D01*
X488079Y360684D01*
X485998Y361242D01*
D02*
G37*
G36*
X569837Y350520D02*
X564061D01*
Y344744D01*
X564876Y344962D01*
X566857Y346106D01*
X568475Y347724D01*
X569619Y349706D01*
X569837Y350520D01*
D02*
G37*
G36*
X558981D02*
X553205D01*
X553424Y349706D01*
X554568Y347724D01*
X556186Y346106D01*
X558167Y344962D01*
X558981Y344744D01*
Y350520D01*
D02*
G37*
G36*
X485998Y335842D02*
X483844D01*
X481763Y335284D01*
X479897Y334207D01*
X478374Y332684D01*
X477297Y330818D01*
X476739Y328737D01*
Y326583D01*
X477297Y324502D01*
X478374Y322636D01*
X479897Y321113D01*
X481763Y320036D01*
X483844Y319478D01*
X485998D01*
X488079Y320036D01*
X489945Y321113D01*
X491468Y322636D01*
X492546Y324502D01*
X493103Y326583D01*
Y328737D01*
X492546Y330818D01*
X491468Y332684D01*
X489945Y334207D01*
X488079Y335284D01*
X485998Y335842D01*
D02*
G37*
G36*
X569703Y310442D02*
X553339D01*
Y294078D01*
X569703D01*
Y310442D01*
D02*
G37*
G36*
X323982Y402590D02*
X314941D01*
X305901D01*
X306191Y401506D01*
X307427Y399364D01*
X309176Y397616D01*
X310927Y396605D01*
Y299100D01*
X299331D01*
Y292100D01*
X318411D01*
Y293737D01*
X318650Y294094D01*
X318955Y295630D01*
Y396605D01*
X320707Y397616D01*
X322455Y399364D01*
X323691Y401506D01*
X323982Y402590D01*
D02*
G37*
G36*
X345060Y298592D02*
X342682D01*
X340385Y297976D01*
X338326Y296787D01*
X336644Y295106D01*
X335455Y293046D01*
X334839Y290749D01*
Y288371D01*
X335455Y286074D01*
X336644Y284014D01*
X338326Y282333D01*
X340385Y281143D01*
X342682Y280528D01*
X345060D01*
X347357Y281143D01*
X349417Y282333D01*
X351099Y284014D01*
X352288Y286074D01*
X352903Y288371D01*
Y290749D01*
X352288Y293046D01*
X351099Y295106D01*
X349417Y296787D01*
X347357Y297976D01*
X345060Y298592D01*
D02*
G37*
G36*
X63421Y354330D02*
X44341D01*
Y347330D01*
X47044D01*
Y272858D01*
X45201Y271794D01*
X43425Y270018D01*
X42169Y267842D01*
X41863Y266700D01*
X60255D01*
X59948Y267842D01*
X58692Y270018D01*
X56916Y271794D01*
X55073Y272858D01*
Y347330D01*
X63421D01*
Y354330D01*
D02*
G37*
G36*
X655293Y420362D02*
X637529D01*
Y402598D01*
X642397D01*
Y290030D01*
X642703Y288494D01*
X643573Y287192D01*
X659719Y271045D01*
Y260158D01*
X676283D01*
Y276722D01*
X665396D01*
X650425Y291693D01*
Y402598D01*
X655293D01*
Y420362D01*
D02*
G37*
G36*
X60255Y261620D02*
X41863D01*
X42169Y260478D01*
X43425Y258302D01*
X45201Y256526D01*
X47376Y255270D01*
X47457Y255248D01*
Y189329D01*
X39963Y181835D01*
X39751Y181892D01*
Y176530D01*
X45113D01*
X45056Y176742D01*
X53605Y185291D01*
X54386Y186459D01*
X54660Y187838D01*
Y255248D01*
X54741Y255270D01*
X56916Y256526D01*
X58692Y258302D01*
X59948Y260478D01*
X60255Y261620D01*
D02*
G37*
G36*
X34671Y181892D02*
X34011Y181715D01*
X32121Y180624D01*
X30577Y179080D01*
X29486Y177190D01*
X29309Y176530D01*
X34671D01*
Y181892D01*
D02*
G37*
G36*
X318411Y287020D02*
X299331D01*
Y280020D01*
X305270D01*
Y229590D01*
X305544Y228212D01*
X306325Y227044D01*
X339000Y194368D01*
Y180362D01*
X338919Y180340D01*
X336744Y179084D01*
X334967Y177308D01*
X333711Y175132D01*
X333405Y173990D01*
X342601D01*
X351797D01*
X351491Y175132D01*
X350235Y177308D01*
X348459Y179084D01*
X346284Y180340D01*
X346203Y180362D01*
Y195860D01*
X345928Y197238D01*
X345148Y198406D01*
X312472Y231082D01*
Y280020D01*
X318411D01*
Y287020D01*
D02*
G37*
G36*
X316633Y180482D02*
X298569D01*
Y162418D01*
X316633D01*
Y180482D01*
D02*
G37*
G36*
X669091Y176722D02*
X666911D01*
X664805Y176158D01*
X662916Y175067D01*
X661374Y173525D01*
X660284Y171637D01*
X659719Y169530D01*
Y167350D01*
X660284Y165243D01*
X661374Y163355D01*
X662916Y161813D01*
X664805Y160723D01*
X666911Y160158D01*
X669091D01*
X671198Y160723D01*
X673086Y161813D01*
X674629Y163355D01*
X675719Y165243D01*
X676283Y167350D01*
Y169530D01*
X675719Y171637D01*
X674629Y173525D01*
X673086Y175067D01*
X671198Y176158D01*
X669091Y176722D01*
D02*
G37*
G36*
X562598Y335842D02*
X560444D01*
X558363Y335284D01*
X556497Y334207D01*
X554974Y332684D01*
X553897Y330818D01*
X553339Y328737D01*
Y326583D01*
X553897Y324502D01*
X554974Y322636D01*
X556497Y321113D01*
X558363Y320036D01*
X560444Y319478D01*
X562598D01*
X563725Y319780D01*
X581437Y302067D01*
Y192570D01*
X581743Y191034D01*
X582613Y189732D01*
X601299Y171045D01*
Y160158D01*
X617863D01*
Y176722D01*
X606976D01*
X589465Y194233D01*
Y303730D01*
X589160Y305266D01*
X588290Y306569D01*
X569402Y325457D01*
X569703Y326583D01*
Y328737D01*
X569146Y330818D01*
X568069Y332684D01*
X566545Y334207D01*
X564679Y335284D01*
X562598Y335842D01*
D02*
G37*
G36*
X232541Y146672D02*
X229702D01*
X226959Y145937D01*
X224501Y144518D01*
X222493Y142510D01*
X221074Y140052D01*
X220339Y137310D01*
Y134471D01*
X221074Y131728D01*
X222493Y129270D01*
X224501Y127262D01*
X226959Y125843D01*
X229702Y125108D01*
X232541D01*
X235283Y125843D01*
X237742Y127262D01*
X239749Y129270D01*
X241168Y131728D01*
X241903Y134471D01*
Y137310D01*
X241168Y140052D01*
X239749Y142510D01*
X237742Y144518D01*
X235283Y145937D01*
X232541Y146672D01*
D02*
G37*
G36*
X156341D02*
X153502D01*
X150759Y145937D01*
X148301Y144518D01*
X146293Y142510D01*
X144874Y140052D01*
X144139Y137310D01*
Y134471D01*
X144874Y131728D01*
X146293Y129270D01*
X148301Y127262D01*
X150759Y125843D01*
X153502Y125108D01*
X156341D01*
X159083Y125843D01*
X161542Y127262D01*
X163549Y129270D01*
X164968Y131728D01*
X165703Y134471D01*
Y137310D01*
X164968Y140052D01*
X163549Y142510D01*
X161542Y144518D01*
X159083Y145937D01*
X156341Y146672D01*
D02*
G37*
G36*
X45113Y171450D02*
X37211D01*
X29309D01*
X29486Y170790D01*
X30577Y168900D01*
X32121Y167356D01*
X33610Y166497D01*
Y102743D01*
X32121Y101884D01*
X30577Y100340D01*
X29486Y98450D01*
X29309Y97790D01*
X45113D01*
X44936Y98450D01*
X43845Y100340D01*
X42301Y101884D01*
X40812Y102743D01*
Y166497D01*
X42301Y167356D01*
X43845Y168900D01*
X44936Y170790D01*
X45113Y171450D01*
D02*
G37*
G36*
Y92710D02*
X39751D01*
Y87348D01*
X40411Y87525D01*
X42301Y88616D01*
X43845Y90160D01*
X44936Y92050D01*
X45113Y92710D01*
D02*
G37*
G36*
X34671D02*
X29309D01*
X29486Y92050D01*
X30577Y90160D01*
X32121Y88616D01*
X34011Y87525D01*
X34671Y87348D01*
Y92710D01*
D02*
G37*
G36*
X351797Y168910D02*
X342601D01*
X333405D01*
X333711Y167768D01*
X334967Y165592D01*
X336744Y163816D01*
X338919Y162560D01*
X339000Y162538D01*
Y124402D01*
X318745Y104146D01*
X317964Y102978D01*
X317690Y101600D01*
Y60826D01*
X317667Y60820D01*
X315526Y59584D01*
X313777Y57836D01*
X312541Y55694D01*
X312251Y54610D01*
X321291D01*
X330332D01*
X330041Y55694D01*
X328805Y57836D01*
X327057Y59584D01*
X324916Y60820D01*
X324892Y60826D01*
Y100108D01*
X345148Y120364D01*
X345928Y121532D01*
X346203Y122910D01*
Y162538D01*
X346284Y162560D01*
X348459Y163816D01*
X350235Y165592D01*
X351491Y167768D01*
X351797Y168910D01*
D02*
G37*
G36*
X594360Y50951D02*
Y44450D01*
X600861D01*
X600570Y45534D01*
X599334Y47676D01*
X597586Y49424D01*
X595444Y50660D01*
X594360Y50951D01*
D02*
G37*
G36*
X589280D02*
X588196Y50660D01*
X586054Y49424D01*
X584306Y47676D01*
X583070Y45534D01*
X582779Y44450D01*
X589280D01*
Y50951D01*
D02*
G37*
G36*
X355573Y60952D02*
X337809D01*
Y43188D01*
X355573D01*
Y60952D01*
D02*
G37*
G36*
X297061D02*
X294722D01*
X292463Y60347D01*
X290438Y59177D01*
X288784Y57524D01*
X287614Y55498D01*
X287009Y53239D01*
Y50901D01*
X287614Y48642D01*
X288784Y46616D01*
X290438Y44963D01*
X292463Y43793D01*
X294722Y43188D01*
X297061D01*
X299319Y43793D01*
X301345Y44963D01*
X302999Y46616D01*
X304168Y48642D01*
X304773Y50901D01*
Y53239D01*
X304168Y55498D01*
X302999Y57524D01*
X301345Y59177D01*
X299319Y60347D01*
X297061Y60952D01*
D02*
G37*
G36*
X330332Y49530D02*
X323831D01*
Y43029D01*
X324916Y43320D01*
X327057Y44556D01*
X328805Y46304D01*
X330041Y48446D01*
X330332Y49530D01*
D02*
G37*
G36*
X318751D02*
X312251D01*
X312541Y48446D01*
X313777Y46304D01*
X315526Y44556D01*
X317667Y43320D01*
X318751Y43029D01*
Y49530D01*
D02*
G37*
G36*
X681990Y56006D02*
X677810Y55175D01*
X673616Y53438D01*
X669843Y50916D01*
X666634Y47707D01*
X664112Y43934D01*
X662375Y39741D01*
X661544Y35560D01*
X681990D01*
Y56006D01*
D02*
G37*
G36*
X610672Y276722D02*
X608491D01*
X606385Y276157D01*
X604496Y275067D01*
X602954Y273525D01*
X601864Y271637D01*
X601299Y269530D01*
Y267350D01*
X601864Y265243D01*
X602954Y263355D01*
X604496Y261813D01*
X606385Y260722D01*
X608491Y260158D01*
X610672D01*
X611866Y260478D01*
X633526Y238818D01*
Y63893D01*
X620425Y50792D01*
X608338D01*
Y33028D01*
X626102D01*
Y45115D01*
X640378Y59392D01*
X641249Y60694D01*
X641554Y62230D01*
Y240481D01*
X641249Y242017D01*
X640378Y243319D01*
X617543Y266155D01*
X617863Y267350D01*
Y269530D01*
X617299Y271637D01*
X616208Y273525D01*
X614666Y275067D01*
X612778Y276157D01*
X610672Y276722D01*
D02*
G37*
G36*
X600861Y39370D02*
X594360D01*
Y32869D01*
X595444Y33160D01*
X597586Y34396D01*
X599334Y36144D01*
X600570Y38286D01*
X600861Y39370D01*
D02*
G37*
G36*
X589280D02*
X582779D01*
X583070Y38286D01*
X584306Y36144D01*
X586054Y34396D01*
X588196Y33160D01*
X589280Y32869D01*
Y39370D01*
D02*
G37*
%LPD*%
D12*
X29191Y41828D02*
Y56824D01*
X36689D01*
X39188Y54324D01*
Y49326D01*
X36689Y46827D01*
X29191D01*
X46686Y41828D02*
X51684D01*
X54183Y44328D01*
Y49326D01*
X51684Y51825D01*
X46686D01*
X44187Y49326D01*
Y44328D01*
X46686Y41828D01*
X59182Y51825D02*
Y44328D01*
X61681Y41828D01*
X64180Y44328D01*
X66679Y41828D01*
X69178Y44328D01*
Y51825D01*
X81674Y41828D02*
X76676D01*
X74177Y44328D01*
Y49326D01*
X76676Y51825D01*
X81674D01*
X84173Y49326D01*
Y46827D01*
X74177D01*
X89172Y51825D02*
Y41828D01*
Y46827D01*
X91671Y49326D01*
X94170Y51825D01*
X96670D01*
X129159Y54324D02*
X126660Y56824D01*
X121661D01*
X119162Y54324D01*
Y51825D01*
X121661Y49326D01*
X126660D01*
X129159Y46827D01*
Y44328D01*
X126660Y41828D01*
X121661D01*
X119162Y44328D01*
X134157Y51825D02*
Y44328D01*
X136657Y41828D01*
X144154D01*
Y51825D01*
X149152Y36830D02*
Y51825D01*
X156650D01*
X159149Y49326D01*
Y44328D01*
X156650Y41828D01*
X149152D01*
X164148Y36830D02*
Y51825D01*
X171645D01*
X174144Y49326D01*
Y44328D01*
X171645Y41828D01*
X164148D01*
X179143D02*
X184141D01*
X181642D01*
Y56824D01*
X179143D01*
X191639Y51825D02*
Y44328D01*
X194138Y41828D01*
X201635D01*
Y39329D01*
X199136Y36830D01*
X196637D01*
X201635Y41828D02*
Y51825D01*
X486410Y59445D02*
Y44450D01*
X493908D01*
X496407Y46949D01*
Y49448D01*
X493908Y51948D01*
X486410D01*
X493908D01*
X496407Y54447D01*
Y56946D01*
X493908Y59445D01*
X486410D01*
X501405Y54447D02*
Y46949D01*
X503904Y44450D01*
X511402D01*
Y54447D01*
X518899Y44450D02*
Y56946D01*
Y51948D01*
X516400D01*
X521399D01*
X518899D01*
Y56946D01*
X521399Y59445D01*
X531395Y44450D02*
Y56946D01*
Y51948D01*
X528896D01*
X533895D01*
X531395D01*
Y56946D01*
X533895Y59445D01*
X548890Y44450D02*
X543891D01*
X541392Y46949D01*
Y51948D01*
X543891Y54447D01*
X548890D01*
X551389Y51948D01*
Y49448D01*
X541392D01*
X556387Y54447D02*
Y44450D01*
Y49448D01*
X558886Y51948D01*
X561386Y54447D01*
X563885D01*
D18*
X609581Y268440D02*
D03*
X668001Y168440D02*
D03*
D19*
X609581D02*
D03*
X668001Y268440D02*
D03*
D29*
X340341Y405130D02*
X340723Y404748D01*
X329419Y416052D02*
X340341Y405130D01*
X637540Y62230D02*
Y240481D01*
X609581Y268440D02*
X637540Y240481D01*
X617220Y41910D02*
X637540Y62230D01*
X521970Y270510D02*
Y338909D01*
X476250Y31442D02*
Y224790D01*
X521970Y270510D01*
Y338909D02*
X561521Y378460D01*
X23095Y29210D02*
X474018D01*
X476250Y31442D01*
X86059Y264160D02*
X107931Y242288D01*
X87211Y95250D02*
X107931Y115970D01*
Y242288D01*
X413040Y404748D02*
X415271Y402516D01*
Y304492D02*
X417503Y302260D01*
X340723Y404748D02*
X413040D01*
X417503Y302260D02*
X484921D01*
X415271Y304492D02*
Y402516D01*
X185147Y416052D02*
X329419D01*
X86059Y316964D02*
X185147Y416052D01*
X86059Y264160D02*
Y316964D01*
X51059Y354048D02*
X53881Y356870D01*
X51059Y264160D02*
Y354048D01*
X314941Y295630D02*
Y405130D01*
X308871Y289560D02*
X314941Y295630D01*
X289541Y97028D02*
Y405130D01*
X261093Y68580D02*
X289541Y97028D01*
X23095Y68580D02*
X261093D01*
X14713Y60198D02*
X23095Y68580D01*
X14713Y37592D02*
Y60198D01*
Y37592D02*
X23095Y29210D01*
X585451Y192570D02*
X609581Y168440D01*
X585451Y192570D02*
Y303730D01*
X561521Y327660D02*
X585451Y303730D01*
X646411Y290030D02*
X668001Y268440D01*
X646411Y290030D02*
Y411480D01*
D30*
X342601Y171450D02*
Y195860D01*
X308871Y229590D02*
X342601Y195860D01*
X308871Y229590D02*
Y289560D01*
X342601Y122910D02*
Y171450D01*
X321291Y52070D02*
Y101600D01*
X342601Y122910D01*
X73895Y341884D02*
X88881Y356870D01*
X73895Y187306D02*
Y341884D01*
Y187306D02*
X87211Y173990D01*
X37211Y95250D02*
Y173990D01*
X51059Y187838D01*
Y264160D01*
X157969Y288102D02*
X196831Y249240D01*
X157969Y288102D02*
Y378460D01*
X161271Y381762D01*
X208769D01*
X222231Y368300D01*
X180067Y110744D02*
X193021Y97790D01*
X180067Y110744D02*
Y207126D01*
X222181Y249240D01*
X193021Y173990D02*
X236201Y217170D01*
Y328930D01*
X196831Y368300D02*
X236201Y328930D01*
D31*
X684530Y33020D02*
D03*
X31750Y429260D02*
D03*
D32*
X561521Y302260D02*
D03*
D33*
Y327660D02*
D03*
Y353060D02*
D03*
Y378460D02*
D03*
X484921D02*
D03*
Y353060D02*
D03*
Y327660D02*
D03*
Y302260D02*
D03*
D34*
X646411Y411480D02*
D03*
X617220Y41910D02*
D03*
D35*
X671811Y411480D02*
D03*
X591820Y41910D02*
D03*
X295891Y52070D02*
D03*
X321291D02*
D03*
X289541Y405130D02*
D03*
X314941D02*
D03*
D36*
X342601Y171450D02*
D03*
X88881Y356870D02*
D03*
X343871Y289560D02*
D03*
X51059Y264160D02*
D03*
D37*
X307601Y171450D02*
D03*
X53881Y356870D02*
D03*
X308871Y289560D02*
D03*
X86059Y264160D02*
D03*
D38*
X193021Y173990D02*
D03*
Y97790D02*
D03*
X154921Y135890D02*
D03*
X231121D02*
D03*
D39*
X346691Y52070D02*
D03*
X340341Y405130D02*
D03*
D40*
X222181Y249240D02*
D03*
D41*
X196831D02*
D03*
X171481D02*
D03*
D42*
X37211Y95250D02*
D03*
X87211D02*
D03*
Y173990D02*
D03*
X37211D02*
D03*
D43*
X222231Y368300D02*
D03*
D44*
X196831D02*
D03*
X171431D02*
D03*
M02*
