G04*
G04 #@! TF.GenerationSoftware,Altium Limited,Altium Designer,23.9.2 (47)*
G04*
G04 Layer_Color=65535*
%FSLAX44Y44*%
%MOMM*%
G71*
G04*
G04 #@! TF.SameCoordinates,EEA8B457-634A-40EF-9803-A2E49DE358F5*
G04*
G04*
G04 #@! TF.FilePolarity,Positive*
G04*
G01*
G75*
%ADD10C,0.2000*%
%ADD11C,0.1270*%
%ADD12C,0.2540*%
D10*
X573571Y302260D02*
G03*
X573571Y302260I-1000J0D01*
G01*
X628211Y411480D02*
G03*
X628211Y411480I-1000J0D01*
G01*
X637420Y41910D02*
G03*
X637420Y41910I-1000J0D01*
G01*
X365101Y171450D02*
G03*
X365101Y171450I-40000J0D01*
G01*
X111381Y356870D02*
G03*
X111381Y356870I-40000J0D01*
G01*
X347691Y32870D02*
G03*
X347691Y32870I-1000J0D01*
G01*
X341341Y385930D02*
G03*
X341341Y385930I-1000J0D01*
G01*
X257231Y249240D02*
G03*
X257231Y249240I-1000J0D01*
G01*
X366371Y289560D02*
G03*
X366371Y289560I-40000J0D01*
G01*
X108559Y264160D02*
G03*
X108559Y264160I-40000J0D01*
G01*
X256231Y368300D02*
G03*
X256231Y368300I-1000J0D01*
G01*
X633711Y398780D02*
Y424180D01*
X684511Y398780D02*
Y424180D01*
X633711D02*
X684511D01*
X633711Y398780D02*
X684511D01*
X609581Y250940D02*
Y258190D01*
Y178690D02*
Y185940D01*
X597081D02*
X622081D01*
Y250940D01*
X597081D02*
X622081D01*
X597081Y185940D02*
Y250940D01*
X668001Y178690D02*
Y185940D01*
Y250940D02*
Y258190D01*
X655501Y250940D02*
X680501D01*
X655501Y185940D02*
Y250940D01*
Y185940D02*
X680501D01*
Y250940D01*
X629920Y29210D02*
Y54610D01*
X579120Y29210D02*
Y54610D01*
Y29210D02*
X629920D01*
X579120Y54610D02*
X629920D01*
X274301Y165100D02*
Y177800D01*
X267951Y171450D02*
X280651D01*
X20581Y350520D02*
Y363220D01*
X14231Y356870D02*
X26931D01*
X359391Y39370D02*
Y64770D01*
X283191Y39370D02*
Y64770D01*
X359391D01*
X283191Y39370D02*
X359391D01*
X353041Y392430D02*
Y417830D01*
X276841Y392430D02*
Y417830D01*
X353041D01*
X276841Y392430D02*
X353041D01*
X275571Y283210D02*
Y295910D01*
X269221Y289560D02*
X281921D01*
X113009Y264160D02*
X125709D01*
X119359Y257810D02*
Y270510D01*
D11*
X246361Y135890D02*
G03*
X246361Y135890I-53340J0D01*
G01*
X490196Y292410D02*
X556246D01*
X490196Y388310D02*
X556246D01*
X247631Y222090D02*
Y265590D01*
X146031D02*
X247631D01*
X146031Y222090D02*
Y265590D01*
Y222090D02*
X247631D01*
X34711Y112750D02*
X89711D01*
X34711Y77750D02*
X89711D01*
Y104200D02*
Y112750D01*
X34711Y104200D02*
Y112750D01*
X89711Y77750D02*
Y86300D01*
X34711Y77750D02*
Y86300D01*
Y156490D02*
X89711D01*
X34711Y191490D02*
X89711D01*
X34711Y156490D02*
Y165040D01*
X89711Y156490D02*
Y165040D01*
X34711Y182940D02*
Y191490D01*
X89711Y182940D02*
Y191490D01*
X249531Y339700D02*
Y386700D01*
X144131D02*
X249531D01*
X144131Y339700D02*
Y386700D01*
Y339700D02*
X249531D01*
D12*
X448291Y312420D02*
X454641D01*
Y427990D01*
X436861Y264160D02*
X455911D01*
Y39370D02*
Y264160D01*
X436861Y39370D02*
X455911D01*
X436861D02*
Y264160D01*
X435591Y427990D02*
X454641D01*
X435591Y312420D02*
X448291D01*
X435591D02*
Y427990D01*
X228896Y329641D02*
X227230Y331307D01*
X223897D01*
X222231Y329641D01*
Y322976D01*
X223897Y321310D01*
X227230D01*
X228896Y322976D01*
Y326308D01*
X225564D01*
X232228Y321310D02*
Y331307D01*
X238893Y321310D01*
Y331307D01*
X242225D02*
Y321310D01*
X247223D01*
X248889Y322976D01*
Y329641D01*
X247223Y331307D01*
X242225D01*
X145950Y283047D02*
X142618D01*
X140951Y281381D01*
Y274716D01*
X142618Y273050D01*
X145950D01*
X147616Y274716D01*
Y281381D01*
X145950Y283047D01*
X150948D02*
Y274716D01*
X152614Y273050D01*
X155947D01*
X157613Y274716D01*
Y283047D01*
X160945D02*
X167609D01*
X164277D01*
Y273050D01*
X292886Y427594D02*
X294552D01*
X293719D01*
Y432592D01*
X292886Y431759D01*
X300383Y427594D02*
X297051D01*
X300383Y430926D01*
Y431759D01*
X299550Y432592D01*
X297884D01*
X297051Y431759D01*
X302049Y432592D02*
Y429260D01*
X303715Y427594D01*
X305382Y429260D01*
Y432592D01*
X312879Y426761D02*
X313712Y427594D01*
Y428427D01*
X312879D01*
Y427594D01*
X313712D01*
X312879Y426761D01*
X312046Y425928D01*
X322043Y430093D02*
X325375D01*
X327041Y427594D02*
X328707D01*
X327874D01*
Y432592D01*
X327041Y431759D01*
X334539Y427594D02*
X331206D01*
X334539Y430926D01*
Y431759D01*
X333706Y432592D01*
X332039D01*
X331206Y431759D01*
X336205Y432592D02*
Y429260D01*
X337871Y427594D01*
X339537Y429260D01*
Y432592D01*
X229851Y284317D02*
X233184D01*
X231518D01*
Y274320D01*
X229851D01*
X233184D01*
X238182D02*
Y284317D01*
X244846Y274320D01*
Y284317D01*
X151030Y330037D02*
X147697D01*
X146031Y328371D01*
Y321706D01*
X147697Y320040D01*
X151030D01*
X152696Y321706D01*
Y328371D01*
X151030Y330037D01*
X156028D02*
Y321706D01*
X157694Y320040D01*
X161026D01*
X162693Y321706D01*
Y330037D01*
X166025D02*
X172689D01*
X169357D01*
Y320040D01*
X481057Y403860D02*
X486135D01*
X488674Y406399D01*
Y411478D01*
X486135Y414017D01*
X481057D01*
X478517Y411478D01*
Y406399D01*
X481057Y403860D01*
X493752Y398782D02*
Y414017D01*
X501370D01*
X503909Y411478D01*
Y406399D01*
X501370Y403860D01*
X493752D01*
X508988D02*
X514066D01*
X511527D01*
Y419095D01*
X508988Y416556D01*
X618169Y391078D02*
X616503Y392744D01*
X613170D01*
X611504Y391078D01*
Y389412D01*
X613170Y387746D01*
X616503D01*
X618169Y386080D01*
Y384414D01*
X616503Y382748D01*
X613170D01*
X611504Y384414D01*
X621501Y382748D02*
X624833D01*
X623167D01*
Y389412D01*
X621501D01*
X633164Y379416D02*
X634830D01*
X636496Y381082D01*
Y389412D01*
X631498D01*
X629832Y387746D01*
Y384414D01*
X631498Y382748D01*
X636496D01*
X639828D02*
Y389412D01*
X644827D01*
X646493Y387746D01*
Y382748D01*
X651491Y389412D02*
X654824D01*
X656490Y387746D01*
Y382748D01*
X651491D01*
X649825Y384414D01*
X651491Y386080D01*
X656490D01*
X659822Y382748D02*
X663154D01*
X661488D01*
Y392744D01*
X659822D01*
X673151D02*
X669819D01*
X668153Y391078D01*
Y384414D01*
X669819Y382748D01*
X673151D01*
X674817Y384414D01*
Y391078D01*
X673151Y392744D01*
X678149Y389412D02*
Y384414D01*
X679816Y382748D01*
X684814D01*
Y389412D01*
X689812Y391078D02*
Y389412D01*
X688146D01*
X691478D01*
X689812D01*
Y384414D01*
X691478Y382748D01*
X597643Y284226D02*
Y299461D01*
X605261D01*
X607800Y296922D01*
Y291843D01*
X605261Y289304D01*
X597643D01*
X602722D02*
X607800Y284226D01*
X612878D02*
X617957D01*
X615418D01*
Y299461D01*
X612878Y296922D01*
X656063Y284226D02*
Y299461D01*
X663681D01*
X666220Y296922D01*
Y291843D01*
X663681Y289304D01*
X656063D01*
X661142D02*
X666220Y284226D01*
X681455D02*
X671298D01*
X681455Y294383D01*
Y296922D01*
X678916Y299461D01*
X673838D01*
X671298Y296922D01*
X589023Y82800D02*
X586483Y85339D01*
X581405D01*
X578866Y82800D01*
Y80261D01*
X581405Y77722D01*
X586483D01*
X589023Y75182D01*
Y72643D01*
X586483Y70104D01*
X581405D01*
X578866Y72643D01*
X594101Y70104D02*
X599179D01*
X596640D01*
Y80261D01*
X594101D01*
X611875Y65026D02*
X614414D01*
X616954Y67565D01*
Y80261D01*
X609336D01*
X606797Y77722D01*
Y72643D01*
X609336Y70104D01*
X616954D01*
X622032D02*
Y80261D01*
X629650D01*
X632189Y77722D01*
Y70104D01*
X639806Y80261D02*
X644885D01*
X647424Y77722D01*
Y70104D01*
X639806D01*
X637267Y72643D01*
X639806Y75182D01*
X647424D01*
X652502Y70104D02*
X657580D01*
X655041D01*
Y85339D01*
X652502D01*
X336531Y374648D02*
X346688D01*
X341610Y379727D02*
Y369570D01*
X184131Y69848D02*
X194288D01*
X189210Y74927D02*
Y64770D01*
X262889Y82552D02*
Y92708D01*
X267967Y97787D01*
X273046Y92708D01*
Y82552D01*
Y90169D01*
X262889D01*
X288281Y95247D02*
X285742Y97787D01*
X280663D01*
X278124Y95247D01*
Y85091D01*
X280663Y82552D01*
X285742D01*
X288281Y85091D01*
X308594Y97787D02*
X313673D01*
X311133D01*
Y82552D01*
X308594D01*
X313673D01*
X321290D02*
Y92708D01*
X328908D01*
X331447Y90169D01*
Y82552D01*
X336525Y77473D02*
Y92708D01*
X344143D01*
X346682Y90169D01*
Y85091D01*
X344143Y82552D01*
X336525D01*
X351760Y92708D02*
Y85091D01*
X354299Y82552D01*
X361917D01*
Y92708D01*
X369534Y95247D02*
Y92708D01*
X366995D01*
X372074D01*
X369534D01*
Y85091D01*
X372074Y82552D01*
X15223Y316231D02*
X12684Y313692D01*
Y308613D01*
X15223Y306074D01*
X25380D01*
X27919Y308613D01*
Y313692D01*
X25380Y316231D01*
X12684Y331466D02*
X15223Y326387D01*
X20301Y321309D01*
X25380D01*
X27919Y323848D01*
Y328927D01*
X25380Y331466D01*
X22840D01*
X20301Y328927D01*
Y321309D01*
X31223Y201930D02*
X36302D01*
X33763D01*
Y217165D01*
X31223Y214626D01*
X43919D02*
X46458Y217165D01*
X51537D01*
X54076Y214626D01*
Y204469D01*
X51537Y201930D01*
X46458D01*
X43919Y204469D01*
Y214626D01*
X59154D02*
X61694Y217165D01*
X66772D01*
X69311Y214626D01*
Y204469D01*
X66772Y201930D01*
X61694D01*
X59154Y204469D01*
Y214626D01*
X74389Y201930D02*
Y212087D01*
X82007D01*
X84546Y209548D01*
Y201930D01*
X99781Y217165D02*
X89624D01*
Y209548D01*
X94703D01*
X89624D01*
Y201930D01*
X109938D02*
X104860Y207008D01*
Y212087D01*
X109938Y217165D01*
X127712Y201930D02*
X117555D01*
X127712Y212087D01*
Y214626D01*
X125173Y217165D01*
X120095D01*
X117555Y214626D01*
X132790Y201930D02*
X137869Y207008D01*
Y212087D01*
X132790Y217165D01*
X31223Y123190D02*
X36302D01*
X33763D01*
Y138425D01*
X31223Y135886D01*
X43919D02*
X46458Y138425D01*
X51537D01*
X54076Y135886D01*
Y125729D01*
X51537Y123190D01*
X46458D01*
X43919Y125729D01*
Y135886D01*
X59154D02*
X61694Y138425D01*
X66772D01*
X69311Y135886D01*
Y125729D01*
X66772Y123190D01*
X61694D01*
X59154Y125729D01*
Y135886D01*
X74389Y123190D02*
Y133347D01*
X82007D01*
X84546Y130808D01*
Y123190D01*
X99781Y138425D02*
X89624D01*
Y130808D01*
X94703D01*
X89624D01*
Y123190D01*
X109938D02*
X104860Y128268D01*
Y133347D01*
X109938Y138425D01*
X117555Y123190D02*
X122634D01*
X120095D01*
Y138425D01*
X117555Y135886D01*
X130251Y123190D02*
X135330Y128268D01*
Y133347D01*
X130251Y138425D01*
X315932Y350518D02*
X313393Y353058D01*
X308315D01*
X305776Y350518D01*
Y340362D01*
X308315Y337822D01*
X313393D01*
X315932Y340362D01*
X331167Y337822D02*
X321011D01*
X331167Y347979D01*
Y350518D01*
X328628Y353058D01*
X323550D01*
X321011Y350518D01*
X156205Y208277D02*
Y193042D01*
X163822D01*
X166362Y195581D01*
Y198120D01*
X163822Y200659D01*
X156205D01*
X163822D01*
X166362Y203198D01*
Y205737D01*
X163822Y208277D01*
X156205D01*
X171440Y203198D02*
Y193042D01*
Y198120D01*
X173979Y200659D01*
X176518Y203198D01*
X179058D01*
X186675Y193042D02*
X191753D01*
X189214D01*
Y203198D01*
X186675D01*
X209528Y208277D02*
Y193042D01*
X201910D01*
X199371Y195581D01*
Y200659D01*
X201910Y203198D01*
X209528D01*
X219684Y187963D02*
X222223D01*
X224763Y190502D01*
Y203198D01*
X217145D01*
X214606Y200659D01*
Y195581D01*
X217145Y193042D01*
X224763D01*
X237459D02*
X232380D01*
X229841Y195581D01*
Y200659D01*
X232380Y203198D01*
X237459D01*
X239998Y200659D01*
Y198120D01*
X229841D01*
X143999Y412237D02*
Y402080D01*
X149078Y397002D01*
X154156Y402080D01*
Y412237D01*
X159234Y397002D02*
Y412237D01*
X166852D01*
X169391Y409698D01*
Y404619D01*
X166852Y402080D01*
X159234D01*
X164313D02*
X169391Y397002D01*
X184626D02*
X174470D01*
X184626Y407159D01*
Y409698D01*
X182087Y412237D01*
X177009D01*
X174470Y409698D01*
X180327Y292097D02*
Y281941D01*
X185405Y276863D01*
X190484Y281941D01*
Y292097D01*
X195562Y276863D02*
Y292097D01*
X203180D01*
X205719Y289558D01*
Y284480D01*
X203180Y281941D01*
X195562D01*
X200641D02*
X205719Y276863D01*
X210797D02*
X215876D01*
X213336D01*
Y292097D01*
X210797Y289558D01*
X12683Y224791D02*
X10144Y222252D01*
Y217173D01*
X12683Y214634D01*
X22840D01*
X25379Y217173D01*
Y222252D01*
X22840Y224791D01*
X10144Y240026D02*
Y229869D01*
X17761D01*
X15222Y234947D01*
Y237487D01*
X17761Y240026D01*
X22840D01*
X25379Y237487D01*
Y232408D01*
X22840Y229869D01*
X319741Y232408D02*
X317202Y234947D01*
X312124D01*
X309585Y232408D01*
Y222252D01*
X312124Y219713D01*
X317202D01*
X319741Y222252D01*
X324820Y219713D02*
X329898D01*
X327359D01*
Y234947D01*
X324820Y232408D01*
M02*
