M48
;Layer_Color=9474304
;FILE_FORMAT=4:4
METRIC,LZ
;TYPE=PLATED
T01F00S00C0.7500
T02F00S00C0.8000
T03F00S00C0.8200
T04F00S00C0.9000
T05F00S00C1.0200
T06F00S00C1.2400
T07F00S00C1.3200
T08F00S00C4.1000
%
T01
X00609581Y0016844
X00668001
Y0026844
X00609581
T02
X00037211Y0009525
X00087211
Y0017399
X00037211
T03
X00484921Y0030226
Y0032766
Y0035306
Y0037846
X00561521
Y0035306
Y0032766
Y0030226
T04
X00193021Y0009779
Y0017399
X00154921Y0013589
X00231121
X00307601Y0017145
X00342601
X00343871Y0028956
X00308871
X00086059Y0026416
X00051059
X00053881Y0035687
X00088881
T05
X00295891Y0005207
X00321291
X00346691
X0059182Y0004191
X0061722
X00646411Y0041148
X00671811
X00340341Y0040513
X00314941
X00289541
T06
X00171431Y003683
X00196831
X00222231
T07
X00171481Y0024924
X00196831
X00222181
T08
X0068453Y0003302
X0003175Y0042926
M30
