G04*
G04 #@! TF.GenerationSoftware,Altium Limited,Altium Designer,23.9.2 (47)*
G04*
G04 Layer_Physical_Order=1*
G04 Layer_Color=255*
%FSLAX44Y44*%
%MOMM*%
G71*
G04*
G04 #@! TF.SameCoordinates,B01C943C-82B9-4626-82FF-92624BC3EB66*
G04*
G04*
G04 #@! TF.FilePolarity,Positive*
G04*
G01*
G75*
%ADD13C,0.2540*%
%ADD17R,1.2500X1.2500*%
%ADD18C,1.2500*%
%ADD29C,0.2700*%
%ADD30R,1.8000X1.8000*%
%ADD31C,1.8000*%
%ADD32C,4.5000*%
%ADD33C,1.5500*%
%ADD34C,1.1500*%
%ADD35O,2.6416X1.3208*%
%ADD36C,1.3700*%
%ADD37R,1.3700X1.3700*%
%ADD38R,1.3700X1.3700*%
%ADD39C,1.5300*%
%ADD40C,1.6764*%
%ADD41R,1.6764X1.6764*%
%ADD42C,1.2700*%
G36*
X232410Y729894D02*
Y716280D01*
X514262D01*
Y728402D01*
X515161Y729299D01*
X666750Y728980D01*
Y20320D01*
X314608D01*
X314122Y21493D01*
X325384Y32755D01*
X326244Y34042D01*
X326546Y35560D01*
Y177173D01*
X328287Y178914D01*
X333121D01*
X333389Y178269D01*
X334854Y176358D01*
X336765Y174893D01*
X338989Y173971D01*
X341376Y173657D01*
X354584D01*
X356971Y173971D01*
X359195Y174893D01*
X361106Y176358D01*
X362571Y178269D01*
X363493Y180493D01*
X363807Y182880D01*
X363493Y185267D01*
X362571Y187491D01*
X361106Y189402D01*
X359195Y190867D01*
X356971Y191789D01*
X354584Y192103D01*
X341376D01*
X338989Y191789D01*
X336765Y190867D01*
X334854Y189402D01*
X333389Y187491D01*
X333121Y186846D01*
X326644D01*
X325126Y186544D01*
X323839Y185685D01*
X319776Y181621D01*
X318916Y180334D01*
X318614Y178816D01*
Y37203D01*
X303157Y21746D01*
X79113D01*
X63500Y37359D01*
Y47639D01*
X64139Y47844D01*
X64770Y47850D01*
X65521Y46726D01*
X85842Y26405D01*
X87128Y25546D01*
X88646Y25244D01*
X285750D01*
X287268Y25546D01*
X288554Y26405D01*
X312684Y50535D01*
X313544Y51822D01*
X313846Y53340D01*
Y193937D01*
X324223Y204314D01*
X333121D01*
X333389Y203669D01*
X334854Y201758D01*
X336765Y200293D01*
X338989Y199371D01*
X341376Y199057D01*
X354584D01*
X356971Y199371D01*
X359195Y200293D01*
X361106Y201758D01*
X362571Y203669D01*
X363493Y205893D01*
X363807Y208280D01*
X363493Y210667D01*
X362571Y212891D01*
X361106Y214802D01*
X359195Y216267D01*
X356971Y217189D01*
X354584Y217503D01*
X341376D01*
X338989Y217189D01*
X336765Y216267D01*
X334854Y214802D01*
X333389Y212891D01*
X333121Y212246D01*
X322580D01*
X321062Y211944D01*
X319776Y211084D01*
X307076Y198384D01*
X306216Y197098D01*
X305914Y195580D01*
Y54983D01*
X284107Y33176D01*
X90289D01*
X72292Y51173D01*
Y61529D01*
X73465Y62015D01*
X74194Y61286D01*
X76826Y59767D01*
X79761Y58980D01*
X82799D01*
X85734Y59767D01*
X88366Y61286D01*
X90514Y63434D01*
X92034Y66066D01*
X92820Y69001D01*
Y72039D01*
X92034Y74974D01*
X90514Y77606D01*
X88366Y79754D01*
X85734Y81274D01*
X82799Y82060D01*
X79761D01*
X76826Y81274D01*
X74194Y79754D01*
X73465Y79026D01*
X72292Y79512D01*
Y96529D01*
X73465Y97015D01*
X74194Y96286D01*
X76826Y94767D01*
X79761Y93980D01*
X82799D01*
X85734Y94767D01*
X88366Y96286D01*
X90514Y98434D01*
X92034Y101066D01*
X92820Y104001D01*
Y107039D01*
X92034Y109974D01*
X90514Y112606D01*
X88366Y114754D01*
X85734Y116274D01*
X82799Y117060D01*
X79761D01*
X76826Y116274D01*
X74194Y114754D01*
X73465Y114026D01*
X72292Y114512D01*
Y131528D01*
X73465Y132014D01*
X74194Y131286D01*
X76826Y129766D01*
X79761Y128980D01*
X82799D01*
X85734Y129766D01*
X88366Y131286D01*
X90514Y133434D01*
X92034Y136066D01*
X92820Y139001D01*
Y142039D01*
X92034Y144974D01*
X90514Y147606D01*
X88366Y149754D01*
X85734Y151273D01*
X82799Y152060D01*
X79761D01*
X76826Y151273D01*
X74194Y149754D01*
X73465Y149025D01*
X72292Y149511D01*
Y166529D01*
X73465Y167015D01*
X74194Y166286D01*
X76826Y164767D01*
X79761Y163980D01*
X82799D01*
X85734Y164767D01*
X88366Y166286D01*
X90514Y168434D01*
X92034Y171066D01*
X92820Y174001D01*
Y177039D01*
X92034Y179974D01*
X90514Y182606D01*
X88366Y184754D01*
X85734Y186274D01*
X82799Y187060D01*
X79761D01*
X76826Y186274D01*
X74194Y184754D01*
X73465Y184026D01*
X72292Y184512D01*
Y201529D01*
X73465Y202015D01*
X74194Y201286D01*
X76826Y199767D01*
X79761Y198980D01*
X82799D01*
X85734Y199767D01*
X88366Y201286D01*
X90514Y203435D01*
X92034Y206066D01*
X92820Y209001D01*
Y212040D01*
X92034Y214975D01*
X90514Y217606D01*
X88366Y219755D01*
X85734Y221274D01*
X82799Y222060D01*
X79761D01*
X76826Y221274D01*
X74194Y219755D01*
X73465Y219026D01*
X72292Y219512D01*
Y236528D01*
X73465Y237015D01*
X74194Y236286D01*
X76826Y234766D01*
X79761Y233980D01*
X82799D01*
X85734Y234766D01*
X88366Y236286D01*
X90514Y238434D01*
X92034Y241066D01*
X92820Y244001D01*
Y247039D01*
X92034Y249974D01*
X91781Y250412D01*
X108215Y266845D01*
X109074Y268132D01*
X109376Y269650D01*
Y289560D01*
X109074Y291078D01*
X108215Y292365D01*
X101363Y299216D01*
X100076Y300076D01*
X98558Y300378D01*
X66542D01*
X65024Y300076D01*
X64770Y299906D01*
X63500Y300585D01*
Y729351D01*
X64399Y730248D01*
X232410Y729894D01*
D02*
G37*
%LPC*%
G36*
X195580Y726931D02*
Y718820D01*
X203691D01*
X203060Y721174D01*
X201824Y723316D01*
X200076Y725064D01*
X197934Y726300D01*
X195580Y726931D01*
D02*
G37*
G36*
X193040D02*
X190686Y726300D01*
X188544Y725064D01*
X186796Y723316D01*
X185560Y721174D01*
X184929Y718820D01*
X193040D01*
Y726931D01*
D02*
G37*
G36*
X561340Y725661D02*
Y717550D01*
X569451D01*
X568820Y719904D01*
X567584Y722046D01*
X565836Y723794D01*
X563694Y725030D01*
X561340Y725661D01*
D02*
G37*
G36*
X558800D02*
X556446Y725030D01*
X554304Y723794D01*
X552556Y722046D01*
X551320Y719904D01*
X550689Y717550D01*
X558800D01*
Y725661D01*
D02*
G37*
G36*
X203691Y716280D02*
X195580D01*
Y708169D01*
X197934Y708800D01*
X200076Y710036D01*
X201824Y711784D01*
X203060Y713926D01*
X203691Y716280D01*
D02*
G37*
G36*
X178300Y726940D02*
X159520D01*
Y708160D01*
X177355Y708160D01*
X177426D01*
D01*
X177515Y708160D01*
X177595Y707967D01*
X178041Y706890D01*
X117845Y646694D01*
X116986Y645408D01*
X116684Y643890D01*
Y582460D01*
X116986Y580942D01*
X117845Y579656D01*
X181710Y515791D01*
Y513880D01*
X189230D01*
Y521400D01*
X187319D01*
X124616Y584103D01*
Y642247D01*
X191067Y708698D01*
X193040Y708169D01*
Y716280D01*
X184929D01*
X185458Y714307D01*
X179570Y708419D01*
X178300Y708945D01*
X178300Y709034D01*
X178300Y709034D01*
X178300Y709105D01*
Y726940D01*
D02*
G37*
G36*
X535906Y725670D02*
X533434D01*
X531046Y725030D01*
X528904Y723794D01*
X527156Y722046D01*
X525920Y719904D01*
X525280Y717516D01*
Y715044D01*
X525920Y712656D01*
X527156Y710514D01*
X528904Y708766D01*
X531046Y707530D01*
X533434Y706890D01*
X535906D01*
X538294Y707530D01*
X540436Y708766D01*
X542184Y710514D01*
X543420Y712656D01*
X544060Y715044D01*
Y717516D01*
X543420Y719904D01*
X542184Y722046D01*
X540436Y723794D01*
X538294Y725030D01*
X535906Y725670D01*
D02*
G37*
G36*
X569451Y715010D02*
X560070D01*
X550689D01*
X551320Y712656D01*
X552556Y710514D01*
X554304Y708766D01*
X556104Y707727D01*
Y616802D01*
X554834Y616462D01*
X554404Y617207D01*
X552767Y618843D01*
X550763Y620001D01*
X548527Y620600D01*
X546213D01*
X543977Y620001D01*
X541973Y618843D01*
X540336Y617207D01*
X539179Y615203D01*
X538580Y612967D01*
Y610653D01*
X539179Y608417D01*
X540336Y606413D01*
X541973Y604776D01*
X543977Y603619D01*
X546213Y603020D01*
X548527D01*
X550763Y603619D01*
X552767Y604776D01*
X554404Y606413D01*
X554834Y607158D01*
X556104Y606817D01*
Y526153D01*
X550551Y520600D01*
X548640D01*
Y513080D01*
X556160D01*
Y514991D01*
X562874Y521706D01*
X563734Y522992D01*
X564036Y524510D01*
Y707727D01*
X565836Y708766D01*
X567584Y710514D01*
X568820Y712656D01*
X569451Y715010D01*
D02*
G37*
G36*
X191657Y621400D02*
X189343D01*
X187107Y620801D01*
X185103Y619644D01*
X183466Y618007D01*
X182309Y616003D01*
X181710Y613767D01*
Y611453D01*
X182309Y609217D01*
X183466Y607213D01*
X185103Y605576D01*
X187107Y604419D01*
X189343Y603820D01*
X191657D01*
X193893Y604419D01*
X195897Y605576D01*
X197534Y607213D01*
X198691Y609217D01*
X199290Y611453D01*
Y613767D01*
X198691Y616003D01*
X197534Y618007D01*
X195897Y619644D01*
X193893Y620801D01*
X191657Y621400D01*
D02*
G37*
G36*
X590437Y620600D02*
X588123D01*
X585887Y620001D01*
X583883Y618843D01*
X582246Y617207D01*
X581089Y615203D01*
X580490Y612967D01*
Y610653D01*
X581089Y608417D01*
X582246Y606413D01*
X583883Y604776D01*
X585887Y603619D01*
X588123Y603020D01*
X590437D01*
X592673Y603619D01*
X594677Y604776D01*
X596314Y606413D01*
X597471Y608417D01*
X598070Y610653D01*
Y612967D01*
X597471Y615203D01*
X596314Y617207D01*
X594677Y618843D01*
X592673Y620001D01*
X590437Y620600D01*
D02*
G37*
G36*
X399472Y672500D02*
X397289D01*
X395180Y671935D01*
X393290Y670844D01*
X391747Y669300D01*
X390655Y667410D01*
X390090Y665301D01*
Y663119D01*
X390655Y661010D01*
X391747Y659120D01*
X393290Y657576D01*
X394414Y656927D01*
Y618153D01*
X393290Y617504D01*
X391747Y615960D01*
X390655Y614070D01*
X390090Y611961D01*
Y609779D01*
X390655Y607670D01*
X391747Y605780D01*
X393290Y604236D01*
X395180Y603145D01*
X397289Y602580D01*
X399472D01*
X401580Y603145D01*
X403470Y604236D01*
X405014Y605780D01*
X406105Y607670D01*
X406670Y609779D01*
Y611961D01*
X406105Y614070D01*
X405014Y615960D01*
X403470Y617504D01*
X402346Y618153D01*
Y656927D01*
X403470Y657576D01*
X405014Y659120D01*
X406105Y661010D01*
X406670Y663119D01*
Y665301D01*
X406105Y667410D01*
X405014Y669300D01*
X403470Y670844D01*
X401580Y671935D01*
X399472Y672500D01*
D02*
G37*
G36*
X279287Y620130D02*
X276973D01*
X274737Y619531D01*
X272733Y618374D01*
X271096Y616737D01*
X269939Y614733D01*
X269340Y612497D01*
Y610183D01*
X269768Y608587D01*
X265166Y603984D01*
X264306Y602698D01*
X264004Y601180D01*
Y493776D01*
X264306Y492258D01*
X265166Y490971D01*
X290674Y465463D01*
Y351693D01*
X278771Y339790D01*
X266800D01*
Y327970D01*
X265627Y327484D01*
X259236Y333875D01*
Y409037D01*
X272837Y422638D01*
X274433Y422210D01*
X276747D01*
X278983Y422809D01*
X280987Y423966D01*
X282624Y425603D01*
X283781Y427607D01*
X284380Y429843D01*
Y432157D01*
X283781Y434393D01*
X282624Y436397D01*
X280987Y438034D01*
X278983Y439191D01*
X276747Y439790D01*
X274433D01*
X272197Y439191D01*
X270193Y438034D01*
X268556Y436397D01*
X267399Y434393D01*
X266800Y432157D01*
Y429843D01*
X267228Y428247D01*
X252465Y413484D01*
X251606Y412198D01*
X251304Y410680D01*
Y332232D01*
X251606Y330714D01*
X252465Y329427D01*
X285086Y296807D01*
Y267064D01*
X283816Y266438D01*
X282995Y267067D01*
X280771Y267989D01*
X278384Y268303D01*
X265176D01*
X262789Y267989D01*
X260565Y267067D01*
X258654Y265602D01*
X257189Y263691D01*
X256922Y263046D01*
X254373D01*
X242218Y275201D01*
Y369316D01*
X241916Y370834D01*
X241056Y372121D01*
X224852Y388325D01*
X223566Y389184D01*
X222048Y389486D01*
X92820D01*
Y397060D01*
X69740D01*
Y373980D01*
X92820D01*
Y381554D01*
X220405D01*
X234286Y367673D01*
Y273558D01*
X234588Y272040D01*
X235448Y270753D01*
X249925Y256276D01*
X251212Y255416D01*
X252730Y255114D01*
X256922D01*
X257189Y254469D01*
X258654Y252558D01*
X259882Y251616D01*
X259451Y250346D01*
X254254D01*
X252736Y250044D01*
X251450Y249184D01*
X238496Y236231D01*
X237636Y234944D01*
X237334Y233426D01*
Y60960D01*
X237636Y59442D01*
X238496Y58155D01*
X256276Y40375D01*
X257562Y39516D01*
X259080Y39214D01*
X283972D01*
X285490Y39516D01*
X286777Y40375D01*
X291856Y45455D01*
X292716Y46742D01*
X293018Y48260D01*
Y104140D01*
X292716Y105658D01*
X291856Y106945D01*
X289317Y109485D01*
X288030Y110344D01*
X286650Y110619D01*
X286371Y111291D01*
X284906Y113202D01*
X282995Y114667D01*
X280771Y115589D01*
X278384Y115903D01*
X275746D01*
Y122857D01*
X278384D01*
X280771Y123171D01*
X282995Y124093D01*
X284906Y125558D01*
X286371Y127469D01*
X287293Y129693D01*
X287607Y132080D01*
X287293Y134467D01*
X286371Y136691D01*
X284906Y138602D01*
X282995Y140067D01*
X280771Y140989D01*
X278384Y141303D01*
X265176D01*
X262789Y140989D01*
X260565Y140067D01*
X259744Y139438D01*
X258474Y140064D01*
Y149496D01*
X259744Y150122D01*
X260565Y149493D01*
X262789Y148571D01*
X265176Y148257D01*
X278384D01*
X280771Y148571D01*
X282995Y149493D01*
X284906Y150958D01*
X286371Y152869D01*
X287293Y155093D01*
X287607Y157480D01*
X287293Y159867D01*
X286371Y162091D01*
X284906Y164002D01*
X282995Y165467D01*
X280771Y166389D01*
X278384Y166703D01*
X265176D01*
X262789Y166389D01*
X260565Y165467D01*
X259744Y164838D01*
X258474Y165464D01*
Y174896D01*
X259744Y175522D01*
X260565Y174893D01*
X262789Y173971D01*
X265176Y173657D01*
X270510D01*
Y182880D01*
X271780D01*
Y184150D01*
X287440D01*
X287293Y185267D01*
X286371Y187491D01*
X284906Y189402D01*
X284844Y190335D01*
X292873Y198363D01*
X293732Y199650D01*
X294034Y201168D01*
Y215392D01*
X293732Y216910D01*
X292873Y218197D01*
X284844Y226225D01*
X284906Y227158D01*
X286371Y229069D01*
X286639Y229714D01*
X298450D01*
X299968Y230016D01*
X301255Y230875D01*
X312684Y242306D01*
X313544Y243592D01*
X313846Y245110D01*
Y317127D01*
X324491Y327771D01*
X324714Y327642D01*
X327492Y326898D01*
X327660D01*
Y336550D01*
X318008D01*
Y336382D01*
X318752Y333604D01*
X318881Y333381D01*
X307076Y321575D01*
X306216Y320288D01*
X305914Y318770D01*
Y246753D01*
X296807Y237646D01*
X286639D01*
X286371Y238291D01*
X284906Y240202D01*
X283678Y241144D01*
X283906Y242130D01*
X284081Y242435D01*
X285490Y242716D01*
X286777Y243575D01*
X291856Y248655D01*
X292716Y249942D01*
X293018Y251460D01*
Y298450D01*
X292716Y299968D01*
X291856Y301255D01*
X272074Y321037D01*
X272560Y322210D01*
X284380D01*
Y334181D01*
X297444Y347246D01*
X298304Y348532D01*
X298606Y350050D01*
Y467106D01*
X298304Y468624D01*
X297444Y469911D01*
X271936Y495419D01*
Y502550D01*
X276860D01*
Y511340D01*
Y520130D01*
X271936D01*
Y599537D01*
X275377Y602978D01*
X276973Y602550D01*
X279287D01*
X281523Y603149D01*
X283527Y604306D01*
X285164Y605943D01*
X286321Y607947D01*
X286920Y610183D01*
Y612497D01*
X286321Y614733D01*
X285164Y616737D01*
X283527Y618374D01*
X281523Y619531D01*
X279287Y620130D01*
D02*
G37*
G36*
X411480Y696116D02*
X230670D01*
X229152Y695814D01*
X227866Y694955D01*
X153883Y620972D01*
X152287Y621400D01*
X149973D01*
X147737Y620801D01*
X145733Y619644D01*
X144096Y618007D01*
X142939Y616003D01*
X142340Y613767D01*
Y611453D01*
X142939Y609217D01*
X144096Y607213D01*
X145733Y605576D01*
X147737Y604419D01*
X149973Y603820D01*
X152287D01*
X154523Y604419D01*
X156527Y605576D01*
X158164Y607213D01*
X159321Y609217D01*
X159920Y611453D01*
Y613767D01*
X159492Y615363D01*
X232313Y688184D01*
X409837D01*
X422754Y675267D01*
Y590053D01*
X400725Y568024D01*
X399472Y568360D01*
X397289D01*
X395180Y567795D01*
X393290Y566704D01*
X391747Y565160D01*
X390655Y563270D01*
X390090Y561161D01*
Y558979D01*
X390655Y556870D01*
X391747Y554980D01*
X393290Y553436D01*
X394414Y552787D01*
Y510203D01*
X393290Y509554D01*
X391747Y508010D01*
X390655Y506120D01*
X390090Y504011D01*
Y501829D01*
X390122Y501712D01*
X388983Y501054D01*
X383696Y506341D01*
Y632860D01*
X383394Y634378D01*
X382534Y635664D01*
X356334Y661865D01*
X356670Y663119D01*
Y665301D01*
X356105Y667410D01*
X355013Y669300D01*
X353470Y670844D01*
X351580Y671935D01*
X349471Y672500D01*
X347288D01*
X345180Y671935D01*
X343290Y670844D01*
X341746Y669300D01*
X340655Y667410D01*
X340090Y665301D01*
Y663119D01*
X340655Y661010D01*
X341746Y659120D01*
X343290Y657576D01*
X345180Y656485D01*
X347288Y655920D01*
X349471D01*
X350725Y656256D01*
X375764Y631217D01*
Y504698D01*
X376066Y503180D01*
X376926Y501894D01*
X388355Y490463D01*
X389642Y489604D01*
X391160Y489302D01*
X424434D01*
X425952Y489604D01*
X427239Y490463D01*
X430979Y494203D01*
X432152Y493717D01*
Y376783D01*
X430659Y375922D01*
X429004Y374267D01*
X427834Y372239D01*
X427228Y369978D01*
Y367638D01*
X427834Y365377D01*
X429004Y363349D01*
X430659Y361694D01*
X432687Y360524D01*
X434948Y359918D01*
X437288D01*
X439549Y360524D01*
X441577Y361694D01*
X443232Y363349D01*
X444402Y365377D01*
X445008Y367638D01*
Y369978D01*
X444402Y372239D01*
X443232Y374267D01*
X441577Y375922D01*
X440084Y376783D01*
Y503309D01*
X445527Y508751D01*
X446386Y510038D01*
X446688Y511556D01*
Y611513D01*
X448410Y613235D01*
X449680Y612709D01*
Y611453D01*
X450279Y609217D01*
X451436Y607213D01*
X453073Y605576D01*
X455077Y604419D01*
X457313Y603820D01*
X459627D01*
X461223Y604248D01*
X464664Y600807D01*
Y521400D01*
X459740D01*
Y512610D01*
Y503820D01*
X464664D01*
Y486783D01*
X451856Y473974D01*
X450996Y472688D01*
X450694Y471170D01*
Y339890D01*
X450996Y338372D01*
X451856Y337086D01*
X456030Y332911D01*
Y320940D01*
X468001D01*
X496414Y292527D01*
Y244213D01*
X488273Y236072D01*
X488030Y236009D01*
X486651Y236246D01*
X485566Y237662D01*
X483655Y239127D01*
X481431Y240049D01*
X479044Y240363D01*
X465836D01*
X464735Y240218D01*
X464032Y241406D01*
X464413Y241926D01*
X489575Y242160D01*
X490315Y242314D01*
X491056Y242462D01*
X491072Y242472D01*
X491090Y242476D01*
X491714Y242902D01*
X492343Y243321D01*
X492353Y243337D01*
X492369Y243348D01*
X492783Y243980D01*
X493203Y244608D01*
X493206Y244627D01*
X493217Y244642D01*
X493357Y245387D01*
X493504Y246126D01*
Y267382D01*
X493203Y268899D01*
X492343Y270186D01*
X447304Y315224D01*
X446018Y316084D01*
X444500Y316386D01*
X415375D01*
X415308Y316636D01*
X413870Y319126D01*
X412862Y320134D01*
X412916Y320662D01*
X413201Y321591D01*
X414285Y322315D01*
X420381Y328411D01*
X421240Y329698D01*
X421542Y331216D01*
Y376174D01*
X421240Y377692D01*
X420381Y378979D01*
X415178Y384180D01*
X415308Y384404D01*
X416052Y387182D01*
Y390058D01*
X415308Y392836D01*
X413870Y395326D01*
X411836Y397360D01*
X409346Y398798D01*
X406568Y399542D01*
X403692D01*
X400914Y398798D01*
X398424Y397360D01*
X396390Y395326D01*
X394952Y392836D01*
X394208Y390058D01*
Y387182D01*
X394952Y384404D01*
X396390Y381914D01*
X398424Y379880D01*
X400914Y378442D01*
X403692Y377698D01*
X406568D01*
X409346Y378442D01*
X409570Y378572D01*
X413610Y374531D01*
Y371846D01*
X412436Y371359D01*
X411836Y371960D01*
X409346Y373398D01*
X406568Y374142D01*
X403692D01*
X400914Y373398D01*
X400690Y373269D01*
X372266Y401693D01*
Y590950D01*
X371964Y592468D01*
X371105Y593754D01*
X356334Y608525D01*
X356670Y609779D01*
Y611961D01*
X356105Y614070D01*
X355013Y615960D01*
X353470Y617504D01*
X351580Y618595D01*
X349471Y619160D01*
X347288D01*
X345180Y618595D01*
X343290Y617504D01*
X341746Y615960D01*
X340655Y614070D01*
X340090Y611961D01*
Y609779D01*
X340655Y607670D01*
X341746Y605780D01*
X343290Y604236D01*
X345180Y603145D01*
X347288Y602580D01*
X349471D01*
X350725Y602916D01*
X364334Y589307D01*
Y400050D01*
X364636Y398532D01*
X365495Y397245D01*
X395081Y367659D01*
X394952Y367436D01*
X394208Y364658D01*
Y361782D01*
X394952Y359004D01*
X396390Y356514D01*
X398424Y354480D01*
X400914Y353042D01*
X403692Y352298D01*
X406568D01*
X409346Y353042D01*
X411836Y354480D01*
X412436Y355080D01*
X413610Y354594D01*
Y346446D01*
X412436Y345960D01*
X411836Y346560D01*
X409346Y347998D01*
X406568Y348742D01*
X403692D01*
X400914Y347998D01*
X398424Y346560D01*
X396390Y344526D01*
X394952Y342036D01*
X394208Y339258D01*
Y336382D01*
X394952Y333604D01*
X396390Y331114D01*
X397831Y329673D01*
X397749Y328114D01*
X397719Y328071D01*
X397500Y327924D01*
X389879Y320304D01*
X389020Y319018D01*
X388718Y317500D01*
Y298196D01*
X389020Y296678D01*
X389879Y295392D01*
X431535Y253736D01*
X435708Y249563D01*
Y146871D01*
X434534Y146384D01*
X423175Y157745D01*
X421888Y158604D01*
X420370Y158906D01*
X411099D01*
X410831Y159551D01*
X409366Y161462D01*
X407455Y162927D01*
X405231Y163849D01*
X402844Y164163D01*
X389636D01*
X387249Y163849D01*
X385025Y162927D01*
X383114Y161462D01*
X381649Y159551D01*
X380727Y157327D01*
X380413Y154940D01*
X380727Y152553D01*
X381649Y150329D01*
X383114Y148418D01*
X385025Y146953D01*
X387249Y146031D01*
X389636Y145717D01*
X402844D01*
X405231Y146031D01*
X407455Y146953D01*
X409366Y148418D01*
X410831Y150329D01*
X411099Y150974D01*
X418727D01*
X430374Y139327D01*
Y80010D01*
X430676Y78492D01*
X431535Y77206D01*
X445505Y63236D01*
X446792Y62376D01*
X448310Y62074D01*
X460111D01*
X460542Y60804D01*
X459314Y59862D01*
X457849Y57951D01*
X456927Y55727D01*
X456613Y53340D01*
X456927Y50953D01*
X457849Y48729D01*
X459314Y46818D01*
X461225Y45353D01*
X463449Y44431D01*
X465836Y44117D01*
X479044D01*
X481431Y44431D01*
X483655Y45353D01*
X485566Y46818D01*
X487031Y48729D01*
X487953Y50953D01*
X488267Y53340D01*
X487953Y55727D01*
X487031Y57951D01*
X485566Y59862D01*
X484338Y60804D01*
X484769Y62074D01*
X485902D01*
X487420Y62376D01*
X488707Y63236D01*
X636257Y210786D01*
X637430Y210300D01*
Y209711D01*
X638217Y206776D01*
X639736Y204144D01*
X641884Y201996D01*
X644516Y200476D01*
X647451Y199690D01*
X650489D01*
X653424Y200476D01*
X656056Y201996D01*
X658204Y204144D01*
X659724Y206776D01*
X660510Y209711D01*
Y212749D01*
X659724Y215684D01*
X658204Y218316D01*
X656056Y220464D01*
X653424Y221984D01*
X650489Y222770D01*
X647451D01*
X644516Y221984D01*
X641884Y220464D01*
X641155Y219736D01*
X639982Y220222D01*
Y231633D01*
X644078Y235729D01*
X644516Y235477D01*
X647451Y234690D01*
X650489D01*
X653424Y235477D01*
X656056Y236996D01*
X658204Y239144D01*
X659724Y241776D01*
X660510Y244711D01*
Y247749D01*
X659724Y250684D01*
X658204Y253316D01*
X656056Y255464D01*
X653424Y256984D01*
X650489Y257770D01*
X647451D01*
X644516Y256984D01*
X641884Y255464D01*
X639736Y253316D01*
X638217Y250684D01*
X637430Y247749D01*
Y244711D01*
X638217Y241776D01*
X638469Y241338D01*
X633212Y236081D01*
X632352Y234794D01*
X632050Y233276D01*
Y217797D01*
X536513Y122260D01*
X535340Y122746D01*
Y123011D01*
X534775Y125120D01*
X533684Y127010D01*
X532140Y128554D01*
X530250Y129645D01*
X528141Y130210D01*
X525959D01*
X524705Y129874D01*
X522126Y132453D01*
Y160920D01*
X527050D01*
Y169710D01*
Y178500D01*
X524859D01*
X524372Y179673D01*
X531124Y186425D01*
X531984Y187712D01*
X532286Y189230D01*
Y261850D01*
X533717Y262676D01*
X535354Y264313D01*
X536511Y266317D01*
X537110Y268553D01*
Y270867D01*
X536511Y273103D01*
X535354Y275107D01*
X533717Y276744D01*
X532286Y277570D01*
Y293878D01*
X531984Y295396D01*
X531124Y296682D01*
X528476Y299331D01*
Y312280D01*
X528482Y312281D01*
X530828Y313636D01*
X532744Y315552D01*
X534099Y317898D01*
X534800Y320515D01*
Y323224D01*
X534099Y325842D01*
X532744Y328188D01*
X530828Y330104D01*
X528482Y331459D01*
X525865Y332160D01*
X523155D01*
X520538Y331459D01*
X518192Y330104D01*
X516276Y328188D01*
X514921Y325842D01*
X514506Y324293D01*
X513236Y324460D01*
Y385280D01*
X512934Y386798D01*
X512075Y388084D01*
X473182Y426977D01*
X473610Y428573D01*
Y430887D01*
X473011Y433123D01*
X471854Y435127D01*
X470217Y436764D01*
X468213Y437921D01*
X465977Y438520D01*
X463663D01*
X461427Y437921D01*
X459896Y437037D01*
X458626Y437653D01*
Y469527D01*
X471435Y482336D01*
X472294Y483622D01*
X472596Y485140D01*
Y602450D01*
X472294Y603968D01*
X471435Y605254D01*
X466832Y609857D01*
X467260Y611453D01*
Y613767D01*
X466661Y616003D01*
X465504Y618007D01*
X463867Y619644D01*
X461863Y620801D01*
X459627Y621400D01*
X458371D01*
X457845Y622670D01*
X458843Y623668D01*
X466225D01*
X498954Y590939D01*
Y520600D01*
X494130D01*
Y503020D01*
X511710D01*
Y520600D01*
X506886D01*
Y592582D01*
X506584Y594100D01*
X505724Y595387D01*
X498182Y602929D01*
X498962Y603945D01*
X499527Y603619D01*
X501763Y603020D01*
X504077D01*
X505673Y603447D01*
X520544Y588577D01*
Y426860D01*
X520538Y426859D01*
X518192Y425504D01*
X516276Y423588D01*
X514921Y421242D01*
X514220Y418625D01*
Y415915D01*
X514921Y413298D01*
X516276Y410952D01*
X518192Y409036D01*
X520538Y407681D01*
X523155Y406980D01*
X525865D01*
X528482Y407681D01*
X530828Y409036D01*
X532744Y410952D01*
X534099Y413298D01*
X534800Y415915D01*
Y418625D01*
X534099Y421242D01*
X532744Y423588D01*
X530828Y425504D01*
X528482Y426859D01*
X528476Y426860D01*
Y590220D01*
X528174Y591738D01*
X527314Y593024D01*
X511282Y609057D01*
X511710Y610653D01*
Y612967D01*
X511111Y615203D01*
X509954Y617207D01*
X508317Y618843D01*
X506313Y620001D01*
X504077Y620600D01*
X501763D01*
X499527Y620001D01*
X497523Y618843D01*
X495886Y617207D01*
X494729Y615203D01*
X494130Y612967D01*
Y610653D01*
X494729Y608417D01*
X495055Y607852D01*
X494039Y607072D01*
X470672Y630438D01*
X469386Y631298D01*
X467868Y631600D01*
X457200D01*
X455682Y631298D01*
X454395Y630438D01*
X439917Y615961D01*
X439058Y614674D01*
X438756Y613156D01*
Y513199D01*
X433313Y507757D01*
X422791Y497234D01*
X406136D01*
X405403Y498504D01*
X406105Y499720D01*
X406670Y501829D01*
Y504011D01*
X406105Y506120D01*
X405014Y508010D01*
X403470Y509554D01*
X402346Y510203D01*
Y552787D01*
X403470Y553436D01*
X405014Y554980D01*
X406105Y556870D01*
X406670Y558979D01*
Y561161D01*
X406334Y562415D01*
X429524Y585605D01*
X430384Y586892D01*
X430686Y588410D01*
Y676910D01*
X430384Y678428D01*
X429524Y679715D01*
X414285Y694955D01*
X412998Y695814D01*
X411480Y696116D01*
D02*
G37*
G36*
X296672Y635156D02*
X251790D01*
X250272Y634854D01*
X248986Y633994D01*
X235163Y620172D01*
X233567Y620600D01*
X231253D01*
X229017Y620001D01*
X227013Y618843D01*
X225376Y617207D01*
X224219Y615203D01*
X223620Y612967D01*
Y610653D01*
X224219Y608417D01*
X225376Y606413D01*
X227013Y604776D01*
X229017Y603619D01*
X231253Y603020D01*
X233567D01*
X235803Y603619D01*
X237807Y604776D01*
X239444Y606413D01*
X240601Y608417D01*
X241200Y610653D01*
Y612967D01*
X240772Y614563D01*
X253433Y627224D01*
X295029D01*
X353474Y568779D01*
X353391Y568216D01*
X352009Y567547D01*
X351580Y567795D01*
X349471Y568360D01*
X347288D01*
X345180Y567795D01*
X343290Y566704D01*
X341746Y565160D01*
X340655Y563270D01*
X340090Y561161D01*
Y558979D01*
X340426Y557725D01*
X313680Y530979D01*
X312820Y529692D01*
X312518Y528174D01*
Y375666D01*
X312820Y374148D01*
X313680Y372862D01*
X318881Y367659D01*
X318752Y367436D01*
X318008Y364658D01*
Y361782D01*
X318752Y359004D01*
X320190Y356514D01*
X322224Y354480D01*
X324714Y353042D01*
X327492Y352298D01*
X330368D01*
X333146Y353042D01*
X335636Y354480D01*
X337670Y356514D01*
X339108Y359004D01*
X339852Y361782D01*
Y364658D01*
X339108Y367436D01*
X337670Y369926D01*
X335636Y371960D01*
X333146Y373398D01*
X330368Y374142D01*
X327492D01*
X324714Y373398D01*
X324491Y373269D01*
X321331Y376428D01*
X321857Y377698D01*
X339852D01*
Y399542D01*
X332896D01*
Y481827D01*
X346035Y494966D01*
X347288Y494630D01*
X349471D01*
X351580Y495195D01*
X353470Y496286D01*
X355013Y497830D01*
X356105Y499720D01*
X356670Y501829D01*
Y504011D01*
X356334Y505265D01*
X360945Y509876D01*
X361804Y511162D01*
X362106Y512680D01*
Y569722D01*
X361804Y571240D01*
X360945Y572527D01*
X299477Y633994D01*
X298190Y634854D01*
X296672Y635156D01*
D02*
G37*
G36*
X199290Y521400D02*
X191770D01*
Y513880D01*
X199290D01*
Y521400D01*
D02*
G37*
G36*
X457200D02*
X449680D01*
Y513880D01*
X457200D01*
Y521400D01*
D02*
G37*
G36*
X546100Y520600D02*
X538580D01*
Y513080D01*
X546100D01*
Y520600D01*
D02*
G37*
G36*
X286920Y520130D02*
X279400D01*
Y512610D01*
X286920D01*
Y520130D01*
D02*
G37*
G36*
X457200Y511340D02*
X449680D01*
Y503820D01*
X457200D01*
Y511340D01*
D02*
G37*
G36*
X199290D02*
X191770D01*
Y503820D01*
X199290D01*
Y511340D01*
D02*
G37*
G36*
X189230D02*
X181710D01*
Y503820D01*
X189230D01*
Y511340D01*
D02*
G37*
G36*
X159920Y521400D02*
X142340D01*
Y503820D01*
X159920D01*
Y521400D01*
D02*
G37*
G36*
X598070Y520600D02*
X580490D01*
Y503020D01*
X598070D01*
Y520600D01*
D02*
G37*
G36*
X556160Y510540D02*
X548640D01*
Y503020D01*
X556160D01*
Y510540D01*
D02*
G37*
G36*
X546100D02*
X538580D01*
Y503020D01*
X546100D01*
Y510540D01*
D02*
G37*
G36*
X241200Y520600D02*
X223620D01*
Y503020D01*
X241200D01*
Y520600D01*
D02*
G37*
G36*
X82622Y444530D02*
X79938D01*
X77347Y443836D01*
X75023Y442494D01*
X73126Y440597D01*
X71784Y438273D01*
X71090Y435682D01*
Y432998D01*
X71784Y430407D01*
X73126Y428083D01*
X75023Y426186D01*
X77347Y424844D01*
X79938Y424150D01*
X82622D01*
X85213Y424844D01*
X87537Y426186D01*
X89434Y428083D01*
X90776Y430407D01*
X91470Y432998D01*
Y435682D01*
X90776Y438273D01*
X89434Y440597D01*
X87537Y442494D01*
X85213Y443836D01*
X82622Y444530D01*
D02*
G37*
G36*
X594860Y725670D02*
X576080D01*
Y706890D01*
X589251D01*
X608174Y687967D01*
Y466090D01*
X608476Y464572D01*
X609336Y463285D01*
X636925Y435696D01*
X636240Y433142D01*
Y430458D01*
X636925Y427904D01*
X601607Y392586D01*
X548995D01*
X548134Y394079D01*
X546479Y395734D01*
X544451Y396904D01*
X542190Y397510D01*
X539850D01*
X537589Y396904D01*
X535561Y395734D01*
X533906Y394079D01*
X532736Y392051D01*
X532130Y389790D01*
Y387450D01*
X532736Y385189D01*
X533906Y383161D01*
X535561Y381506D01*
X537589Y380336D01*
X539850Y379730D01*
X542190D01*
X544451Y380336D01*
X546479Y381506D01*
X548134Y383161D01*
X548995Y384654D01*
X603250D01*
X604768Y384956D01*
X606054Y385816D01*
X642534Y422295D01*
X645088Y421610D01*
X647772D01*
X650363Y422304D01*
X652687Y423646D01*
X654584Y425543D01*
X655926Y427867D01*
X656620Y430458D01*
Y433142D01*
X655926Y435733D01*
X654584Y438057D01*
X652687Y439954D01*
X650363Y441296D01*
X647772Y441990D01*
X645088D01*
X642534Y441305D01*
X616106Y467733D01*
Y689610D01*
X615804Y691128D01*
X614944Y692414D01*
X594860Y712499D01*
Y725670D01*
D02*
G37*
G36*
X203285Y421210D02*
X200575D01*
X197958Y420509D01*
X195612Y419154D01*
X193696Y417238D01*
X192341Y414892D01*
X191640Y412275D01*
Y409566D01*
X192341Y406948D01*
X193696Y404602D01*
X195612Y402686D01*
X197958Y401331D01*
X200575Y400630D01*
X203285D01*
X205902Y401331D01*
X208248Y402686D01*
X210164Y404602D01*
X211519Y406948D01*
X212220Y409566D01*
Y412275D01*
X211519Y414892D01*
X210164Y417238D01*
X208248Y419154D01*
X205902Y420509D01*
X203285Y421210D01*
D02*
G37*
G36*
X650489Y397770D02*
X647451D01*
X644516Y396984D01*
X641884Y395465D01*
X639736Y393316D01*
X638217Y390685D01*
X637430Y387750D01*
Y384711D01*
X638217Y381776D01*
X639736Y379145D01*
X641884Y376996D01*
X644516Y375477D01*
X647451Y374690D01*
X650489D01*
X653424Y375477D01*
X656056Y376996D01*
X658204Y379145D01*
X659724Y381776D01*
X660510Y384711D01*
Y387750D01*
X659724Y390685D01*
X658204Y393316D01*
X656056Y395465D01*
X653424Y396984D01*
X650489Y397770D01*
D02*
G37*
G36*
Y362770D02*
X647451D01*
X644516Y361984D01*
X641884Y360465D01*
X639736Y358316D01*
X638217Y355685D01*
X637430Y352749D01*
Y349711D01*
X638217Y346776D01*
X639736Y344145D01*
X641884Y341996D01*
X644516Y340477D01*
X647451Y339690D01*
X650489D01*
X653424Y340477D01*
X656056Y341996D01*
X658204Y344145D01*
X659724Y346776D01*
X660510Y349711D01*
Y352749D01*
X659724Y355685D01*
X658204Y358316D01*
X656056Y360465D01*
X653424Y361984D01*
X650489Y362770D01*
D02*
G37*
G36*
X330368Y348742D02*
X330200D01*
Y339090D01*
X339852D01*
Y339258D01*
X339108Y342036D01*
X337670Y344526D01*
X335636Y346560D01*
X333146Y347998D01*
X330368Y348742D01*
D02*
G37*
G36*
X286920Y510070D02*
X279400D01*
Y502550D01*
X281311D01*
X302104Y481757D01*
Y360680D01*
X302406Y359162D01*
X303265Y357876D01*
X318881Y342259D01*
X318752Y342036D01*
X318008Y339258D01*
Y339090D01*
X327660D01*
Y348742D01*
X327492D01*
X324714Y347998D01*
X324491Y347868D01*
X310036Y362323D01*
Y483400D01*
X309734Y484918D01*
X308874Y486205D01*
X286920Y508159D01*
Y510070D01*
D02*
G37*
G36*
X82799Y362060D02*
X79761D01*
X76826Y361273D01*
X74194Y359754D01*
X72046Y357606D01*
X70526Y354974D01*
X69740Y352039D01*
Y349001D01*
X70526Y346066D01*
X72046Y343434D01*
X74194Y341286D01*
X76826Y339767D01*
X79761Y338980D01*
X82799D01*
X85734Y339767D01*
X88366Y341286D01*
X90514Y343434D01*
X92034Y346066D01*
X92820Y349001D01*
Y352039D01*
X92034Y354974D01*
X90514Y357606D01*
X88366Y359754D01*
X85734Y361273D01*
X82799Y362060D01*
D02*
G37*
G36*
X339852Y336550D02*
X330200D01*
Y326898D01*
X330368D01*
X333146Y327642D01*
X335636Y329080D01*
X337670Y331114D01*
X339108Y333604D01*
X339852Y336382D01*
Y336550D01*
D02*
G37*
G36*
X650489Y327770D02*
X647451D01*
X644516Y326983D01*
X641884Y325464D01*
X639736Y323316D01*
X638217Y320684D01*
X637430Y317749D01*
Y314711D01*
X638217Y311776D01*
X639736Y309144D01*
X641884Y306996D01*
X644516Y305476D01*
X647451Y304690D01*
X650489D01*
X653424Y305476D01*
X656056Y306996D01*
X658204Y309144D01*
X659724Y311776D01*
X660510Y314711D01*
Y317749D01*
X659724Y320684D01*
X658204Y323316D01*
X656056Y325464D01*
X653424Y326983D01*
X650489Y327770D01*
D02*
G37*
G36*
X82799Y327060D02*
X79761D01*
X76826Y326273D01*
X74194Y324754D01*
X72046Y322606D01*
X70526Y319974D01*
X69740Y317039D01*
Y314000D01*
X70526Y311066D01*
X72046Y308434D01*
X74194Y306285D01*
X76826Y304766D01*
X79761Y303980D01*
X82799D01*
X85734Y304766D01*
X88366Y306285D01*
X90514Y308434D01*
X92034Y311066D01*
X92820Y314000D01*
Y317039D01*
X92034Y319974D01*
X90514Y322606D01*
X88366Y324754D01*
X85734Y326273D01*
X82799Y327060D01*
D02*
G37*
G36*
X330368Y323342D02*
X327492D01*
X324714Y322598D01*
X322224Y321160D01*
X320190Y319126D01*
X318752Y316636D01*
X318008Y313858D01*
Y310982D01*
X318752Y308204D01*
X320190Y305714D01*
X322224Y303680D01*
X324714Y302242D01*
X327492Y301498D01*
X330368D01*
X333146Y302242D01*
X335636Y303680D01*
X337670Y305714D01*
X339108Y308204D01*
X339852Y310982D01*
Y313858D01*
X339108Y316636D01*
X337670Y319126D01*
X335636Y321160D01*
X333146Y322598D01*
X330368Y323342D01*
D02*
G37*
G36*
X650489Y292770D02*
X647451D01*
X644516Y291984D01*
X641884Y290465D01*
X639736Y288316D01*
X638217Y285685D01*
X637430Y282750D01*
Y279711D01*
X638217Y276776D01*
X639736Y274145D01*
X641884Y271996D01*
X644516Y270477D01*
X647451Y269690D01*
X650489D01*
X653424Y270477D01*
X656056Y271996D01*
X658204Y274145D01*
X659724Y276776D01*
X660510Y279711D01*
Y282750D01*
X659724Y285685D01*
X658204Y288316D01*
X656056Y290465D01*
X653424Y291984D01*
X650489Y292770D01*
D02*
G37*
G36*
X203285Y325810D02*
X200575D01*
X197958Y325109D01*
X195612Y323754D01*
X193696Y321838D01*
X192341Y319492D01*
X191640Y316875D01*
Y314165D01*
X192341Y311548D01*
X193696Y309202D01*
X195612Y307286D01*
X197958Y305931D01*
X197964Y305930D01*
Y293878D01*
X198266Y292360D01*
X199125Y291073D01*
X199234Y290965D01*
Y278840D01*
X197803Y278014D01*
X196166Y276377D01*
X195009Y274373D01*
X194410Y272137D01*
Y269823D01*
X194838Y268227D01*
X190236Y263624D01*
X189376Y262338D01*
X189074Y260820D01*
Y134620D01*
X189376Y133102D01*
X190236Y131816D01*
X199056Y122995D01*
X198720Y121741D01*
Y119559D01*
X199285Y117450D01*
X200376Y115560D01*
X201920Y114016D01*
X203810Y112925D01*
X205919Y112360D01*
X208101D01*
X210210Y112925D01*
X212100Y114016D01*
X212442Y114358D01*
X213712Y113832D01*
Y82961D01*
X209355Y78604D01*
X208280Y78892D01*
Y71920D01*
X215252D01*
X214964Y72995D01*
X220483Y78514D01*
X221342Y79800D01*
X221644Y81318D01*
Y156502D01*
X221342Y158020D01*
X220483Y159307D01*
X211990Y167799D01*
Y169710D01*
X204470D01*
Y162190D01*
X206381D01*
X213712Y154859D01*
Y127468D01*
X212442Y126942D01*
X212100Y127284D01*
X210210Y128375D01*
X208101Y128940D01*
X205919D01*
X204665Y128604D01*
X197006Y136263D01*
Y162190D01*
X201930D01*
Y170980D01*
X203200D01*
D01*
X201930D01*
Y179770D01*
X197006D01*
Y259177D01*
X200447Y262618D01*
X202043Y262190D01*
X204357D01*
X206593Y262789D01*
X208597Y263946D01*
X210234Y265583D01*
X211391Y267587D01*
X211990Y269823D01*
Y272137D01*
X211391Y274373D01*
X210234Y276377D01*
X208597Y278014D01*
X207166Y278840D01*
Y292608D01*
X206864Y294126D01*
X206005Y295413D01*
X205896Y295521D01*
Y305930D01*
X205902Y305931D01*
X208248Y307286D01*
X210164Y309202D01*
X211519Y311548D01*
X212220Y314165D01*
Y316875D01*
X211519Y319492D01*
X210164Y321838D01*
X208248Y323754D01*
X205902Y325109D01*
X203285Y325810D01*
D02*
G37*
G36*
X354584Y268303D02*
X341376D01*
X338989Y267989D01*
X336765Y267067D01*
X334854Y265602D01*
X333389Y263691D01*
X332467Y261467D01*
X332153Y259080D01*
X332467Y256693D01*
X333389Y254469D01*
X334854Y252558D01*
X336765Y251093D01*
X338989Y250171D01*
X341376Y249857D01*
X354584D01*
X356971Y250171D01*
X359195Y251093D01*
X361106Y252558D01*
X362571Y254469D01*
X363493Y256693D01*
X363807Y259080D01*
X363493Y261467D01*
X362571Y263691D01*
X361106Y265602D01*
X359195Y267067D01*
X356971Y267989D01*
X354584Y268303D01*
D02*
G37*
G36*
X402844Y265763D02*
X389636D01*
X387249Y265449D01*
X385025Y264527D01*
X383114Y263062D01*
X381649Y261151D01*
X380727Y258927D01*
X380413Y256540D01*
X380727Y254153D01*
X381649Y251929D01*
X383114Y250018D01*
X385025Y248553D01*
X387249Y247631D01*
X389636Y247317D01*
X402844D01*
X405231Y247631D01*
X407455Y248553D01*
X409366Y250018D01*
X410831Y251929D01*
X411753Y254153D01*
X412067Y256540D01*
X411753Y258927D01*
X410831Y261151D01*
X409366Y263062D01*
X407455Y264527D01*
X405231Y265449D01*
X402844Y265763D01*
D02*
G37*
G36*
X354584Y242903D02*
X341376D01*
X338989Y242589D01*
X336765Y241667D01*
X334854Y240202D01*
X333389Y238291D01*
X332467Y236067D01*
X332153Y233680D01*
X332467Y231293D01*
X333389Y229069D01*
X334854Y227158D01*
X336765Y225693D01*
X338989Y224771D01*
X341376Y224457D01*
X354584D01*
X356971Y224771D01*
X359195Y225693D01*
X361106Y227158D01*
X362571Y229069D01*
X363493Y231293D01*
X363807Y233680D01*
X363493Y236067D01*
X362571Y238291D01*
X361106Y240202D01*
X359195Y241667D01*
X356971Y242589D01*
X354584Y242903D01*
D02*
G37*
G36*
X402844Y240363D02*
X389636D01*
X387249Y240049D01*
X385025Y239127D01*
X383114Y237662D01*
X381649Y235751D01*
X380727Y233527D01*
X380413Y231140D01*
X380727Y228753D01*
X381649Y226529D01*
X383114Y224618D01*
X385025Y223153D01*
X387249Y222231D01*
X389636Y221917D01*
X402844D01*
X405231Y222231D01*
X407455Y223153D01*
X409366Y224618D01*
X410831Y226529D01*
X411753Y228753D01*
X412067Y231140D01*
X411753Y233527D01*
X410831Y235751D01*
X409366Y237662D01*
X407455Y239127D01*
X405231Y240049D01*
X402844Y240363D01*
D02*
G37*
G36*
Y214963D02*
X389636D01*
X387249Y214649D01*
X385025Y213727D01*
X383114Y212262D01*
X381649Y210351D01*
X380727Y208127D01*
X380413Y205740D01*
X380727Y203353D01*
X381649Y201129D01*
X383114Y199218D01*
X385025Y197753D01*
X387249Y196831D01*
X389636Y196517D01*
X402844D01*
X405231Y196831D01*
X407455Y197753D01*
X409366Y199218D01*
X410831Y201129D01*
X411753Y203353D01*
X412067Y205740D01*
X411753Y208127D01*
X410831Y210351D01*
X409366Y212262D01*
X407455Y213727D01*
X405231Y214649D01*
X402844Y214963D01*
D02*
G37*
G36*
X287440Y181610D02*
X273050D01*
Y173657D01*
X278384D01*
X280771Y173971D01*
X282995Y174893D01*
X284906Y176358D01*
X286371Y178269D01*
X287293Y180493D01*
X287440Y181610D01*
D02*
G37*
G36*
X211990Y179770D02*
X204470D01*
Y172250D01*
X211990D01*
Y179770D01*
D02*
G37*
G36*
X402844Y189563D02*
X389636D01*
X387249Y189249D01*
X385025Y188327D01*
X383114Y186862D01*
X381649Y184951D01*
X380727Y182727D01*
X380413Y180340D01*
X380727Y177953D01*
X381649Y175729D01*
X383114Y173818D01*
X385025Y172353D01*
X387249Y171431D01*
X389636Y171117D01*
X402844D01*
X405231Y171431D01*
X407455Y172353D01*
X409366Y173818D01*
X410831Y175729D01*
X411753Y177953D01*
X412067Y180340D01*
X411753Y182727D01*
X410831Y184951D01*
X409366Y186862D01*
X407455Y188327D01*
X405231Y189249D01*
X402844Y189563D01*
D02*
G37*
G36*
X537110Y178500D02*
X529590D01*
Y170980D01*
X537110D01*
Y178500D01*
D02*
G37*
G36*
X650489Y187770D02*
X647451D01*
X644516Y186984D01*
X641884Y185465D01*
X639736Y183316D01*
X638217Y180685D01*
X637430Y177750D01*
Y174711D01*
X638217Y171776D01*
X639736Y169145D01*
X641884Y166996D01*
X644516Y165477D01*
X647451Y164690D01*
X650489D01*
X653424Y165477D01*
X656056Y166996D01*
X658204Y169145D01*
X659724Y171776D01*
X660510Y174711D01*
Y177750D01*
X659724Y180685D01*
X658204Y183316D01*
X656056Y185465D01*
X653424Y186984D01*
X650489Y187770D01*
D02*
G37*
G36*
X537110Y168440D02*
X529590D01*
Y160920D01*
X537110D01*
Y168440D01*
D02*
G37*
G36*
X354584Y166703D02*
X341376D01*
X338989Y166389D01*
X336765Y165467D01*
X334854Y164002D01*
X333389Y162091D01*
X332467Y159867D01*
X332153Y157480D01*
X332467Y155093D01*
X333389Y152869D01*
X334854Y150958D01*
X336765Y149493D01*
X338989Y148571D01*
X341376Y148257D01*
X354584D01*
X356971Y148571D01*
X359195Y149493D01*
X361106Y150958D01*
X362571Y152869D01*
X363493Y155093D01*
X363807Y157480D01*
X363493Y159867D01*
X362571Y162091D01*
X361106Y164002D01*
X359195Y165467D01*
X356971Y166389D01*
X354584Y166703D01*
D02*
G37*
G36*
X650489Y152770D02*
X647451D01*
X644516Y151984D01*
X641884Y150464D01*
X639736Y148316D01*
X638217Y145684D01*
X637430Y142749D01*
Y139711D01*
X638217Y136776D01*
X639736Y134144D01*
X641884Y131996D01*
X644516Y130477D01*
X647451Y129690D01*
X650489D01*
X653424Y130477D01*
X656056Y131996D01*
X658204Y134144D01*
X659724Y136776D01*
X660510Y139711D01*
Y142749D01*
X659724Y145684D01*
X658204Y148316D01*
X656056Y150464D01*
X653424Y151984D01*
X650489Y152770D01*
D02*
G37*
G36*
X354584Y141303D02*
X341376D01*
X338989Y140989D01*
X336765Y140067D01*
X334854Y138602D01*
X333389Y136691D01*
X332467Y134467D01*
X332153Y132080D01*
X332467Y129693D01*
X333389Y127469D01*
X334854Y125558D01*
X336765Y124093D01*
X338989Y123171D01*
X341376Y122857D01*
X354584D01*
X356971Y123171D01*
X359195Y124093D01*
X361106Y125558D01*
X362571Y127469D01*
X363493Y129693D01*
X363807Y132080D01*
X363493Y134467D01*
X362571Y136691D01*
X361106Y138602D01*
X359195Y140067D01*
X356971Y140989D01*
X354584Y141303D01*
D02*
G37*
G36*
X402844Y138763D02*
X389636D01*
X387249Y138449D01*
X385025Y137527D01*
X383114Y136062D01*
X381649Y134151D01*
X380727Y131927D01*
X380413Y129540D01*
X380727Y127153D01*
X381649Y124929D01*
X383114Y123018D01*
X385025Y121553D01*
X387249Y120631D01*
X389636Y120317D01*
X402844D01*
X405231Y120631D01*
X407455Y121553D01*
X409366Y123018D01*
X410831Y124929D01*
X411753Y127153D01*
X412067Y129540D01*
X411753Y131927D01*
X410831Y134151D01*
X409366Y136062D01*
X407455Y137527D01*
X405231Y138449D01*
X402844Y138763D01*
D02*
G37*
G36*
X354584Y115903D02*
X341376D01*
X338989Y115589D01*
X336765Y114667D01*
X334854Y113202D01*
X333389Y111291D01*
X332467Y109067D01*
X332153Y106680D01*
X332467Y104293D01*
X333389Y102069D01*
X334854Y100158D01*
X336765Y98693D01*
X338989Y97771D01*
X341376Y97457D01*
X354584D01*
X356971Y97771D01*
X359195Y98693D01*
X361106Y100158D01*
X362571Y102069D01*
X363493Y104293D01*
X363807Y106680D01*
X363493Y109067D01*
X362571Y111291D01*
X361106Y113202D01*
X359195Y114667D01*
X356971Y115589D01*
X354584Y115903D01*
D02*
G37*
G36*
X402844Y113363D02*
X389636D01*
X387249Y113049D01*
X385025Y112127D01*
X383114Y110662D01*
X381649Y108751D01*
X380727Y106527D01*
X380413Y104140D01*
X380727Y101753D01*
X381649Y99529D01*
X383114Y97618D01*
X385025Y96153D01*
X387249Y95231D01*
X389636Y94917D01*
X402844D01*
X405231Y95231D01*
X407455Y96153D01*
X409366Y97618D01*
X410831Y99529D01*
X411753Y101753D01*
X412067Y104140D01*
X411753Y106527D01*
X410831Y108751D01*
X409366Y110662D01*
X407455Y112127D01*
X405231Y113049D01*
X402844Y113363D01*
D02*
G37*
G36*
X650489Y117770D02*
X647451D01*
X644516Y116983D01*
X641884Y115464D01*
X639736Y113316D01*
X638217Y110684D01*
X637430Y107749D01*
Y104711D01*
X638217Y101776D01*
X639736Y99144D01*
X641884Y96996D01*
X644516Y95476D01*
X647451Y94690D01*
X650489D01*
X653424Y95476D01*
X656056Y96996D01*
X658204Y99144D01*
X659724Y101776D01*
X660510Y104711D01*
Y107749D01*
X659724Y110684D01*
X658204Y113316D01*
X656056Y115464D01*
X653424Y116983D01*
X650489Y117770D01*
D02*
G37*
G36*
X528320Y80162D02*
Y73190D01*
X535292D01*
X534775Y75120D01*
X533684Y77010D01*
X532140Y78554D01*
X530250Y79645D01*
X528320Y80162D01*
D02*
G37*
G36*
X525780D02*
X523850Y79645D01*
X521960Y78554D01*
X520416Y77010D01*
X519325Y75120D01*
X518808Y73190D01*
X525780D01*
Y80162D01*
D02*
G37*
G36*
X354584Y90503D02*
X341376D01*
X338989Y90189D01*
X336765Y89267D01*
X334854Y87802D01*
X333389Y85891D01*
X332467Y83667D01*
X332153Y81280D01*
X332467Y78893D01*
X333389Y76669D01*
X334854Y74758D01*
X336765Y73293D01*
X338989Y72371D01*
X341376Y72057D01*
X354584D01*
X356971Y72371D01*
X359195Y73293D01*
X361106Y74758D01*
X362571Y76669D01*
X363493Y78893D01*
X363807Y81280D01*
X363493Y83667D01*
X362571Y85891D01*
X361106Y87802D01*
X359195Y89267D01*
X356971Y90189D01*
X354584Y90503D01*
D02*
G37*
G36*
X205740Y78892D02*
X203810Y78375D01*
X201920Y77284D01*
X200376Y75740D01*
X199285Y73850D01*
X198768Y71920D01*
X205740D01*
Y78892D01*
D02*
G37*
G36*
X402844Y87963D02*
X389636D01*
X387249Y87649D01*
X385025Y86727D01*
X383114Y85262D01*
X381649Y83351D01*
X380727Y81127D01*
X380413Y78740D01*
X380727Y76353D01*
X381649Y74129D01*
X383114Y72218D01*
X385025Y70753D01*
X387249Y69831D01*
X389636Y69517D01*
X402844D01*
X405231Y69831D01*
X407455Y70753D01*
X409366Y72218D01*
X410831Y74129D01*
X411753Y76353D01*
X412067Y78740D01*
X411753Y81127D01*
X410831Y83351D01*
X409366Y85262D01*
X407455Y86727D01*
X405231Y87649D01*
X402844Y87963D01*
D02*
G37*
G36*
X535292Y70650D02*
X528320D01*
Y63678D01*
X530250Y64195D01*
X532140Y65286D01*
X533684Y66830D01*
X534775Y68720D01*
X535292Y70650D01*
D02*
G37*
G36*
X525780D02*
X518808D01*
X519325Y68720D01*
X520416Y66830D01*
X521960Y65286D01*
X523850Y64195D01*
X525780Y63678D01*
Y70650D01*
D02*
G37*
G36*
X215252Y69380D02*
X208280D01*
Y62408D01*
X210210Y62925D01*
X212100Y64016D01*
X213644Y65560D01*
X214735Y67450D01*
X215252Y69380D01*
D02*
G37*
G36*
X205740D02*
X198768D01*
X199285Y67450D01*
X200376Y65560D01*
X201920Y64016D01*
X203810Y62925D01*
X205740Y62408D01*
Y69380D01*
D02*
G37*
G36*
X660510Y82770D02*
X637430D01*
Y59690D01*
X660510D01*
Y82770D01*
D02*
G37*
G36*
X354584Y65103D02*
X341376D01*
X338989Y64789D01*
X336765Y63867D01*
X334854Y62402D01*
X333389Y60491D01*
X332467Y58267D01*
X332153Y55880D01*
X332467Y53493D01*
X333389Y51269D01*
X334854Y49358D01*
X336765Y47893D01*
X338989Y46971D01*
X341376Y46657D01*
X354584D01*
X356971Y46971D01*
X359195Y47893D01*
X361106Y49358D01*
X362571Y51269D01*
X363493Y53493D01*
X363807Y55880D01*
X363493Y58267D01*
X362571Y60491D01*
X361106Y62402D01*
X359195Y63867D01*
X356971Y64789D01*
X354584Y65103D01*
D02*
G37*
G36*
X402844Y62563D02*
X389636D01*
X387249Y62249D01*
X385025Y61327D01*
X383114Y59862D01*
X381649Y57951D01*
X380727Y55727D01*
X380413Y53340D01*
X380727Y50953D01*
X381649Y48729D01*
X383114Y46818D01*
X385025Y45353D01*
X387249Y44431D01*
X389636Y44117D01*
X402844D01*
X405231Y44431D01*
X407455Y45353D01*
X409366Y46818D01*
X410831Y48729D01*
X411753Y50953D01*
X412067Y53340D01*
X411753Y55727D01*
X410831Y57951D01*
X409366Y59862D01*
X407455Y61327D01*
X405231Y62249D01*
X402844Y62563D01*
D02*
G37*
%LPD*%
G36*
X259882Y241144D02*
X258654Y240202D01*
X257189Y238291D01*
X256267Y236067D01*
X256120Y234950D01*
X271780D01*
Y233680D01*
X273050D01*
Y224457D01*
X275394D01*
X281653Y218198D01*
X280934Y217121D01*
X280771Y217189D01*
X278384Y217503D01*
X265176D01*
X262789Y217189D01*
X260565Y216267D01*
X258654Y214802D01*
X257189Y212891D01*
X256910Y212219D01*
X255530Y211944D01*
X254244Y211084D01*
X251703Y208545D01*
X250844Y207258D01*
X250542Y205740D01*
Y59123D01*
X249272Y58597D01*
X245266Y62603D01*
Y231783D01*
X255897Y242414D01*
X259451D01*
X259882Y241144D01*
D02*
G37*
%LPC*%
G36*
X270510Y232410D02*
X256120D01*
X256267Y231293D01*
X257189Y229069D01*
X258654Y227158D01*
X260565Y225693D01*
X262789Y224771D01*
X265176Y224457D01*
X270510D01*
Y232410D01*
D02*
G37*
%LPD*%
G36*
X406400Y301498D02*
X406568D01*
X409346Y302242D01*
X411836Y303680D01*
X413870Y305714D01*
X415308Y308204D01*
X415375Y308454D01*
X442857D01*
X485484Y265828D01*
X485364Y264555D01*
X484302Y264031D01*
X483655Y264527D01*
X481431Y265449D01*
X479044Y265763D01*
X465836D01*
X463449Y265449D01*
X461225Y264527D01*
X459314Y263062D01*
X457849Y261151D01*
X457581Y260506D01*
X435983D01*
X396650Y299839D01*
Y303794D01*
X397823Y304280D01*
X398424Y303680D01*
X400914Y302242D01*
X403692Y301498D01*
X403860D01*
Y312420D01*
X406400D01*
Y301498D01*
D02*
G37*
G36*
X457849Y251929D02*
X459275Y250070D01*
X459317Y249995D01*
X459379Y249480D01*
X459259Y248460D01*
X452537Y241738D01*
X451678Y240452D01*
X451376Y238934D01*
Y135970D01*
X451678Y134452D01*
X452537Y133166D01*
X456681Y129022D01*
X456927Y127153D01*
X457849Y124929D01*
X459314Y123018D01*
X461225Y121553D01*
X463449Y120631D01*
X465836Y120317D01*
X471170D01*
Y129540D01*
Y138763D01*
X465836D01*
X463449Y138449D01*
X461225Y137527D01*
X460189Y136732D01*
X459308Y137613D01*
Y146823D01*
X460578Y147449D01*
X461225Y146953D01*
X463449Y146031D01*
X465836Y145717D01*
X479044D01*
X481431Y146031D01*
X483655Y146953D01*
X485566Y148418D01*
X487031Y150329D01*
X487299Y150974D01*
X494030D01*
X495548Y151276D01*
X496834Y152135D01*
X513021Y168321D01*
X514194Y167835D01*
Y130810D01*
X514496Y129292D01*
X515355Y128006D01*
X519096Y124265D01*
X518760Y123011D01*
Y120829D01*
X519325Y118720D01*
X520416Y116830D01*
X521960Y115286D01*
X523850Y114195D01*
X525959Y113630D01*
X526224D01*
X526710Y112457D01*
X488423Y74170D01*
X487346Y74890D01*
X487953Y76353D01*
X488100Y77470D01*
X472440D01*
X456780D01*
X456927Y76353D01*
X457849Y74129D01*
X459314Y72218D01*
X460542Y71276D01*
X460111Y70006D01*
X449953D01*
X438306Y81653D01*
Y109415D01*
X439479Y109902D01*
X448046Y101335D01*
X449332Y100476D01*
X450850Y100174D01*
X457581D01*
X457849Y99529D01*
X459314Y97618D01*
X461225Y96153D01*
X463449Y95231D01*
X465836Y94917D01*
X479044D01*
X481431Y95231D01*
X481594Y95299D01*
X482313Y94222D01*
X476054Y87963D01*
X473710D01*
Y80010D01*
X488100D01*
X487953Y81127D01*
X487031Y83351D01*
X485566Y85262D01*
X485504Y86195D01*
X493532Y94223D01*
X494392Y95510D01*
X494694Y97028D01*
Y111252D01*
X494392Y112770D01*
X493532Y114057D01*
X485504Y122085D01*
X485566Y123018D01*
X487031Y124929D01*
X487953Y127153D01*
X488100Y128270D01*
X473710D01*
Y120317D01*
X476054D01*
X482313Y114058D01*
X481594Y112981D01*
X481431Y113049D01*
X479044Y113363D01*
X465836D01*
X463449Y113049D01*
X461225Y112127D01*
X459314Y110662D01*
X457849Y108751D01*
X457581Y108106D01*
X452493D01*
X443640Y116959D01*
Y251206D01*
X443563Y251592D01*
X444369Y252574D01*
X457581D01*
X457849Y251929D01*
D02*
G37*
%LPC*%
G36*
X479044Y138763D02*
X473710D01*
Y130810D01*
X488100D01*
X487953Y131927D01*
X487031Y134151D01*
X485566Y136062D01*
X483655Y137527D01*
X481431Y138449D01*
X479044Y138763D01*
D02*
G37*
G36*
X471170Y87963D02*
X465836D01*
X463449Y87649D01*
X461225Y86727D01*
X459314Y85262D01*
X457849Y83351D01*
X456927Y81127D01*
X456780Y80010D01*
X471170D01*
Y87963D01*
D02*
G37*
%LPD*%
D13*
X237490Y736595D02*
Y721360D01*
X247647D01*
X262882Y736595D02*
X252725D01*
Y721360D01*
X262882D01*
X252725Y728978D02*
X257803D01*
X267960Y736595D02*
Y721360D01*
X275578D01*
X278117Y723899D01*
Y734056D01*
X275578Y736595D01*
X267960D01*
X298430D02*
Y721360D01*
X306048D01*
X308587Y723899D01*
Y734056D01*
X306048Y736595D01*
X298430D01*
X313665Y731517D02*
Y721360D01*
Y726438D01*
X316204Y728978D01*
X318744Y731517D01*
X321283D01*
X328900Y721360D02*
X333979D01*
X331440D01*
Y731517D01*
X328900D01*
X341596D02*
X346675Y721360D01*
X351753Y731517D01*
X364449Y721360D02*
X359371D01*
X356831Y723899D01*
Y728978D01*
X359371Y731517D01*
X364449D01*
X366988Y728978D01*
Y726438D01*
X356831D01*
X372066Y731517D02*
Y721360D01*
Y726438D01*
X374606Y728978D01*
X377145Y731517D01*
X379684D01*
X412693Y721360D02*
X410154Y723899D01*
X407615Y721360D01*
X405076D01*
X402537Y723899D01*
Y726438D01*
X405076Y728978D01*
X402537Y731517D01*
Y734056D01*
X405076Y736595D01*
X407615D01*
X410154Y734056D01*
Y731517D01*
X407615Y728978D01*
X410154Y726438D01*
Y723899D01*
X412693Y728978D02*
X410154Y726438D01*
X405076Y728978D02*
X407615D01*
X443163Y736595D02*
X433007D01*
Y728978D01*
X438085D01*
X433007D01*
Y721360D01*
X448242D02*
X453320D01*
X450781D01*
Y731517D01*
X448242D01*
X460938Y721360D02*
X466016D01*
X463477D01*
Y736595D01*
X460938D01*
X476173Y734056D02*
Y731517D01*
X473634D01*
X478712D01*
X476173D01*
Y723899D01*
X478712Y721360D01*
X493947D02*
X488869D01*
X486329Y723899D01*
Y728978D01*
X488869Y731517D01*
X493947D01*
X496486Y728978D01*
Y726438D01*
X486329D01*
X501565Y731517D02*
Y721360D01*
Y726438D01*
X504104Y728978D01*
X506643Y731517D01*
X509182D01*
D17*
X232410Y511810D02*
D03*
X203200Y170980D02*
D03*
X528320Y169710D02*
D03*
X589280Y511810D02*
D03*
X464820Y329730D02*
D03*
X458470Y512610D02*
D03*
X275590Y331000D02*
D03*
X278130Y511340D02*
D03*
X502920Y511810D02*
D03*
X547370D02*
D03*
X190500Y512610D02*
D03*
X151130D02*
D03*
D18*
X232410Y611810D02*
D03*
X203200Y270980D02*
D03*
X528320Y269710D02*
D03*
X589280Y611810D02*
D03*
X464820Y429730D02*
D03*
X458470Y612610D02*
D03*
X275590Y431000D02*
D03*
X278130Y611340D02*
D03*
X502920Y611810D02*
D03*
X547370D02*
D03*
X190500Y612610D02*
D03*
X151130D02*
D03*
D29*
X81280Y385520D02*
X222048D01*
X238252Y369316D01*
X120650Y643890D02*
X194310Y717550D01*
X91440Y706628D02*
X190500D01*
X194310Y710438D02*
Y717550D01*
X190500Y706628D02*
X194310Y710438D01*
X398380Y560070D02*
X426720Y588410D01*
X411480Y692150D02*
X426720Y676910D01*
Y588410D02*
Y676910D01*
X230670Y692150D02*
X411480D01*
X151130Y612610D02*
X230670Y692150D01*
X120650Y582460D02*
X190500Y512610D01*
X120650Y582460D02*
Y643890D01*
X500380Y242570D02*
Y294170D01*
X464820Y329730D02*
X500380Y294170D01*
X488950Y231140D02*
X500380Y242570D01*
X509270Y223520D02*
Y385280D01*
X464820Y429730D02*
X509270Y385280D01*
X491490Y205740D02*
X509270Y223520D01*
X98558Y296412D02*
X105410Y289560D01*
Y269650D02*
Y289560D01*
X81280Y245520D02*
X105410Y269650D01*
X66542Y296412D02*
X98558D01*
X54610Y284480D02*
X66542Y296412D01*
X54610Y40640D02*
Y284480D01*
Y40640D02*
X77470Y17780D01*
X322580Y35560D02*
Y178816D01*
X326644Y182880D01*
X304800Y17780D02*
X322580Y35560D01*
X77470Y17780D02*
X304800D01*
X68326Y49530D02*
X88646Y29210D01*
X285750D01*
X309880Y53340D01*
X434340Y256540D02*
X439674Y251206D01*
X392684Y298196D02*
X434340Y256540D01*
X436118Y504952D02*
X442722Y511556D01*
X424434Y493268D02*
X436118Y504952D01*
X518160Y179070D02*
X528320Y189230D01*
X494030Y154940D02*
X518160Y179070D01*
X326644Y182880D02*
X347980D01*
X396240Y154940D02*
X420370D01*
X434340Y140970D01*
Y80010D02*
Y140970D01*
Y80010D02*
X448310Y66040D01*
X485902D01*
X636016Y216154D01*
Y233276D01*
X648970Y246230D01*
X271780Y233680D02*
X298450D01*
X309880Y245110D01*
Y318770D01*
X328930Y337820D01*
X472440Y205740D02*
X491490D01*
X472440Y231140D02*
X488950D01*
X450850Y104140D02*
X472440D01*
X439674Y115316D02*
X450850Y104140D01*
X439674Y115316D02*
Y251206D01*
X392684Y317500D02*
X400304Y325120D01*
X417576Y331216D02*
Y376174D01*
X585470Y716280D02*
X612140Y689610D01*
Y466090D02*
Y689610D01*
Y466090D02*
X646430Y431800D01*
X436118Y368808D02*
Y504952D01*
X442722Y613156D02*
X457200Y627634D01*
X467868D01*
X502920Y592582D01*
Y511810D02*
Y592582D01*
X518160Y130810D02*
X527050Y121920D01*
X518160Y130810D02*
Y179070D01*
X472440Y154940D02*
X494030D01*
X528320Y189230D02*
Y269710D01*
X238252Y273558D02*
Y369316D01*
Y273558D02*
X252730Y259080D01*
X271780D01*
X68326Y267566D02*
X81280Y280520D01*
X68326Y49530D02*
Y267566D01*
X309880Y53340D02*
Y195580D01*
X322580Y208280D01*
X347980D01*
X207010Y70650D02*
X217678Y81318D01*
Y156502D01*
X203200Y170980D02*
X217678Y156502D01*
X271780Y182880D02*
X290068Y201168D01*
Y215392D01*
X271780Y233680D02*
X290068Y215392D01*
X306070Y360680D02*
X328930Y337820D01*
X306070Y360680D02*
Y483400D01*
X278130Y511340D02*
X306070Y483400D01*
X405130Y312420D02*
X444500D01*
X489538Y267382D01*
Y246126D02*
Y267382D01*
X462280Y245872D02*
X489538Y246126D01*
X455342Y238934D02*
X462280Y245872D01*
X455342Y135970D02*
Y238934D01*
Y135970D02*
X461772Y129540D01*
X472440D01*
X547370Y511810D02*
X560070Y524510D01*
Y716280D01*
X472440Y129540D02*
X490728Y111252D01*
Y97028D02*
Y111252D01*
X472440Y78740D02*
X490728Y97028D01*
X271780Y106680D02*
Y132080D01*
Y106680D02*
X286512D01*
X289052Y104140D01*
Y48260D02*
Y104140D01*
X283972Y43180D02*
X289052Y48260D01*
X259080Y43180D02*
X283972D01*
X241300Y60960D02*
X259080Y43180D01*
X241300Y60960D02*
Y233426D01*
X254254Y246380D01*
X283972D01*
X289052Y251460D01*
Y298450D01*
X255270Y332232D02*
X289052Y298450D01*
X255270Y332232D02*
Y410680D01*
X275590Y431000D01*
Y331000D02*
X294640Y350050D01*
Y467106D01*
X267970Y493776D02*
X294640Y467106D01*
X267970Y493776D02*
Y601180D01*
X278130Y611340D01*
X472440Y180340D02*
Y205740D01*
X454660Y339890D02*
X464820Y329730D01*
X454660Y339890D02*
Y471170D01*
X468630Y485140D01*
Y602450D01*
X458470Y612610D02*
X468630Y602450D01*
X328930Y388620D02*
Y483470D01*
X348380Y502920D01*
X358140Y512680D01*
Y569722D01*
X296672Y631190D02*
X358140Y569722D01*
X251790Y631190D02*
X296672D01*
X232410Y611810D02*
X251790Y631190D01*
X368300Y400050D02*
X405130Y363220D01*
X368300Y400050D02*
Y590950D01*
X348380Y610870D02*
X368300Y590950D01*
X502920Y611810D02*
X524510Y590220D01*
Y417270D02*
Y590220D01*
X257048Y55880D02*
X271780D01*
X254508Y58420D02*
X257048Y55880D01*
X254508Y58420D02*
Y205740D01*
X257048Y208280D01*
X271780D01*
X434340Y256540D02*
X472440D01*
X392684Y298196D02*
Y317500D01*
X400304Y325120D02*
X411480D01*
X417576Y331216D01*
X405130Y388620D02*
X417576Y376174D01*
X541020Y388620D02*
X603250D01*
X646430Y431800D01*
X398380Y502920D02*
Y560070D01*
X316484Y528174D02*
X348380Y560070D01*
X316484Y375666D02*
Y528174D01*
Y375666D02*
X328930Y363220D01*
X398380Y610870D02*
Y664210D01*
X348380D02*
X379730Y632860D01*
Y504698D02*
Y632860D01*
Y504698D02*
X391160Y493268D01*
X424434D01*
X442722Y511556D02*
Y613156D01*
X193040Y260820D02*
X203200Y270980D01*
X193040Y134620D02*
Y260820D01*
Y134620D02*
X207010Y120650D01*
X203200Y270980D02*
Y292608D01*
X201930Y293878D02*
X203200Y292608D01*
X201930Y293878D02*
Y315520D01*
X528320Y269710D02*
Y293878D01*
X524510Y297688D02*
X528320Y293878D01*
X524510Y297688D02*
Y321870D01*
D30*
X81280Y385520D02*
D03*
X648970Y71230D02*
D03*
D31*
X81280Y350520D02*
D03*
Y315520D02*
D03*
Y280520D02*
D03*
Y245520D02*
D03*
Y210520D02*
D03*
Y175520D02*
D03*
Y140520D02*
D03*
Y105520D02*
D03*
Y70520D02*
D03*
X648970Y106230D02*
D03*
Y141230D02*
D03*
Y176230D02*
D03*
Y211230D02*
D03*
Y246230D02*
D03*
Y281230D02*
D03*
Y316230D02*
D03*
Y351230D02*
D03*
Y386230D02*
D03*
D32*
X702310Y30480D02*
D03*
X29591Y705104D02*
D03*
D33*
X201930Y315520D02*
D03*
Y410920D02*
D03*
X524510Y321870D02*
D03*
Y417270D02*
D03*
D34*
X207010Y70650D02*
D03*
Y120650D02*
D03*
X527050Y71920D02*
D03*
Y121920D02*
D03*
X348380Y502920D02*
D03*
X398380D02*
D03*
X348380Y560070D02*
D03*
X398380D02*
D03*
Y610870D02*
D03*
X348380D02*
D03*
X398380Y664210D02*
D03*
X348380D02*
D03*
D35*
X472440Y53340D02*
D03*
Y78740D02*
D03*
Y205740D02*
D03*
Y231140D02*
D03*
Y104140D02*
D03*
Y129540D02*
D03*
Y180340D02*
D03*
Y154940D02*
D03*
Y256540D02*
D03*
X396240D02*
D03*
Y231140D02*
D03*
Y205740D02*
D03*
Y180340D02*
D03*
Y154940D02*
D03*
Y129540D02*
D03*
Y104140D02*
D03*
Y78740D02*
D03*
Y53340D02*
D03*
X347980Y259080D02*
D03*
Y233680D02*
D03*
Y208280D02*
D03*
Y182880D02*
D03*
Y157480D02*
D03*
Y132080D02*
D03*
Y106680D02*
D03*
Y81280D02*
D03*
Y55880D02*
D03*
X271780D02*
D03*
Y157480D02*
D03*
Y132080D02*
D03*
Y182880D02*
D03*
Y208280D02*
D03*
Y81280D02*
D03*
Y106680D02*
D03*
Y233680D02*
D03*
Y259080D02*
D03*
D36*
X194310Y717550D02*
D03*
X534670Y716280D02*
D03*
X560070D02*
D03*
D37*
X168910Y717550D02*
D03*
D38*
X585470Y716280D02*
D03*
D39*
X646430Y431800D02*
D03*
X81280Y434340D02*
D03*
D40*
X405130Y388620D02*
D03*
Y363220D02*
D03*
Y337820D02*
D03*
Y312420D02*
D03*
X328930D02*
D03*
Y337820D02*
D03*
Y363220D02*
D03*
D41*
Y388620D02*
D03*
D42*
X91440Y706628D02*
D03*
X436118Y368808D02*
D03*
X541020Y388620D02*
D03*
M02*
