M48
;Layer_Color=9474304
;FILE_FORMAT=4:4
METRIC,LZ
;TYPE=PLATED
T01F00S00C0.7112
T02F00S00C0.7500
T03F00S00C0.8000
T04F00S00C0.8128
T05F00S00C1.0200
T06F00S00C1.0500
T07F00S00C1.1176
T08F00S00C1.2000
T09F00S00C4.1000
%
T01
X00436118Y00368808
X0054102Y0038862
X0009144Y00706628
T02
X002032Y0017098
Y0027098
X0027559Y00331
X0046482Y0032973
X0052832Y0026971
Y0016971
X0046482Y0042973
X0045847Y0051261
X0050292Y0051181
X0054737
X0058928
Y0061181
X0054737
X0050292
X0045847Y0061261
X0027813Y0061134
X0023241Y0061181
X001905Y0061261
X0015113
Y0051261
X001905
X0023241Y0051181
X0027813Y0051134
X0027559Y00431
T03
X0020701Y0007065
Y0012065
X0052705Y0012192
Y0007192
X0039838Y0050292
Y0056007
Y0061087
Y0066421
X0034838
Y0061087
Y0056007
Y0050292
T04
X0027178Y0005588
Y0008128
Y0010668
Y0013208
Y0015748
Y0018288
Y0020828
Y0023368
Y0025908
X0034798
Y0023368
Y0020828
Y0018288
Y0015748
Y0013208
Y0010668
Y0008128
Y0005588
X0039624Y0005334
Y0007874
Y0010414
Y0012954
Y0015494
Y0018034
Y0020574
Y0023114
Y0025654
X0047244
Y0023114
Y0020574
Y0018034
Y0015494
Y0012954
Y0010414
Y0007874
Y0005334
T05
X0064643Y004318
X0058547Y0071628
X0056007
X0053467
X0019431Y0071755
X0016891
X0008128Y0043434
T06
X0020193Y0031552
X0052451Y0032187
Y0041727
X0020193Y0041092
T07
X0032893Y0031242
Y0033782
Y0036322
Y0038862
X0040513
Y0036322
Y0033782
Y0031242
T08
X0008128Y0007052
Y0010552
Y0014052
Y0017552
Y0021052
Y0024552
Y0028052
Y0031552
Y0035052
Y0038552
X0064897Y0038623
Y0035123
Y0031623
Y0028123
Y0024623
Y0021123
Y0017623
Y0014123
Y0010623
Y0007123
T09
X0070231Y0003048
X00029591Y00705104
M30
