G04*
G04 #@! TF.GenerationSoftware,Altium Limited,Altium Designer,23.9.2 (47)*
G04*
G04 Layer_Physical_Order=2*
G04 Layer_Color=16711680*
%FSLAX44Y44*%
%MOMM*%
G71*
G04*
G04 #@! TF.SameCoordinates,B01C943C-82B9-4626-82FF-92624BC3EB66*
G04*
G04*
G04 #@! TF.FilePolarity,Positive*
G04*
G01*
G75*
%ADD17R,1.2500X1.2500*%
%ADD18C,1.2500*%
%ADD29C,0.2700*%
%ADD30R,1.8000X1.8000*%
%ADD31C,1.8000*%
%ADD32C,4.5000*%
%ADD33C,1.5500*%
%ADD34C,1.1500*%
%ADD35O,2.6416X1.3208*%
%ADD36C,1.3700*%
%ADD37R,1.3700X1.3700*%
%ADD38R,1.3700X1.3700*%
%ADD39C,1.5300*%
%ADD40C,1.6764*%
%ADD41R,1.6764X1.6764*%
%ADD42C,1.2700*%
G36*
X666750Y728980D02*
Y20320D01*
X63500D01*
Y97677D01*
X64139Y97882D01*
X64770Y97888D01*
X65521Y96763D01*
X77206Y85079D01*
X78492Y84220D01*
X80010Y83918D01*
X134247D01*
X139690Y78475D01*
X140976Y77616D01*
X142494Y77314D01*
X200154D01*
X200680Y76044D01*
X200376Y75740D01*
X199285Y73850D01*
X198768Y71920D01*
X207010D01*
X215252D01*
X214735Y73850D01*
X213644Y75740D01*
X213340Y76044D01*
X213866Y77314D01*
X256922D01*
X257189Y76669D01*
X258654Y74758D01*
X260565Y73293D01*
X262789Y72371D01*
X265176Y72057D01*
X278384D01*
X280771Y72371D01*
X282995Y73293D01*
X284906Y74758D01*
X286371Y76669D01*
X287293Y78893D01*
X287607Y81280D01*
X287293Y83667D01*
X286371Y85891D01*
X284906Y87802D01*
X283678Y88744D01*
X284109Y90014D01*
X290965D01*
X302504Y78475D01*
X303790Y77616D01*
X305308Y77314D01*
X333121D01*
X333389Y76669D01*
X334854Y74758D01*
X336765Y73293D01*
X338989Y72371D01*
X341376Y72057D01*
X354584D01*
X356971Y72371D01*
X359195Y73293D01*
X361106Y74758D01*
X362571Y76669D01*
X363493Y78893D01*
X363807Y81280D01*
X363493Y83667D01*
X362571Y85891D01*
X361106Y87802D01*
X359195Y89267D01*
X356971Y90189D01*
X354584Y90503D01*
X341376D01*
X338989Y90189D01*
X336765Y89267D01*
X334854Y87802D01*
X333389Y85891D01*
X333121Y85246D01*
X306951D01*
X295413Y96784D01*
X294126Y97644D01*
X292608Y97946D01*
X284109D01*
X283678Y99216D01*
X284906Y100158D01*
X286371Y102069D01*
X287293Y104293D01*
X287607Y106680D01*
X287293Y109067D01*
X286371Y111291D01*
X285157Y112874D01*
X285620Y114144D01*
X296807D01*
X307076Y103876D01*
X308362Y103016D01*
X309880Y102714D01*
X333121D01*
X333389Y102069D01*
X334854Y100158D01*
X336765Y98693D01*
X338989Y97771D01*
X341376Y97457D01*
X354584D01*
X356971Y97771D01*
X359195Y98693D01*
X361106Y100158D01*
X362571Y102069D01*
X363493Y104293D01*
X363807Y106680D01*
X363493Y109067D01*
X362571Y111291D01*
X361106Y113202D01*
X359195Y114667D01*
X356971Y115589D01*
X354584Y115903D01*
X341376D01*
X338989Y115589D01*
X336765Y114667D01*
X334854Y113202D01*
X333389Y111291D01*
X333121Y110646D01*
X311523D01*
X301255Y120914D01*
X299968Y121774D01*
X298450Y122076D01*
X281446D01*
X281193Y123346D01*
X282995Y124093D01*
X284906Y125558D01*
X286371Y127469D01*
X287293Y129693D01*
X287607Y132080D01*
X287293Y134467D01*
X286371Y136691D01*
X284906Y138602D01*
X282995Y140067D01*
X280771Y140989D01*
X278384Y141303D01*
X265176D01*
X262789Y140989D01*
X260565Y140067D01*
X258654Y138602D01*
X257189Y136691D01*
X256267Y134467D01*
X255953Y132080D01*
X256267Y129693D01*
X257189Y127469D01*
X258654Y125558D01*
X260565Y124093D01*
X262367Y123346D01*
X262114Y122076D01*
X218948D01*
X217430Y121774D01*
X216570Y121200D01*
X215397Y121700D01*
X215277Y121826D01*
X214735Y123850D01*
X213644Y125740D01*
X212100Y127284D01*
X210210Y128375D01*
X208101Y128940D01*
X205919D01*
X203810Y128375D01*
X201920Y127284D01*
X200376Y125740D01*
X199285Y123850D01*
X198720Y121741D01*
Y119559D01*
X199285Y117450D01*
X200376Y115560D01*
X201480Y114456D01*
X200954Y113186D01*
X114223D01*
X91781Y135628D01*
X92034Y136066D01*
X92820Y139001D01*
Y142039D01*
X92034Y144974D01*
X90514Y147606D01*
X88366Y149754D01*
X85734Y151273D01*
X82799Y152060D01*
X79761D01*
X76826Y151273D01*
X74194Y149754D01*
X73465Y149025D01*
X72292Y149511D01*
Y166529D01*
X73465Y167015D01*
X74194Y166286D01*
X76826Y164767D01*
X79761Y163980D01*
X82799D01*
X85734Y164767D01*
X86172Y165019D01*
X107184Y144008D01*
X108470Y143148D01*
X109988Y142846D01*
X293505D01*
X307076Y129276D01*
X308362Y128416D01*
X309880Y128114D01*
X333121D01*
X333389Y127469D01*
X334854Y125558D01*
X336765Y124093D01*
X338989Y123171D01*
X341376Y122857D01*
X354584D01*
X356971Y123171D01*
X359195Y124093D01*
X361106Y125558D01*
X362571Y127469D01*
X363493Y129693D01*
X363807Y132080D01*
X363493Y134467D01*
X362571Y136691D01*
X361106Y138602D01*
X359878Y139544D01*
X360106Y140530D01*
X360281Y140835D01*
X361690Y141116D01*
X362976Y141975D01*
X368056Y147056D01*
X368916Y148342D01*
X369218Y149860D01*
Y187706D01*
X368916Y189224D01*
X368056Y190511D01*
X362215Y196353D01*
X360928Y197212D01*
X359410Y197514D01*
X217035D01*
X207166Y207383D01*
Y263120D01*
X208597Y263946D01*
X210234Y265583D01*
X211391Y267587D01*
X211990Y269823D01*
Y272137D01*
X211391Y274373D01*
X210234Y276377D01*
X208597Y278014D01*
X206593Y279171D01*
X204357Y279770D01*
X202043D01*
X199807Y279171D01*
X197803Y278014D01*
X196166Y276377D01*
X195009Y274373D01*
X194410Y272137D01*
Y269823D01*
X195009Y267587D01*
X196166Y265583D01*
X197803Y263946D01*
X199234Y263120D01*
Y205740D01*
X199536Y204222D01*
X200396Y202936D01*
X212588Y190744D01*
X213874Y189884D01*
X215392Y189582D01*
X257192D01*
X257818Y188312D01*
X257189Y187491D01*
X256922Y186846D01*
X215100D01*
X213582Y186544D01*
X212295Y185685D01*
X206381Y179770D01*
X204470D01*
Y172250D01*
X211990D01*
Y174161D01*
X216743Y178914D01*
X256922D01*
X257189Y178269D01*
X258654Y176358D01*
X259882Y175416D01*
X259451Y174146D01*
X225298D01*
X223780Y173844D01*
X222493Y172985D01*
X213163Y163654D01*
X211990Y164140D01*
Y169710D01*
X203200D01*
X194410D01*
Y162190D01*
X193448Y161446D01*
X135963D01*
X91781Y205628D01*
X92034Y206066D01*
X92820Y209001D01*
Y212040D01*
X92034Y214975D01*
X90514Y217606D01*
X88366Y219755D01*
X85734Y221274D01*
X82799Y222060D01*
X79761D01*
X76826Y221274D01*
X74194Y219755D01*
X73465Y219026D01*
X72292Y219512D01*
Y236528D01*
X73465Y237015D01*
X74194Y236286D01*
X76826Y234766D01*
X79761Y233980D01*
X82799D01*
X85734Y234766D01*
X88366Y236286D01*
X90514Y238434D01*
X92034Y241066D01*
X92820Y244001D01*
Y247039D01*
X92034Y249974D01*
X90514Y252606D01*
X88366Y254754D01*
X85734Y256273D01*
X82799Y257060D01*
X79761D01*
X76826Y256273D01*
X74194Y254754D01*
X73465Y254025D01*
X72292Y254512D01*
Y271529D01*
X73465Y272015D01*
X74194Y271286D01*
X76826Y269767D01*
X79761Y268980D01*
X82799D01*
X85734Y269767D01*
X88366Y271286D01*
X90514Y273434D01*
X92034Y276066D01*
X92820Y279001D01*
Y282039D01*
X92034Y284974D01*
X90514Y287606D01*
X88366Y289754D01*
X85734Y291274D01*
X82799Y292060D01*
X79761D01*
X76826Y291274D01*
X74194Y289754D01*
X73465Y289026D01*
X72292Y289512D01*
Y306528D01*
X73465Y307014D01*
X74194Y306285D01*
X76826Y304766D01*
X79761Y303980D01*
X82799D01*
X85734Y304766D01*
X86172Y305019D01*
X100625Y290565D01*
X101912Y289706D01*
X103430Y289404D01*
X208415D01*
X254244Y243575D01*
X255530Y242716D01*
X257048Y242414D01*
X257048Y242414D01*
X259451D01*
X259882Y241144D01*
X258654Y240202D01*
X257189Y238291D01*
X256267Y236067D01*
X256120Y234950D01*
X287440D01*
X287293Y236067D01*
X286371Y238291D01*
X284906Y240202D01*
X283678Y241144D01*
X284109Y242414D01*
X286139D01*
X297677Y230875D01*
X298964Y230016D01*
X300482Y229714D01*
X333121D01*
X333389Y229069D01*
X334854Y227158D01*
X336765Y225693D01*
X338989Y224771D01*
X341376Y224457D01*
X354584D01*
X356971Y224771D01*
X359195Y225693D01*
X361106Y227158D01*
X362571Y229069D01*
X363493Y231293D01*
X363807Y233680D01*
X363493Y236067D01*
X362571Y238291D01*
X361106Y240202D01*
X359195Y241667D01*
X356971Y242589D01*
X354584Y242903D01*
X341376D01*
X338989Y242589D01*
X336765Y241667D01*
X334854Y240202D01*
X333389Y238291D01*
X333121Y237646D01*
X302125D01*
X290586Y249184D01*
X289300Y250044D01*
X287782Y250346D01*
X284109D01*
X283678Y251616D01*
X284906Y252558D01*
X286371Y254469D01*
X287293Y256693D01*
X287607Y259080D01*
X287293Y261467D01*
X286371Y263691D01*
X284906Y265602D01*
X282995Y267067D01*
X280771Y267989D01*
X278384Y268303D01*
X265176D01*
X262789Y267989D01*
X260565Y267067D01*
X258654Y265602D01*
X257189Y263691D01*
X256267Y261467D01*
X255953Y259080D01*
X256267Y256693D01*
X257189Y254469D01*
X258654Y252558D01*
X259105Y252213D01*
X258772Y250867D01*
X258257Y250780D01*
X212862Y296175D01*
X211576Y297034D01*
X210058Y297336D01*
X105073D01*
X91781Y310628D01*
X92034Y311066D01*
X92820Y314000D01*
Y317039D01*
X92034Y319974D01*
X90514Y322606D01*
X88366Y324754D01*
X86617Y325764D01*
X86957Y327034D01*
X200237D01*
X200404Y325764D01*
X197958Y325109D01*
X195612Y323754D01*
X193696Y321838D01*
X192341Y319492D01*
X191640Y316875D01*
Y314165D01*
X192341Y311548D01*
X193696Y309202D01*
X195612Y307286D01*
X197958Y305931D01*
X200575Y305230D01*
X203285D01*
X205902Y305931D01*
X208248Y307286D01*
X210164Y309202D01*
X211519Y311548D01*
X212220Y314165D01*
Y316875D01*
X211519Y319492D01*
X210164Y321838D01*
X208248Y323754D01*
X205902Y325109D01*
X203456Y325764D01*
X203623Y327034D01*
X266800D01*
Y322210D01*
X284380D01*
Y339790D01*
X266800D01*
Y334966D01*
X73444D01*
X71926Y334664D01*
X70640Y333805D01*
X65521Y328686D01*
X64770Y327562D01*
X64139Y327568D01*
X63500Y327773D01*
Y729351D01*
X64399Y730248D01*
X666750Y728980D01*
D02*
G37*
G36*
X334018Y188312D02*
X333389Y187491D01*
X332467Y185267D01*
X332153Y182880D01*
X332467Y180493D01*
X333389Y178269D01*
X334854Y176358D01*
X336765Y174893D01*
X338989Y173971D01*
X341376Y173657D01*
X354584D01*
X356971Y173971D01*
X359195Y174893D01*
X360016Y175522D01*
X361286Y174896D01*
Y165464D01*
X360016Y164838D01*
X359195Y165467D01*
X356971Y166389D01*
X354584Y166703D01*
X341376D01*
X338989Y166389D01*
X336765Y165467D01*
X334854Y164002D01*
X333389Y162091D01*
X333121Y161446D01*
X304062D01*
X292524Y172985D01*
X291237Y173844D01*
X289720Y174146D01*
X284109D01*
X283678Y175416D01*
X284906Y176358D01*
X286371Y178269D01*
X287293Y180493D01*
X287440Y181610D01*
X271780D01*
Y184150D01*
X287440D01*
X287293Y185267D01*
X286371Y187491D01*
X285742Y188312D01*
X286368Y189582D01*
X333392D01*
X334018Y188312D01*
D02*
G37*
%LPC*%
G36*
X195580Y726931D02*
Y718820D01*
X203691D01*
X203060Y721174D01*
X201824Y723316D01*
X200076Y725064D01*
X197934Y726300D01*
X195580Y726931D01*
D02*
G37*
G36*
X193040D02*
X190686Y726300D01*
X188544Y725064D01*
X186796Y723316D01*
X185560Y721174D01*
X184929Y718820D01*
X193040D01*
Y726931D01*
D02*
G37*
G36*
X561340Y725661D02*
Y717550D01*
X569451D01*
X568820Y719904D01*
X567584Y722046D01*
X565836Y723794D01*
X563694Y725030D01*
X561340Y725661D01*
D02*
G37*
G36*
X558800D02*
X556446Y725030D01*
X554304Y723794D01*
X552556Y722046D01*
X551320Y719904D01*
X550689Y717550D01*
X558800D01*
Y725661D01*
D02*
G37*
G36*
X203691Y716280D02*
X195580D01*
Y708169D01*
X197934Y708800D01*
X200076Y710036D01*
X201824Y711784D01*
X203060Y713926D01*
X203691Y716280D01*
D02*
G37*
G36*
X193040D02*
X184929D01*
X185560Y713926D01*
X186796Y711784D01*
X188544Y710036D01*
X190686Y708800D01*
X193040Y708169D01*
Y716280D01*
D02*
G37*
G36*
X569451Y715010D02*
X561340D01*
Y706899D01*
X563694Y707530D01*
X565836Y708766D01*
X567584Y710514D01*
X568820Y712656D01*
X569451Y715010D01*
D02*
G37*
G36*
X558800D02*
X550689D01*
X551320Y712656D01*
X552556Y710514D01*
X554304Y708766D01*
X556446Y707530D01*
X558800Y706899D01*
Y715010D01*
D02*
G37*
G36*
X594860Y725670D02*
X576080D01*
Y706890D01*
X594860D01*
Y725670D01*
D02*
G37*
G36*
X399472Y672500D02*
X397289D01*
X395180Y671935D01*
X393290Y670844D01*
X391747Y669300D01*
X390655Y667410D01*
X390090Y665301D01*
Y663119D01*
X390655Y661010D01*
X391747Y659120D01*
X393290Y657576D01*
X395180Y656485D01*
X397289Y655920D01*
X399472D01*
X401580Y656485D01*
X403470Y657576D01*
X405014Y659120D01*
X406105Y661010D01*
X406670Y663119D01*
Y665301D01*
X406105Y667410D01*
X405014Y669300D01*
X403470Y670844D01*
X401580Y671935D01*
X399472Y672500D01*
D02*
G37*
G36*
X349471D02*
X347288D01*
X345180Y671935D01*
X343290Y670844D01*
X341746Y669300D01*
X340655Y667410D01*
X340090Y665301D01*
Y663119D01*
X340655Y661010D01*
X341746Y659120D01*
X343290Y657576D01*
X345180Y656485D01*
X347288Y655920D01*
X349471D01*
X351580Y656485D01*
X353470Y657576D01*
X355013Y659120D01*
X356105Y661010D01*
X356670Y663119D01*
Y665301D01*
X356105Y667410D01*
X355013Y669300D01*
X353470Y670844D01*
X351580Y671935D01*
X349471Y672500D01*
D02*
G37*
G36*
X191657Y621400D02*
X189343D01*
X187107Y620801D01*
X185103Y619644D01*
X183466Y618007D01*
X182640Y616576D01*
X158990D01*
X158164Y618007D01*
X156527Y619644D01*
X154523Y620801D01*
X152287Y621400D01*
X149973D01*
X147737Y620801D01*
X145733Y619644D01*
X144096Y618007D01*
X142939Y616003D01*
X142340Y613767D01*
Y611453D01*
X142939Y609217D01*
X144096Y607213D01*
X145733Y605576D01*
X147737Y604419D01*
X149973Y603820D01*
X152287D01*
X154523Y604419D01*
X156527Y605576D01*
X158164Y607213D01*
X158990Y608644D01*
X182640D01*
X183466Y607213D01*
X185103Y605576D01*
X187107Y604419D01*
X189343Y603820D01*
X191657D01*
X193893Y604419D01*
X195897Y605576D01*
X197534Y607213D01*
X198691Y609217D01*
X199290Y611453D01*
Y613767D01*
X198691Y616003D01*
X197534Y618007D01*
X195897Y619644D01*
X193893Y620801D01*
X191657Y621400D01*
D02*
G37*
G36*
X233567Y620600D02*
X231253D01*
X229017Y620001D01*
X227013Y618843D01*
X225376Y617207D01*
X224219Y615203D01*
X223620Y612967D01*
Y610653D01*
X224219Y608417D01*
X225376Y606413D01*
X227013Y604776D01*
X229017Y603619D01*
X231253Y603020D01*
X233567D01*
X235803Y603619D01*
X237807Y604776D01*
X239444Y606413D01*
X240601Y608417D01*
X241200Y610653D01*
Y612967D01*
X240601Y615203D01*
X239444Y617207D01*
X237807Y618843D01*
X235803Y620001D01*
X233567Y620600D01*
D02*
G37*
G36*
X279287Y620130D02*
X276973D01*
X274737Y619531D01*
X272733Y618374D01*
X271096Y616737D01*
X269939Y614733D01*
X269340Y612497D01*
Y610183D01*
X269939Y607947D01*
X271096Y605943D01*
X272733Y604306D01*
X274737Y603149D01*
X276973Y602550D01*
X279287D01*
X281523Y603149D01*
X283527Y604306D01*
X285164Y605943D01*
X286321Y607947D01*
X286920Y610183D01*
Y612497D01*
X286321Y614733D01*
X285164Y616737D01*
X283527Y618374D01*
X281523Y619531D01*
X279287Y620130D01*
D02*
G37*
G36*
X399472Y568360D02*
X397289D01*
X395180Y567795D01*
X393290Y566704D01*
X391747Y565160D01*
X390655Y563270D01*
X390090Y561161D01*
Y558979D01*
X390655Y556870D01*
X391747Y554980D01*
X393290Y553436D01*
X395180Y552345D01*
X397289Y551780D01*
X399472D01*
X401580Y552345D01*
X403470Y553436D01*
X405014Y554980D01*
X406105Y556870D01*
X406670Y558979D01*
Y561161D01*
X406105Y563270D01*
X405014Y565160D01*
X403470Y566704D01*
X401580Y567795D01*
X399472Y568360D01*
D02*
G37*
G36*
X349471D02*
X347288D01*
X345180Y567795D01*
X343290Y566704D01*
X341746Y565160D01*
X341097Y564036D01*
X280670D01*
X279152Y563734D01*
X277866Y562874D01*
X235591Y520600D01*
X223620D01*
Y505616D01*
X203103D01*
X199290Y509429D01*
Y511340D01*
X191770D01*
Y503820D01*
X193681D01*
X198656Y498845D01*
X199942Y497986D01*
X201460Y497684D01*
X268440D01*
X269958Y497986D01*
X271244Y498845D01*
X274949Y502550D01*
X276860D01*
Y510070D01*
X269340D01*
Y508159D01*
X266797Y505616D01*
X241200D01*
Y514991D01*
X282313Y556104D01*
X341097D01*
X341746Y554980D01*
X343290Y553436D01*
X345180Y552345D01*
X347288Y551780D01*
X349471D01*
X351580Y552345D01*
X353470Y553436D01*
X355013Y554980D01*
X356105Y556870D01*
X356670Y558979D01*
Y561161D01*
X356105Y563270D01*
X355013Y565160D01*
X353470Y566704D01*
X351580Y567795D01*
X349471Y568360D01*
D02*
G37*
G36*
X457200Y521400D02*
X449680D01*
Y516576D01*
X320548D01*
X319030Y516274D01*
X317743Y515415D01*
X317635Y515306D01*
X286920D01*
Y520130D01*
X279400D01*
Y511340D01*
Y502550D01*
X286920D01*
Y507374D01*
X319278D01*
X320796Y507676D01*
X322082Y508536D01*
X322191Y508644D01*
X340645D01*
X341379Y507374D01*
X340655Y506120D01*
X340090Y504011D01*
Y501829D01*
X340655Y499720D01*
X341746Y497830D01*
X343290Y496286D01*
X345180Y495195D01*
X347288Y494630D01*
X349471D01*
X351580Y495195D01*
X353470Y496286D01*
X355013Y497830D01*
X356105Y499720D01*
X356670Y501829D01*
Y504011D01*
X356105Y506120D01*
X355381Y507374D01*
X356114Y508644D01*
X390646D01*
X391379Y507374D01*
X390655Y506120D01*
X390090Y504011D01*
Y501829D01*
X390655Y499720D01*
X391747Y497830D01*
X393290Y496286D01*
X395180Y495195D01*
X397289Y494630D01*
X399472D01*
X401580Y495195D01*
X403470Y496286D01*
X405014Y497830D01*
X406105Y499720D01*
X406670Y501829D01*
Y504011D01*
X406105Y506120D01*
X405381Y507374D01*
X406115Y508644D01*
X449680D01*
Y503820D01*
X457200D01*
Y512610D01*
Y521400D01*
D02*
G37*
G36*
X467260D02*
X459740D01*
Y513880D01*
X467260D01*
Y521400D01*
D02*
G37*
G36*
X199290D02*
X191770D01*
Y513880D01*
X199290D01*
Y521400D01*
D02*
G37*
G36*
X189230D02*
X181710D01*
Y513880D01*
X189230D01*
Y521400D01*
D02*
G37*
G36*
X556160Y520600D02*
X548640D01*
Y513080D01*
X556160D01*
Y520600D01*
D02*
G37*
G36*
X546100D02*
X538580D01*
Y513080D01*
X546100D01*
Y520600D01*
D02*
G37*
G36*
X276860Y520130D02*
X269340D01*
Y512610D01*
X276860D01*
Y520130D01*
D02*
G37*
G36*
X511710Y520600D02*
X494130D01*
Y505616D01*
X471073D01*
X467260Y509429D01*
Y511340D01*
X459740D01*
Y503820D01*
X461651D01*
X466626Y498845D01*
X467912Y497986D01*
X469430Y497684D01*
X537210D01*
X538728Y497986D01*
X540014Y498845D01*
X544189Y503020D01*
X546100D01*
Y510540D01*
X538580D01*
Y508629D01*
X535567Y505616D01*
X511710D01*
Y520600D01*
D02*
G37*
G36*
X189230Y511340D02*
X181710D01*
Y503820D01*
X189230D01*
Y511340D01*
D02*
G37*
G36*
X556160Y510540D02*
X548640D01*
Y503020D01*
X556160D01*
Y510540D01*
D02*
G37*
G36*
X349250Y448466D02*
X91440D01*
X89922Y448164D01*
X88636Y447304D01*
X85176Y443845D01*
X82622Y444530D01*
X79938D01*
X77347Y443836D01*
X75023Y442494D01*
X73126Y440597D01*
X71784Y438273D01*
X71090Y435682D01*
Y432998D01*
X71784Y430407D01*
X73126Y428083D01*
X75023Y426186D01*
X77347Y424844D01*
X79938Y424150D01*
X82622D01*
X85213Y424844D01*
X87537Y426186D01*
X89434Y428083D01*
X90776Y430407D01*
X91470Y432998D01*
Y435682D01*
X90785Y438236D01*
X93083Y440534D01*
X272302D01*
X272469Y439264D01*
X272197Y439191D01*
X270193Y438034D01*
X268556Y436397D01*
X267399Y434393D01*
X266800Y432157D01*
Y429843D01*
X267399Y427607D01*
X268556Y425603D01*
X270193Y423966D01*
X272197Y422809D01*
X274433Y422210D01*
X276747D01*
X278983Y422809D01*
X280987Y423966D01*
X282624Y425603D01*
X283781Y427607D01*
X284380Y429843D01*
Y432157D01*
X283781Y434393D01*
X282624Y436397D01*
X280987Y438034D01*
X278983Y439191D01*
X278711Y439264D01*
X278878Y440534D01*
X347607D01*
X395081Y393060D01*
X394952Y392836D01*
X394208Y390058D01*
Y387182D01*
X394952Y384404D01*
X396390Y381914D01*
X398424Y379880D01*
X400914Y378442D01*
X403692Y377698D01*
X406568D01*
X409346Y378442D01*
X411836Y379880D01*
X413870Y381914D01*
X415308Y384404D01*
X415375Y384654D01*
X533045D01*
X533906Y383161D01*
X535561Y381506D01*
X537589Y380336D01*
X539850Y379730D01*
X542190D01*
X544451Y380336D01*
X546479Y381506D01*
X548134Y383161D01*
X549304Y385189D01*
X549910Y387450D01*
Y389790D01*
X549304Y392051D01*
X548134Y394079D01*
X546479Y395734D01*
X544451Y396904D01*
X542190Y397510D01*
X539850D01*
X537589Y396904D01*
X535561Y395734D01*
X533906Y394079D01*
X533045Y392586D01*
X415375D01*
X415308Y392836D01*
X413870Y395326D01*
X411836Y397360D01*
X409346Y398798D01*
X406568Y399542D01*
X403692D01*
X400914Y398798D01*
X400690Y398669D01*
X352054Y447304D01*
X350768Y448164D01*
X349250Y448466D01*
D02*
G37*
G36*
X647772Y441990D02*
X645088D01*
X642497Y441296D01*
X640173Y439954D01*
X638276Y438057D01*
X636934Y435733D01*
X636240Y433142D01*
Y430458D01*
X636934Y427867D01*
X638276Y425543D01*
X640173Y423646D01*
X642497Y422304D01*
X645088Y421610D01*
X647772D01*
X650363Y422304D01*
X652687Y423646D01*
X654584Y425543D01*
X655926Y427867D01*
X656620Y430458D01*
Y433142D01*
X655926Y435733D01*
X654584Y438057D01*
X652687Y439954D01*
X650363Y441296D01*
X647772Y441990D01*
D02*
G37*
G36*
X465977Y438520D02*
X463663D01*
X461427Y437921D01*
X459423Y436764D01*
X457786Y435127D01*
X456629Y433123D01*
X456030Y430887D01*
Y428573D01*
X456629Y426337D01*
X457786Y424333D01*
X459423Y422696D01*
X461427Y421539D01*
X463663Y420940D01*
X465977D01*
X468213Y421539D01*
X470217Y422696D01*
X471854Y424333D01*
X473011Y426337D01*
X473610Y428573D01*
Y430887D01*
X473011Y433123D01*
X471854Y435127D01*
X470217Y436764D01*
X468213Y437921D01*
X465977Y438520D01*
D02*
G37*
G36*
X525865Y427560D02*
X523155D01*
X520538Y426859D01*
X518192Y425504D01*
X516276Y423588D01*
X514921Y421242D01*
X514220Y418625D01*
Y415915D01*
X514921Y413298D01*
X516276Y410952D01*
X518192Y409036D01*
X520538Y407681D01*
X523155Y406980D01*
X525865D01*
X528482Y407681D01*
X530828Y409036D01*
X532744Y410952D01*
X534099Y413298D01*
X534800Y415915D01*
Y418625D01*
X534099Y421242D01*
X532744Y423588D01*
X530828Y425504D01*
X528482Y426859D01*
X525865Y427560D01*
D02*
G37*
G36*
X203285Y421210D02*
X200575D01*
X197958Y420509D01*
X195612Y419154D01*
X193696Y417238D01*
X192341Y414892D01*
X191640Y412275D01*
Y409566D01*
X192341Y406948D01*
X193696Y404602D01*
X195612Y402686D01*
X197958Y401331D01*
X200575Y400630D01*
X203285D01*
X205902Y401331D01*
X205907Y401334D01*
X208726Y398516D01*
X210012Y397656D01*
X211530Y397354D01*
X314587D01*
X318008Y393933D01*
Y377698D01*
X339852D01*
Y399542D01*
X323617D01*
X319035Y404124D01*
X317748Y404984D01*
X316230Y405286D01*
X213173D01*
X211516Y406943D01*
X211519Y406948D01*
X212220Y409566D01*
Y412275D01*
X211519Y414892D01*
X210164Y417238D01*
X208248Y419154D01*
X205902Y420509D01*
X203285Y421210D01*
D02*
G37*
G36*
X178300Y726940D02*
X159520D01*
Y708160D01*
X172691D01*
X205584Y675267D01*
Y587007D01*
X148326Y529749D01*
X147466Y528462D01*
X147164Y526944D01*
Y521400D01*
X142340D01*
Y503820D01*
X159920D01*
Y521400D01*
X155096D01*
Y525301D01*
X211193Y581398D01*
X514083D01*
X580490Y514991D01*
Y503020D01*
X595474D01*
Y422521D01*
X517025Y344072D01*
X451358D01*
X449840Y343770D01*
X448554Y342910D01*
X417322Y311679D01*
X416052Y312205D01*
Y313858D01*
X415308Y316636D01*
X413870Y319126D01*
X411836Y321160D01*
X409346Y322598D01*
X406568Y323342D01*
X406400D01*
Y312420D01*
X403860D01*
Y323342D01*
X403692D01*
X400914Y322598D01*
X398424Y321160D01*
X396390Y319126D01*
X394952Y316636D01*
X394885Y316386D01*
X355973D01*
X338979Y333381D01*
X339108Y333604D01*
X339852Y336382D01*
Y336550D01*
X330200D01*
Y326898D01*
X330368D01*
X333146Y327642D01*
X333369Y327771D01*
X351525Y309615D01*
X352812Y308756D01*
X354330Y308454D01*
X394885D01*
X394952Y308204D01*
X396390Y305714D01*
X396991Y305114D01*
X396504Y303940D01*
X343019D01*
X338979Y307980D01*
X339108Y308204D01*
X339852Y310982D01*
Y313858D01*
X339108Y316636D01*
X337670Y319126D01*
X335636Y321160D01*
X333146Y322598D01*
X330368Y323342D01*
X327492D01*
X324714Y322598D01*
X322224Y321160D01*
X320190Y319126D01*
X318752Y316636D01*
X318008Y313858D01*
Y310982D01*
X318752Y308204D01*
X320190Y305714D01*
X322224Y303680D01*
X324714Y302242D01*
X327492Y301498D01*
X330368D01*
X333146Y302242D01*
X333369Y302372D01*
X338572Y297169D01*
X339858Y296310D01*
X341376Y296008D01*
X408658D01*
X408724Y295969D01*
X408862Y295838D01*
X409513Y294738D01*
X409469Y294513D01*
X409301Y293895D01*
X407369Y265679D01*
X406289Y265010D01*
X405231Y265449D01*
X402844Y265763D01*
X389636D01*
X387249Y265449D01*
X385025Y264527D01*
X383114Y263062D01*
X381649Y261151D01*
X380727Y258927D01*
X380413Y256540D01*
X380727Y254153D01*
X381649Y251929D01*
X383114Y250018D01*
X385025Y248553D01*
X387249Y247631D01*
X389636Y247317D01*
X402844D01*
X405231Y247631D01*
X407455Y248553D01*
X409366Y250018D01*
X410831Y251929D01*
X411133Y252656D01*
X411346Y252699D01*
X411982Y252781D01*
X412101Y252849D01*
X412236Y252876D01*
X412769Y253232D01*
X413324Y253550D01*
X413408Y253659D01*
X413522Y253736D01*
X413879Y254268D01*
X414270Y254775D01*
X414306Y254908D01*
X414382Y255022D01*
X414507Y255651D01*
X414675Y256269D01*
X417113Y291870D01*
X440301Y315058D01*
X498094D01*
X499612Y315360D01*
X500899Y316220D01*
X514469Y329790D01*
X516218D01*
X516704Y328616D01*
X516276Y328188D01*
X514921Y325842D01*
X514220Y323224D01*
Y320515D01*
X514921Y317898D01*
X516276Y315552D01*
X518192Y313636D01*
X520538Y312281D01*
X523155Y311580D01*
X525865D01*
X528482Y312281D01*
X530828Y313636D01*
X532744Y315552D01*
X534099Y317898D01*
X534800Y320515D01*
Y323224D01*
X534099Y325842D01*
X532744Y328188D01*
X532316Y328616D01*
X532802Y329790D01*
X596496D01*
X598013Y330092D01*
X599300Y330951D01*
X644078Y375729D01*
X644516Y375477D01*
X647451Y374690D01*
X650489D01*
X653424Y375477D01*
X656056Y376996D01*
X658204Y379145D01*
X659724Y381776D01*
X660510Y384711D01*
Y387750D01*
X659724Y390685D01*
X658204Y393316D01*
X656056Y395465D01*
X653424Y396984D01*
X650489Y397770D01*
X647451D01*
X644516Y396984D01*
X641884Y395465D01*
X639736Y393316D01*
X638217Y390685D01*
X637430Y387750D01*
Y384711D01*
X638217Y381776D01*
X638469Y381339D01*
X594853Y337722D01*
X523553D01*
X523066Y338895D01*
X602244Y418074D01*
X603104Y419360D01*
X603406Y420878D01*
Y651510D01*
X603104Y653028D01*
X602244Y654314D01*
X543522Y713037D01*
X544060Y715044D01*
Y717516D01*
X543420Y719904D01*
X542184Y722046D01*
X540436Y723794D01*
X538294Y725030D01*
X535906Y725670D01*
X533434D01*
X531046Y725030D01*
X528904Y723794D01*
X527156Y722046D01*
X525920Y719904D01*
X525280Y717516D01*
Y715044D01*
X525920Y712656D01*
X527156Y710514D01*
X528904Y708766D01*
X531046Y707530D01*
X533434Y706890D01*
X535906D01*
X537913Y707428D01*
X595474Y649867D01*
Y619733D01*
X594204Y619117D01*
X592673Y620001D01*
X590437Y620600D01*
X588123D01*
X585887Y620001D01*
X583883Y618843D01*
X582246Y617207D01*
X581420Y615776D01*
X555230D01*
X554404Y617207D01*
X552767Y618843D01*
X550763Y620001D01*
X548527Y620600D01*
X546213D01*
X544617Y620172D01*
X525714Y639075D01*
X524428Y639934D01*
X522910Y640236D01*
X423780D01*
X422262Y639934D01*
X420976Y639075D01*
X400725Y618824D01*
X399472Y619160D01*
X397289D01*
X395180Y618595D01*
X393290Y617504D01*
X391747Y615960D01*
X390655Y614070D01*
X390090Y611961D01*
Y609779D01*
X390655Y607670D01*
X391350Y606466D01*
X390617Y605196D01*
X359663D01*
X356334Y608525D01*
X356670Y609779D01*
Y611961D01*
X356105Y614070D01*
X355013Y615960D01*
X353470Y617504D01*
X351580Y618595D01*
X349471Y619160D01*
X347288D01*
X345180Y618595D01*
X343290Y617504D01*
X341746Y615960D01*
X340655Y614070D01*
X340090Y611961D01*
Y609779D01*
X340655Y607670D01*
X341746Y605780D01*
X343290Y604236D01*
X345180Y603145D01*
X347288Y602580D01*
X349471D01*
X350725Y602916D01*
X355215Y598426D01*
X356502Y597566D01*
X358020Y597264D01*
X461430D01*
X462948Y597566D01*
X462948Y597566D01*
X464235Y598426D01*
X472713Y606904D01*
X495603D01*
X495886Y606413D01*
X497523Y604776D01*
X499527Y603619D01*
X501763Y603020D01*
X504077D01*
X506313Y603619D01*
X508317Y604776D01*
X509954Y606413D01*
X511111Y608417D01*
X511710Y610653D01*
Y612967D01*
X511111Y615203D01*
X509954Y617207D01*
X508317Y618843D01*
X506313Y620001D01*
X504077Y620600D01*
X501763D01*
X499527Y620001D01*
X497523Y618843D01*
X495886Y617207D01*
X494729Y615203D01*
X494631Y614836D01*
X471070D01*
X469553Y614534D01*
X468503Y613833D01*
X468339Y613824D01*
X467692Y613994D01*
X467113Y614317D01*
X466661Y616003D01*
X465504Y618007D01*
X463867Y619644D01*
X461863Y620801D01*
X459627Y621400D01*
X457313D01*
X455077Y620801D01*
X453073Y619644D01*
X451436Y618007D01*
X450279Y616003D01*
X449680Y613767D01*
Y611453D01*
X450279Y609217D01*
X451436Y607213D01*
X452183Y606466D01*
X451656Y605196D01*
X406143D01*
X405410Y606466D01*
X406105Y607670D01*
X406670Y609779D01*
Y611961D01*
X406334Y613215D01*
X425423Y632304D01*
X521267D01*
X539008Y614563D01*
X538580Y612967D01*
Y610653D01*
X539179Y608417D01*
X540336Y606413D01*
X541973Y604776D01*
X543977Y603619D01*
X546213Y603020D01*
X548527D01*
X550763Y603619D01*
X552767Y604776D01*
X554404Y606413D01*
X555230Y607844D01*
X581420D01*
X582246Y606413D01*
X583883Y604776D01*
X585887Y603619D01*
X588123Y603020D01*
X590437D01*
X592673Y603619D01*
X594204Y604503D01*
X595474Y603887D01*
Y520600D01*
X586099D01*
X518530Y588169D01*
X517244Y589028D01*
X515726Y589330D01*
X213516D01*
Y676910D01*
X213214Y678428D01*
X212355Y679715D01*
X178300Y713769D01*
Y726940D01*
D02*
G37*
G36*
X92820Y397060D02*
X69740D01*
Y373980D01*
X92820D01*
Y397060D01*
D02*
G37*
G36*
X437288Y377698D02*
X434948D01*
X432687Y377092D01*
X430659Y375922D01*
X429004Y374267D01*
X427834Y372239D01*
X427228Y369978D01*
Y367638D01*
X427674Y365973D01*
X409570Y347868D01*
X409346Y347998D01*
X406568Y348742D01*
X403692D01*
X400914Y347998D01*
X398424Y346560D01*
X396390Y344526D01*
X394952Y342036D01*
X394208Y339258D01*
Y336382D01*
X394952Y333604D01*
X396390Y331114D01*
X398424Y329080D01*
X400914Y327642D01*
X403692Y326898D01*
X406568D01*
X409346Y327642D01*
X411836Y329080D01*
X413870Y331114D01*
X415308Y333604D01*
X416052Y336382D01*
Y339258D01*
X415308Y342036D01*
X415178Y342259D01*
X433283Y360364D01*
X434948Y359918D01*
X437288D01*
X439549Y360524D01*
X441577Y361694D01*
X443232Y363349D01*
X444402Y365377D01*
X445008Y367638D01*
Y369978D01*
X444402Y372239D01*
X443232Y374267D01*
X441577Y375922D01*
X439549Y377092D01*
X437288Y377698D01*
D02*
G37*
G36*
X406568Y374142D02*
X403692D01*
X400914Y373398D01*
X398424Y371960D01*
X396390Y369926D01*
X394952Y367436D01*
X394208Y364658D01*
Y361782D01*
X394952Y359004D01*
X396390Y356514D01*
X398424Y354480D01*
X400914Y353042D01*
X403692Y352298D01*
X406568D01*
X409346Y353042D01*
X411836Y354480D01*
X413870Y356514D01*
X415308Y359004D01*
X416052Y361782D01*
Y364658D01*
X415308Y367436D01*
X413870Y369926D01*
X411836Y371960D01*
X409346Y373398D01*
X406568Y374142D01*
D02*
G37*
G36*
X330368D02*
X327492D01*
X324714Y373398D01*
X322224Y371960D01*
X320190Y369926D01*
X318752Y367436D01*
X318008Y364658D01*
Y361782D01*
X318752Y359004D01*
X320190Y356514D01*
X322224Y354480D01*
X324714Y353042D01*
X327492Y352298D01*
X330368D01*
X333146Y353042D01*
X335636Y354480D01*
X337670Y356514D01*
X339108Y359004D01*
X339852Y361782D01*
Y364658D01*
X339108Y367436D01*
X337670Y369926D01*
X335636Y371960D01*
X333146Y373398D01*
X330368Y374142D01*
D02*
G37*
G36*
X650489Y362770D02*
X647451D01*
X644516Y361984D01*
X641884Y360465D01*
X639736Y358316D01*
X638217Y355685D01*
X637430Y352749D01*
Y349711D01*
X638217Y346776D01*
X638469Y346338D01*
X589363Y297233D01*
X430530D01*
X429012Y296931D01*
X427725Y296071D01*
X420868Y289213D01*
X420008Y287926D01*
X419706Y286408D01*
Y244213D01*
X411877Y236384D01*
X410231Y236534D01*
X409366Y237662D01*
X407455Y239127D01*
X405231Y240049D01*
X402844Y240363D01*
X389636D01*
X387249Y240049D01*
X385025Y239127D01*
X383114Y237662D01*
X381649Y235751D01*
X380727Y233527D01*
X380413Y231140D01*
X380727Y228753D01*
X381649Y226529D01*
X383114Y224618D01*
X385025Y223153D01*
X387249Y222231D01*
X389636Y221917D01*
X402844D01*
X405231Y222231D01*
X407455Y223153D01*
X409366Y224618D01*
X410831Y226529D01*
X411099Y227174D01*
X412242D01*
X413760Y227476D01*
X415047Y228335D01*
X423867Y237155D01*
X425040Y236669D01*
Y217543D01*
X417203Y209706D01*
X411099D01*
X410831Y210351D01*
X409366Y212262D01*
X407455Y213727D01*
X405231Y214649D01*
X402844Y214963D01*
X389636D01*
X387249Y214649D01*
X385025Y213727D01*
X383114Y212262D01*
X381649Y210351D01*
X380727Y208127D01*
X380413Y205740D01*
X380727Y203353D01*
X381649Y201129D01*
X383114Y199218D01*
X385025Y197753D01*
X387249Y196831D01*
X389636Y196517D01*
X402844D01*
X405231Y196831D01*
X407455Y197753D01*
X409366Y199218D01*
X410831Y201129D01*
X411099Y201774D01*
X418846D01*
X420364Y202076D01*
X421651Y202936D01*
X429201Y210485D01*
X430374Y209999D01*
Y197223D01*
X417457Y184306D01*
X411099D01*
X410831Y184951D01*
X409366Y186862D01*
X407455Y188327D01*
X405231Y189249D01*
X402844Y189563D01*
X389636D01*
X387249Y189249D01*
X385025Y188327D01*
X383114Y186862D01*
X381649Y184951D01*
X380727Y182727D01*
X380413Y180340D01*
X380727Y177953D01*
X381649Y175729D01*
X383114Y173818D01*
X385025Y172353D01*
X387249Y171431D01*
X389636Y171117D01*
X402844D01*
X405231Y171431D01*
X407455Y172353D01*
X409366Y173818D01*
X410831Y175729D01*
X411099Y176374D01*
X419100D01*
X420618Y176676D01*
X421904Y177535D01*
X437145Y192775D01*
X438004Y194062D01*
X438306Y195580D01*
Y273947D01*
X441623Y277264D01*
X521647D01*
X522173Y275994D01*
X521286Y275107D01*
X520129Y273103D01*
X519530Y270867D01*
Y268553D01*
X520129Y266317D01*
X521286Y264313D01*
X522923Y262676D01*
X524927Y261519D01*
X527163Y260920D01*
X529477D01*
X531713Y261519D01*
X533717Y262676D01*
X535354Y264313D01*
X536511Y266317D01*
X537110Y268553D01*
Y270867D01*
X536511Y273103D01*
X535354Y275107D01*
X534467Y275994D01*
X534993Y277264D01*
X638086D01*
X638217Y276776D01*
X639736Y274145D01*
X641884Y271996D01*
X644516Y270477D01*
X647451Y269690D01*
X650489D01*
X653424Y270477D01*
X656056Y271996D01*
X658204Y274145D01*
X659724Y276776D01*
X660510Y279711D01*
Y282750D01*
X659724Y285685D01*
X658204Y288316D01*
X656056Y290465D01*
X653424Y291984D01*
X650489Y292770D01*
X647451D01*
X644516Y291984D01*
X641884Y290465D01*
X639736Y288316D01*
X638217Y285685D01*
X638086Y285196D01*
X625205D01*
X624719Y286370D01*
X644078Y305729D01*
X644516Y305476D01*
X647451Y304690D01*
X650489D01*
X653424Y305476D01*
X656056Y306996D01*
X658204Y309144D01*
X659724Y311776D01*
X660510Y314711D01*
Y317749D01*
X659724Y320684D01*
X658204Y323316D01*
X656056Y325464D01*
X653424Y326983D01*
X650489Y327770D01*
X647451D01*
X644516Y326983D01*
X641884Y325464D01*
X639736Y323316D01*
X638217Y320684D01*
X637430Y317749D01*
Y314711D01*
X638217Y311776D01*
X638469Y311338D01*
X617863Y290732D01*
X595740D01*
X595254Y291905D01*
X644078Y340729D01*
X644516Y340477D01*
X647451Y339690D01*
X650489D01*
X653424Y340477D01*
X656056Y341996D01*
X658204Y344145D01*
X659724Y346776D01*
X660510Y349711D01*
Y352749D01*
X659724Y355685D01*
X658204Y358316D01*
X656056Y360465D01*
X653424Y361984D01*
X650489Y362770D01*
D02*
G37*
G36*
X330368Y348742D02*
X330200D01*
Y339090D01*
X339852D01*
Y339258D01*
X339108Y342036D01*
X337670Y344526D01*
X335636Y346560D01*
X333146Y347998D01*
X330368Y348742D01*
D02*
G37*
G36*
X327660D02*
X327492D01*
X324714Y347998D01*
X322224Y346560D01*
X320190Y344526D01*
X318752Y342036D01*
X318008Y339258D01*
Y339090D01*
X327660D01*
Y348742D01*
D02*
G37*
G36*
Y336550D02*
X318008D01*
Y336382D01*
X318752Y333604D01*
X320190Y331114D01*
X322224Y329080D01*
X324714Y327642D01*
X327492Y326898D01*
X327660D01*
Y336550D01*
D02*
G37*
G36*
X82799Y362060D02*
X79761D01*
X76826Y361273D01*
X74194Y359754D01*
X72046Y357606D01*
X70526Y354974D01*
X69740Y352039D01*
Y349001D01*
X70526Y346066D01*
X72046Y343434D01*
X74194Y341286D01*
X76826Y339767D01*
X79761Y338980D01*
X82799D01*
X85734Y339767D01*
X88366Y341286D01*
X90514Y343434D01*
X92034Y346066D01*
X92164Y346554D01*
X296807D01*
X305914Y337447D01*
Y273050D01*
X306216Y271532D01*
X307076Y270245D01*
X321045Y256276D01*
X322332Y255416D01*
X323850Y255114D01*
X333121D01*
X333389Y254469D01*
X334854Y252558D01*
X336765Y251093D01*
X338989Y250171D01*
X341376Y249857D01*
X354584D01*
X356971Y250171D01*
X359195Y251093D01*
X361106Y252558D01*
X362571Y254469D01*
X363493Y256693D01*
X363807Y259080D01*
X363493Y261467D01*
X362571Y263691D01*
X361106Y265602D01*
X359195Y267067D01*
X356971Y267989D01*
X354584Y268303D01*
X341376D01*
X338989Y267989D01*
X336765Y267067D01*
X334854Y265602D01*
X333389Y263691D01*
X333121Y263046D01*
X325493D01*
X313846Y274693D01*
Y339090D01*
X313544Y340608D01*
X312684Y341894D01*
X301255Y353325D01*
X299968Y354184D01*
X298450Y354486D01*
X92164D01*
X92034Y354974D01*
X90514Y357606D01*
X88366Y359754D01*
X85734Y361273D01*
X82799Y362060D01*
D02*
G37*
G36*
X479044Y265763D02*
X465836D01*
X463449Y265449D01*
X461225Y264527D01*
X459314Y263062D01*
X457849Y261151D01*
X456927Y258927D01*
X456613Y256540D01*
X456927Y254153D01*
X457849Y251929D01*
X459314Y250018D01*
X461225Y248553D01*
X463449Y247631D01*
X465836Y247317D01*
X479044D01*
X481431Y247631D01*
X483655Y248553D01*
X485566Y250018D01*
X487031Y251929D01*
X487953Y254153D01*
X488267Y256540D01*
X487953Y258927D01*
X487031Y261151D01*
X485566Y263062D01*
X483655Y264527D01*
X481431Y265449D01*
X479044Y265763D01*
D02*
G37*
G36*
X650489Y257770D02*
X647451D01*
X644516Y256984D01*
X641884Y255464D01*
X639736Y253316D01*
X638217Y250684D01*
X637430Y247749D01*
Y244711D01*
X638217Y241776D01*
X639736Y239144D01*
X641884Y236996D01*
X644516Y235477D01*
X647451Y234690D01*
X650489D01*
X653424Y235477D01*
X656056Y236996D01*
X658204Y239144D01*
X659724Y241776D01*
X660510Y244711D01*
Y247749D01*
X659724Y250684D01*
X658204Y253316D01*
X656056Y255464D01*
X653424Y256984D01*
X650489Y257770D01*
D02*
G37*
G36*
X287440Y232410D02*
X273050D01*
Y224457D01*
X278384D01*
X280771Y224771D01*
X282995Y225693D01*
X284906Y227158D01*
X286371Y229069D01*
X287293Y231293D01*
X287440Y232410D01*
D02*
G37*
G36*
X270510D02*
X256120D01*
X256267Y231293D01*
X257189Y229069D01*
X258654Y227158D01*
X260565Y225693D01*
X262789Y224771D01*
X265176Y224457D01*
X270510D01*
Y232410D01*
D02*
G37*
G36*
X479044Y240363D02*
X465836D01*
X463449Y240049D01*
X461225Y239127D01*
X459314Y237662D01*
X457849Y235751D01*
X456927Y233527D01*
X456613Y231140D01*
X456927Y228753D01*
X457849Y226529D01*
X459314Y224618D01*
X461225Y223153D01*
X463449Y222231D01*
X465836Y221917D01*
X479044D01*
X481431Y222231D01*
X483655Y223153D01*
X485566Y224618D01*
X487031Y226529D01*
X487953Y228753D01*
X488267Y231140D01*
X487953Y233527D01*
X487031Y235751D01*
X485566Y237662D01*
X483655Y239127D01*
X481431Y240049D01*
X479044Y240363D01*
D02*
G37*
G36*
X650489Y222770D02*
X647451D01*
X644516Y221984D01*
X641884Y220464D01*
X639736Y218316D01*
X638217Y215684D01*
X638086Y215196D01*
X519078D01*
X517560Y214894D01*
X516273Y214035D01*
X490463Y188225D01*
X489604Y186938D01*
X489302Y185420D01*
Y182209D01*
X488032Y182125D01*
X487953Y182727D01*
X487031Y184951D01*
X485566Y186862D01*
X483655Y188327D01*
X481431Y189249D01*
X479044Y189563D01*
X465836D01*
X463449Y189249D01*
X461225Y188327D01*
X459314Y186862D01*
X457849Y184951D01*
X456927Y182727D01*
X456613Y180340D01*
X456927Y177953D01*
X457849Y175729D01*
X459314Y173818D01*
X461225Y172353D01*
X463449Y171431D01*
X465836Y171117D01*
X479044D01*
X481431Y171431D01*
X483655Y172353D01*
X485566Y173818D01*
X487031Y175729D01*
X487953Y177953D01*
X488032Y178554D01*
X489302Y178471D01*
Y156809D01*
X488032Y156726D01*
X487953Y157327D01*
X487031Y159551D01*
X485566Y161462D01*
X483655Y162927D01*
X481431Y163849D01*
X479044Y164163D01*
X465836D01*
X463449Y163849D01*
X461225Y162927D01*
X459314Y161462D01*
X457849Y159551D01*
X456927Y157327D01*
X456613Y154940D01*
X456927Y152553D01*
X457849Y150329D01*
X458868Y149000D01*
X458242Y147730D01*
X434340D01*
X432822Y147428D01*
X431535Y146568D01*
X418473Y133506D01*
X411099D01*
X410831Y134151D01*
X409366Y136062D01*
X407455Y137527D01*
X405231Y138449D01*
X402844Y138763D01*
X389636D01*
X387249Y138449D01*
X385025Y137527D01*
X383114Y136062D01*
X381649Y134151D01*
X380727Y131927D01*
X380413Y129540D01*
X380727Y127153D01*
X381649Y124929D01*
X383114Y123018D01*
X385025Y121553D01*
X387249Y120631D01*
X389636Y120317D01*
X402844D01*
X405231Y120631D01*
X407455Y121553D01*
X409366Y123018D01*
X410831Y124929D01*
X411099Y125574D01*
X420116D01*
X421634Y125876D01*
X422920Y126735D01*
X435983Y139798D01*
X463967D01*
X464050Y138528D01*
X463449Y138449D01*
X461225Y137527D01*
X459314Y136062D01*
X457849Y134151D01*
X456927Y131927D01*
X456780Y130810D01*
X472440D01*
Y128270D01*
X456780D01*
X456927Y127153D01*
X457849Y124929D01*
X459314Y123018D01*
X460542Y122076D01*
X460111Y120806D01*
X426720D01*
X425202Y120504D01*
X423915Y119644D01*
X412377Y108106D01*
X411099D01*
X410831Y108751D01*
X409366Y110662D01*
X407455Y112127D01*
X405231Y113049D01*
X402844Y113363D01*
X389636D01*
X387249Y113049D01*
X385025Y112127D01*
X383114Y110662D01*
X381649Y108751D01*
X380727Y106527D01*
X380413Y104140D01*
X380727Y101753D01*
X381649Y99529D01*
X383114Y97618D01*
X384674Y96421D01*
X384590Y95432D01*
X384537Y95174D01*
X384473Y95045D01*
X383275Y94244D01*
X369305Y80274D01*
X368446Y78988D01*
X368144Y77470D01*
Y54983D01*
X363323Y50162D01*
X362366Y51001D01*
X362571Y51269D01*
X363493Y53493D01*
X363807Y55880D01*
X363493Y58267D01*
X362571Y60491D01*
X361106Y62402D01*
X359195Y63867D01*
X356971Y64789D01*
X354584Y65103D01*
X341376D01*
X338989Y64789D01*
X336765Y63867D01*
X334854Y62402D01*
X333389Y60491D01*
X333121Y59846D01*
X311523D01*
X302017Y69352D01*
X300730Y70212D01*
X299212Y70514D01*
X260858D01*
X259340Y70212D01*
X258053Y69352D01*
X244483Y55782D01*
X101627D01*
X91781Y65628D01*
X92034Y66066D01*
X92820Y69001D01*
Y72039D01*
X92034Y74974D01*
X90514Y77606D01*
X88366Y79754D01*
X85734Y81274D01*
X82799Y82060D01*
X79761D01*
X76826Y81274D01*
X74194Y79754D01*
X72046Y77606D01*
X70526Y74974D01*
X69740Y72039D01*
Y69001D01*
X70526Y66066D01*
X72046Y63434D01*
X74194Y61286D01*
X76826Y59767D01*
X79761Y58980D01*
X82799D01*
X85734Y59767D01*
X86172Y60019D01*
X97179Y49012D01*
X98466Y48152D01*
X99984Y47850D01*
X246126D01*
X247644Y48152D01*
X248930Y49012D01*
X254803Y54884D01*
X256144Y54429D01*
X256267Y53493D01*
X257189Y51269D01*
X258654Y49358D01*
X260565Y47893D01*
X262789Y46971D01*
X265176Y46657D01*
X278384D01*
X280771Y46971D01*
X282995Y47893D01*
X284906Y49358D01*
X286371Y51269D01*
X286639Y51914D01*
X295283D01*
X307076Y40121D01*
X308362Y39262D01*
X309880Y38960D01*
X361696D01*
X363214Y39262D01*
X364501Y40121D01*
X374915Y50535D01*
X375774Y51822D01*
X376076Y53340D01*
Y75827D01*
X379275Y79026D01*
X380456Y78411D01*
X380727Y76353D01*
X381649Y74129D01*
X383114Y72218D01*
X385025Y70753D01*
X387249Y69831D01*
X389636Y69517D01*
X402844D01*
X405231Y69831D01*
X407455Y70753D01*
X409366Y72218D01*
X410831Y74129D01*
X411099Y74774D01*
X439674D01*
X441192Y75076D01*
X442478Y75936D01*
X454017Y87474D01*
X460111D01*
X460542Y86204D01*
X459314Y85262D01*
X457849Y83351D01*
X456927Y81127D01*
X456780Y80010D01*
X472440D01*
Y78740D01*
X473710D01*
Y69517D01*
X479044D01*
X481431Y69831D01*
X483655Y70753D01*
X485566Y72218D01*
X487031Y74129D01*
X487299Y74774D01*
X518007D01*
X518930Y73646D01*
X518808Y73190D01*
X525780D01*
Y80162D01*
X524705Y79874D01*
X523035Y81545D01*
X521748Y82404D01*
X520230Y82706D01*
X487299D01*
X487031Y83351D01*
X485566Y85262D01*
X484338Y86204D01*
X484769Y87474D01*
X599180D01*
X600698Y87776D01*
X601984Y88636D01*
X644078Y130729D01*
X644516Y130477D01*
X647451Y129690D01*
X650489D01*
X653424Y130477D01*
X656056Y131996D01*
X658204Y134144D01*
X659724Y136776D01*
X660510Y139711D01*
Y142749D01*
X659724Y145684D01*
X658204Y148316D01*
X656056Y150464D01*
X653424Y151984D01*
X650489Y152770D01*
X647451D01*
X644516Y151984D01*
X641884Y150464D01*
X639736Y148316D01*
X638217Y145684D01*
X637430Y142749D01*
Y139711D01*
X638217Y136776D01*
X638469Y136338D01*
X597537Y95406D01*
X484769D01*
X484338Y96676D01*
X485566Y97618D01*
X487031Y99529D01*
X487953Y101753D01*
X488267Y104140D01*
X487953Y106527D01*
X487167Y108424D01*
X488243Y109143D01*
X490463Y106924D01*
X491750Y106064D01*
X493268Y105762D01*
X582468D01*
X583985Y106064D01*
X585272Y106924D01*
X644078Y165729D01*
X644516Y165477D01*
X647451Y164690D01*
X650489D01*
X653424Y165477D01*
X656056Y166996D01*
X658204Y169145D01*
X659724Y171776D01*
X660510Y174711D01*
Y177750D01*
X659724Y180685D01*
X658204Y183316D01*
X656056Y185465D01*
X653424Y186984D01*
X650489Y187770D01*
X647451D01*
X644516Y186984D01*
X641884Y185465D01*
X639736Y183316D01*
X638217Y180685D01*
X637430Y177750D01*
Y174711D01*
X638217Y171776D01*
X638469Y171338D01*
X580825Y113694D01*
X531922D01*
X531582Y114964D01*
X532140Y115286D01*
X533684Y116830D01*
X534775Y118720D01*
X535340Y120829D01*
Y123011D01*
X534775Y125120D01*
X533684Y127010D01*
X532140Y128554D01*
X530250Y129645D01*
X528141Y130210D01*
X525959D01*
X523850Y129645D01*
X521960Y128554D01*
X520416Y127010D01*
X519325Y125120D01*
X518760Y123011D01*
Y120829D01*
X519325Y118720D01*
X520416Y116830D01*
X521960Y115286D01*
X522518Y114964D01*
X522178Y113694D01*
X494911D01*
X488960Y119644D01*
X487674Y120504D01*
X486156Y120806D01*
X484769D01*
X484338Y122076D01*
X485566Y123018D01*
X487031Y124929D01*
X487299Y125574D01*
X488150D01*
X489668Y125876D01*
X490954Y126735D01*
X525139Y160920D01*
X527050D01*
Y168440D01*
X519530D01*
Y166529D01*
X487990Y134989D01*
X486304Y135099D01*
X485566Y136062D01*
X483655Y137527D01*
X481431Y138449D01*
X480830Y138528D01*
X480913Y139798D01*
X487172D01*
X488690Y140100D01*
X489977Y140960D01*
X496073Y147056D01*
X496932Y148342D01*
X497234Y149860D01*
Y183777D01*
X520721Y207264D01*
X638086D01*
X638217Y206776D01*
X639736Y204144D01*
X641884Y201996D01*
X644516Y200476D01*
X647451Y199690D01*
X650489D01*
X653424Y200476D01*
X656056Y201996D01*
X658204Y204144D01*
X659724Y206776D01*
X660510Y209711D01*
Y212749D01*
X659724Y215684D01*
X658204Y218316D01*
X656056Y220464D01*
X653424Y221984D01*
X650489Y222770D01*
D02*
G37*
G36*
X354584Y217503D02*
X341376D01*
X338989Y217189D01*
X336765Y216267D01*
X334854Y214802D01*
X333389Y212891D01*
X332467Y210667D01*
X332153Y208280D01*
X332467Y205893D01*
X333389Y203669D01*
X334854Y201758D01*
X336765Y200293D01*
X338989Y199371D01*
X341376Y199057D01*
X354584D01*
X356971Y199371D01*
X359195Y200293D01*
X361106Y201758D01*
X362571Y203669D01*
X363493Y205893D01*
X363807Y208280D01*
X363493Y210667D01*
X362571Y212891D01*
X361106Y214802D01*
X359195Y216267D01*
X356971Y217189D01*
X354584Y217503D01*
D02*
G37*
G36*
X278384D02*
X265176D01*
X262789Y217189D01*
X260565Y216267D01*
X258654Y214802D01*
X257189Y212891D01*
X256267Y210667D01*
X255953Y208280D01*
X256267Y205893D01*
X257189Y203669D01*
X258654Y201758D01*
X260565Y200293D01*
X262789Y199371D01*
X265176Y199057D01*
X278384D01*
X280771Y199371D01*
X282995Y200293D01*
X284906Y201758D01*
X286371Y203669D01*
X287293Y205893D01*
X287607Y208280D01*
X287293Y210667D01*
X286371Y212891D01*
X284906Y214802D01*
X282995Y216267D01*
X280771Y217189D01*
X278384Y217503D01*
D02*
G37*
G36*
X479044Y214963D02*
X465836D01*
X463449Y214649D01*
X461225Y213727D01*
X459314Y212262D01*
X457849Y210351D01*
X456927Y208127D01*
X456613Y205740D01*
X456927Y203353D01*
X457849Y201129D01*
X459314Y199218D01*
X461225Y197753D01*
X463449Y196831D01*
X465836Y196517D01*
X479044D01*
X481431Y196831D01*
X483655Y197753D01*
X485566Y199218D01*
X487031Y201129D01*
X487953Y203353D01*
X488267Y205740D01*
X487953Y208127D01*
X487031Y210351D01*
X485566Y212262D01*
X483655Y213727D01*
X481431Y214649D01*
X479044Y214963D01*
D02*
G37*
G36*
X201930Y179770D02*
X194410D01*
Y172250D01*
X201930D01*
Y179770D01*
D02*
G37*
G36*
X537110Y178500D02*
X529590D01*
Y170980D01*
X537110D01*
Y178500D01*
D02*
G37*
G36*
X527050D02*
X519530D01*
Y170980D01*
X527050D01*
Y178500D01*
D02*
G37*
G36*
X537110Y168440D02*
X529590D01*
Y160920D01*
X537110D01*
Y168440D01*
D02*
G37*
G36*
X402844Y164163D02*
X389636D01*
X387249Y163849D01*
X385025Y162927D01*
X383114Y161462D01*
X381649Y159551D01*
X380727Y157327D01*
X380413Y154940D01*
X380727Y152553D01*
X381649Y150329D01*
X383114Y148418D01*
X385025Y146953D01*
X387249Y146031D01*
X389636Y145717D01*
X402844D01*
X405231Y146031D01*
X407455Y146953D01*
X409366Y148418D01*
X410831Y150329D01*
X411753Y152553D01*
X412067Y154940D01*
X411753Y157327D01*
X410831Y159551D01*
X409366Y161462D01*
X407455Y162927D01*
X405231Y163849D01*
X402844Y164163D01*
D02*
G37*
G36*
X650489Y117770D02*
X647451D01*
X644516Y116983D01*
X641884Y115464D01*
X639736Y113316D01*
X638217Y110684D01*
X637430Y107749D01*
Y104711D01*
X638217Y101776D01*
X638469Y101338D01*
X603073Y65942D01*
X534454D01*
X533904Y67212D01*
X534775Y68720D01*
X535292Y70650D01*
X527050D01*
X518808D01*
X519325Y68720D01*
X520196Y67212D01*
X519646Y65942D01*
X503039D01*
X502169Y66813D01*
X500882Y67672D01*
X499364Y67974D01*
X455422D01*
X453904Y67672D01*
X452617Y66813D01*
X443111Y57306D01*
X411099D01*
X410831Y57951D01*
X409366Y59862D01*
X407455Y61327D01*
X405231Y62249D01*
X402844Y62563D01*
X389636D01*
X387249Y62249D01*
X385025Y61327D01*
X383114Y59862D01*
X381649Y57951D01*
X380727Y55727D01*
X380413Y53340D01*
X380727Y50953D01*
X381649Y48729D01*
X383114Y46818D01*
X385025Y45353D01*
X387249Y44431D01*
X389636Y44117D01*
X402844D01*
X405231Y44431D01*
X407455Y45353D01*
X409366Y46818D01*
X410831Y48729D01*
X411099Y49374D01*
X444754D01*
X446272Y49676D01*
X447559Y50535D01*
X456700Y59677D01*
X457529Y59579D01*
X458107Y58288D01*
X457849Y57951D01*
X456927Y55727D01*
X456613Y53340D01*
X456927Y50953D01*
X457849Y48729D01*
X459314Y46818D01*
X461225Y45353D01*
X463449Y44431D01*
X465836Y44117D01*
X479044D01*
X481431Y44431D01*
X483655Y45353D01*
X485566Y46818D01*
X487031Y48729D01*
X487299Y49374D01*
X631080D01*
X632598Y49676D01*
X633884Y50535D01*
X643039Y59690D01*
X660510D01*
Y82770D01*
X637430D01*
Y65299D01*
X629437Y57306D01*
X607015D01*
X606630Y58576D01*
X607521Y59172D01*
X644078Y95729D01*
X644516Y95476D01*
X647451Y94690D01*
X650489D01*
X653424Y95476D01*
X656056Y96996D01*
X658204Y99144D01*
X659724Y101776D01*
X660510Y104711D01*
Y107749D01*
X659724Y110684D01*
X658204Y113316D01*
X656056Y115464D01*
X653424Y116983D01*
X650489Y117770D01*
D02*
G37*
G36*
X528320Y80162D02*
Y73190D01*
X535292D01*
X534775Y75120D01*
X533684Y77010D01*
X532140Y78554D01*
X530250Y79645D01*
X528320Y80162D01*
D02*
G37*
G36*
X471170Y77470D02*
X456780D01*
X456927Y76353D01*
X457849Y74129D01*
X459314Y72218D01*
X461225Y70753D01*
X463449Y69831D01*
X465836Y69517D01*
X471170D01*
Y77470D01*
D02*
G37*
G36*
X215252Y69380D02*
X208280D01*
Y62408D01*
X210210Y62925D01*
X212100Y64016D01*
X213644Y65560D01*
X214735Y67450D01*
X215252Y69380D01*
D02*
G37*
G36*
X205740D02*
X198768D01*
X199285Y67450D01*
X200376Y65560D01*
X201920Y64016D01*
X203810Y62925D01*
X205740Y62408D01*
Y69380D01*
D02*
G37*
%LPD*%
D17*
X232410Y511810D02*
D03*
X203200Y170980D02*
D03*
X528320Y169710D02*
D03*
X589280Y511810D02*
D03*
X464820Y329730D02*
D03*
X458470Y512610D02*
D03*
X275590Y331000D02*
D03*
X278130Y511340D02*
D03*
X502920Y511810D02*
D03*
X547370D02*
D03*
X190500Y512610D02*
D03*
X151130D02*
D03*
D18*
X232410Y611810D02*
D03*
X203200Y270980D02*
D03*
X528320Y269710D02*
D03*
X589280Y611810D02*
D03*
X464820Y429730D02*
D03*
X458470Y612610D02*
D03*
X275590Y431000D02*
D03*
X278130Y611340D02*
D03*
X502920Y611810D02*
D03*
X547370D02*
D03*
X190500Y612610D02*
D03*
X151130D02*
D03*
D29*
X31859Y705104D02*
X34780Y706628D01*
X91440D01*
X29591Y705104D02*
X31859D01*
X63086Y70485D02*
X103091Y30480D01*
X63086Y70485D02*
Y678274D01*
X91440Y706628D01*
X103091Y30480D02*
X702310D01*
X426720Y116840D02*
X486156D01*
X493268Y109728D02*
X582468D01*
X396240Y104140D02*
X414020D01*
X486156Y116840D02*
X493268Y109728D01*
X414020Y104140D02*
X426720Y116840D01*
X452374Y91440D02*
X599180D01*
X439674Y78740D02*
X452374Y91440D01*
X582468Y109728D02*
X648970Y176230D01*
X599440Y420878D02*
Y651510D01*
X518668Y340106D02*
X599440Y420878D01*
X534670Y716280D02*
X599440Y651510D01*
X498094Y319024D02*
X512826Y333756D01*
X451358Y340106D02*
X518668D01*
X413258Y293624D02*
X438658Y319024D01*
X512826Y333756D02*
X596496D01*
X438658Y319024D02*
X498094D01*
X411226Y299974D02*
X451358Y340106D01*
X410718Y256540D02*
X413258Y293624D01*
X515726Y585364D02*
X589280Y511810D01*
X209550Y585364D02*
X515726D01*
X209550D02*
Y676910D01*
X151130Y526944D02*
X209550Y585364D01*
X151130Y512610D02*
Y526944D01*
X316230Y401320D02*
X328930Y388620D01*
X211530Y401320D02*
X316230D01*
X201930Y410920D02*
X211530Y401320D01*
X81280Y434340D02*
X91440Y444500D01*
X349250D02*
X405130Y388620D01*
X91440Y444500D02*
X349250D01*
X81280Y315520D02*
X103430Y293370D01*
X210058D02*
X257048Y246380D01*
X103430Y293370D02*
X210058D01*
X81280Y350520D02*
X298450D01*
X309880Y339090D01*
Y273050D02*
Y339090D01*
Y273050D02*
X323850Y259080D01*
X347980D01*
X81280Y70520D02*
X99984Y51816D01*
X246126D01*
X260858Y66548D01*
X299212D01*
X309880Y55880D01*
X347980D01*
X396240Y231140D02*
X412242D01*
X423672Y242570D01*
Y286408D01*
X430530Y293266D01*
X591006D01*
X648970Y351230D01*
X405130Y337820D02*
X436118Y368808D01*
X203200Y205740D02*
Y270980D01*
Y205740D02*
X215392Y193548D01*
X359410D01*
X365252Y187706D01*
Y149860D02*
Y187706D01*
X360172Y144780D02*
X365252Y149860D01*
X307594Y144780D02*
X360172D01*
X294894Y157480D02*
X307594Y144780D01*
X271780Y157480D02*
X294894D01*
X257048Y246380D02*
X287782D01*
X300482Y233680D01*
X347980D01*
X81280Y210520D02*
X134320Y157480D01*
X212598D01*
X225298Y170180D01*
X289720D01*
X302419Y157480D01*
X347980D01*
X81280Y175520D02*
X109988Y146812D01*
X295148D01*
X309880Y132080D01*
X347980D01*
X81280Y140520D02*
X112580Y109220D01*
X210058D01*
X218948Y118110D01*
X298450D01*
X309880Y106680D01*
X347980D01*
X81280Y105520D02*
X92820Y93980D01*
X292608D01*
X305308Y81280D01*
X347980D01*
X472440Y53340D02*
X631080D01*
X648970Y71230D01*
X396240Y53340D02*
X444754D01*
X455422Y64008D01*
X499364D01*
X501396Y61976D01*
X604716D01*
X648970Y106230D01*
X396240Y78740D02*
X439674D01*
X599180Y91440D02*
X648970Y141230D01*
X396240Y129540D02*
X420116D01*
X434340Y143764D01*
X487172D01*
X493268Y149860D01*
Y185420D01*
X519078Y211230D01*
X648970D01*
X396240Y180340D02*
X419100D01*
X434340Y195580D01*
Y275590D01*
X439980Y281230D01*
X648970D01*
X396240Y205740D02*
X418846D01*
X429006Y215900D01*
Y280162D01*
X435610Y286766D01*
X619506D01*
X648970Y316230D01*
X396240Y256540D02*
X410718D01*
X596496Y333756D02*
X648970Y386230D01*
X203200Y170980D02*
X215100Y182880D01*
X271780D01*
X328930Y337820D02*
X354330Y312420D01*
X405130D01*
X268440Y501650D02*
X278130Y511340D01*
X201460Y501650D02*
X268440D01*
X190500Y512610D02*
X201460Y501650D01*
X278130Y511340D02*
X319278D01*
X320548Y512610D01*
X458470D01*
X469430Y501650D01*
X537210D01*
X547370Y511810D01*
X472440Y129540D02*
X488150D01*
X528320Y169710D01*
X472440Y78740D02*
X520230D01*
X527050Y71920D01*
X142494Y81280D02*
X271780D01*
X135890Y87884D02*
X142494Y81280D01*
X80010Y87884D02*
X135890D01*
X68326Y99568D02*
X80010Y87884D01*
X68326Y99568D02*
Y325882D01*
X73444Y331000D01*
X275590D01*
X348380Y610870D02*
X358020Y601230D01*
X461430D01*
X471070Y610870D01*
X501980D01*
X502920Y611810D01*
X168910Y717550D02*
X209550Y676910D01*
X271780Y55880D02*
X296926D01*
X309880Y42926D01*
X361696D01*
X372110Y53340D01*
Y77470D01*
X386080Y91440D01*
X421640D01*
X434340Y104140D01*
X472440D01*
X405130Y388620D02*
X541020D01*
X328930Y312420D02*
X341376Y299974D01*
X411226D01*
X151130Y612610D02*
X190500D01*
X232410Y511810D02*
X280670Y560070D01*
X348380D01*
X398380Y610870D02*
X423780Y636270D01*
X522910D01*
X547370Y611810D01*
X589280D01*
D30*
X81280Y385520D02*
D03*
X648970Y71230D02*
D03*
D31*
X81280Y350520D02*
D03*
Y315520D02*
D03*
Y280520D02*
D03*
Y245520D02*
D03*
Y210520D02*
D03*
Y175520D02*
D03*
Y140520D02*
D03*
Y105520D02*
D03*
Y70520D02*
D03*
X648970Y106230D02*
D03*
Y141230D02*
D03*
Y176230D02*
D03*
Y211230D02*
D03*
Y246230D02*
D03*
Y281230D02*
D03*
Y316230D02*
D03*
Y351230D02*
D03*
Y386230D02*
D03*
D32*
X702310Y30480D02*
D03*
X29591Y705104D02*
D03*
D33*
X201930Y315520D02*
D03*
Y410920D02*
D03*
X524510Y321870D02*
D03*
Y417270D02*
D03*
D34*
X207010Y70650D02*
D03*
Y120650D02*
D03*
X527050Y71920D02*
D03*
Y121920D02*
D03*
X348380Y502920D02*
D03*
X398380D02*
D03*
X348380Y560070D02*
D03*
X398380D02*
D03*
Y610870D02*
D03*
X348380D02*
D03*
X398380Y664210D02*
D03*
X348380D02*
D03*
D35*
X472440Y53340D02*
D03*
Y78740D02*
D03*
Y205740D02*
D03*
Y231140D02*
D03*
Y104140D02*
D03*
Y129540D02*
D03*
Y180340D02*
D03*
Y154940D02*
D03*
Y256540D02*
D03*
X396240D02*
D03*
Y231140D02*
D03*
Y205740D02*
D03*
Y180340D02*
D03*
Y154940D02*
D03*
Y129540D02*
D03*
Y104140D02*
D03*
Y78740D02*
D03*
Y53340D02*
D03*
X347980Y259080D02*
D03*
Y233680D02*
D03*
Y208280D02*
D03*
Y182880D02*
D03*
Y157480D02*
D03*
Y132080D02*
D03*
Y106680D02*
D03*
Y81280D02*
D03*
Y55880D02*
D03*
X271780D02*
D03*
Y157480D02*
D03*
Y132080D02*
D03*
Y182880D02*
D03*
Y208280D02*
D03*
Y81280D02*
D03*
Y106680D02*
D03*
Y233680D02*
D03*
Y259080D02*
D03*
D36*
X194310Y717550D02*
D03*
X534670Y716280D02*
D03*
X560070D02*
D03*
D37*
X168910Y717550D02*
D03*
D38*
X585470Y716280D02*
D03*
D39*
X646430Y431800D02*
D03*
X81280Y434340D02*
D03*
D40*
X405130Y388620D02*
D03*
Y363220D02*
D03*
Y337820D02*
D03*
Y312420D02*
D03*
X328930D02*
D03*
Y337820D02*
D03*
Y363220D02*
D03*
D41*
Y388620D02*
D03*
D42*
X91440Y706628D02*
D03*
X436118Y368808D02*
D03*
X541020Y388620D02*
D03*
M02*
