G04*
G04 #@! TF.GenerationSoftware,Altium Limited,Altium Designer,23.9.2 (47)*
G04*
G04 Layer_Color=16711935*
%FSLAX44Y44*%
%MOMM*%
G71*
G04*
G04 #@! TF.SameCoordinates,B01C943C-82B9-4626-82FF-92624BC3EB66*
G04*
G04*
G04 #@! TF.FilePolarity,Positive*
G04*
G01*
G75*
%ADD10C,0.2000*%
%ADD12C,0.1270*%
%ADD43C,0.0000*%
%ADD44C,0.1000*%
D10*
X180280Y385520D02*
G03*
X180280Y385520I-1000J0D01*
G01*
X150710Y717550D02*
G03*
X150710Y717550I-1000J0D01*
G01*
X586470Y697080D02*
G03*
X586470Y697080I-1000J0D01*
G01*
X551970Y71230D02*
G03*
X551970Y71230I-1000J0D01*
G01*
D12*
X69280Y408020D02*
X161280D01*
Y48020D02*
Y408020D01*
X69280Y48020D02*
X161280D01*
X69280D02*
Y408020D01*
X189510Y68150D02*
Y123150D01*
X224510D01*
X189510Y68150D02*
X224510D01*
Y123150D01*
X509550Y69420D02*
Y124420D01*
X544550D01*
X509550Y69420D02*
X544550D01*
Y124420D01*
X400880Y593370D02*
Y628370D01*
X345880Y602120D02*
Y619620D01*
Y628370D01*
Y593370D02*
Y602120D01*
Y628370D02*
X400880D01*
X345880Y593370D02*
X400880D01*
X345880Y520420D02*
X400880D01*
Y485420D02*
Y520420D01*
X345880Y485420D02*
Y520420D01*
Y485420D02*
X400880D01*
X345880Y577570D02*
X400880D01*
Y542570D02*
Y577570D01*
X345880Y542570D02*
Y577570D01*
Y542570D02*
X400880D01*
X345880Y646710D02*
X400880D01*
X345880D02*
Y681710D01*
X400880Y646710D02*
Y681710D01*
X345880D02*
X400880D01*
X568970Y48730D02*
X660970D01*
X568970D02*
Y408730D01*
X660970D01*
Y48730D02*
Y408730D01*
D43*
X363982Y401320D02*
G03*
X370078Y401320I3048J0D01*
G01*
X331470Y299720D02*
Y401320D01*
X363982D01*
X370078D01*
X402590D01*
Y299720D02*
Y401320D01*
X331470Y299720D02*
X402590D01*
Y394208D02*
X410718D01*
Y383032D02*
Y394208D01*
X402590Y383032D02*
X410718D01*
X402590D02*
Y394208D01*
Y368808D02*
X410718D01*
Y357632D02*
Y368808D01*
X402590Y357632D02*
X410718D01*
X402590D02*
Y368808D01*
Y343408D02*
X410718D01*
Y332232D02*
Y343408D01*
X402590Y332232D02*
X410718D01*
X402590D02*
Y343408D01*
Y318008D02*
X410718D01*
Y306832D02*
Y318008D01*
X402590Y306832D02*
X410718D01*
X402590D02*
Y318008D01*
X323342Y306832D02*
X331470D01*
X323342D02*
Y318008D01*
X331470D01*
Y306832D02*
Y318008D01*
X323342Y332232D02*
X331470D01*
X323342D02*
Y343408D01*
X331470D01*
Y332232D02*
Y343408D01*
X323342Y357632D02*
X331470D01*
X323342D02*
Y368808D01*
X331470D01*
Y357632D02*
Y368808D01*
X323342Y383032D02*
X331470D01*
X323342D02*
Y394208D01*
X331470D01*
Y383032D02*
Y394208D01*
D44*
X156210Y704850D02*
X207010D01*
X156210D02*
X207010D01*
Y730250D01*
X156210D02*
X207010D01*
X156210Y704850D02*
Y730250D01*
X521970Y728980D02*
X598170D01*
X521970Y703580D02*
Y728980D01*
Y703580D02*
X598170D01*
Y728980D01*
X521970D02*
X598170D01*
X521970Y703580D02*
Y728980D01*
Y703580D02*
X598170D01*
X633730Y419100D02*
X659130D01*
X633730D02*
Y444500D01*
X659130D01*
Y419100D02*
Y444500D01*
X68580Y421640D02*
X93980D01*
X68580D02*
Y447040D01*
X93980D01*
Y421640D02*
Y447040D01*
M02*
